<?xml version="1.0" encoding="UTF-8" standalone="no"?>
<!DOCTYPE svg PUBLIC "-//W3C//DTD SVG 1.1//EN"
 "http://www.w3.org/Graphics/SVG/1.1/DTD/svg11.dtd">
<!-- Generated by graphviz version 2.43.0 (0)
 -->
<!-- Title: Shape Pages: 1 -->
<svg width="314pt" height="140pt"
 viewBox="0.00 0.00 314.00 140.00" xmlns="http://www.w3.org/2000/svg" xmlns:xlink="http://www.w3.org/1999/xlink">
<g id="graph0" class="graph" transform="scale(1 1) rotate(0) translate(4 136)">
<title>Shape</title>
<!-- Node1 -->
<g id="node1" class="node">
<title>Node1</title>
<g id="a_node1"><a xlink:title="Represents a shape in 2D space.">
<polygon fill="#bfbfbf" stroke="black" points="125,-112.5 125,-131.5 172,-131.5 172,-112.5 125,-112.5"/>
<text text-anchor="middle" x="148.5" y="-119.5" font-family="Helvetica,sans-Serif" font-size="10.00">Shape</text>
</a>
</g>
</g>
<!-- Node2 -->
<g id="node2" class="node">
<title>Node2</title>
<g id="a_node2"><a xlink:href="classCircle.html" target="_top" xlink:title="Represents a circle in 2D space.">
<polygon fill="none" stroke="black" points="2.5,-56.5 2.5,-75.5 46.5,-75.5 46.5,-56.5 2.5,-56.5"/>
<text text-anchor="middle" x="24.5" y="-63.5" font-family="Helvetica,sans-Serif" font-size="10.00">Circle</text>
</a>
</g>
</g>
<!-- Node1&#45;&gt;Node2 -->
<g id="edge1" class="edge">
<title>Node1&#45;&gt;Node2</title>
<path fill="none" stroke="midnightblue" d="M119.49,-108.37C96.27,-98.26 64.34,-84.35 44.06,-75.52"/>
<polygon fill="midnightblue" stroke="midnightblue" points="118.29,-111.66 128.85,-112.44 121.08,-105.24 118.29,-111.66"/>
</g>
<!-- Node4 -->
<g id="node4" class="node">
<title>Node4</title>
<g id="a_node4"><a xlink:href="classLine.html" target="_top" xlink:title="Represents a line in 2D space.">
<polygon fill="none" stroke="black" points="65,-56.5 65,-75.5 102,-75.5 102,-56.5 65,-56.5"/>
<text text-anchor="middle" x="83.5" y="-63.5" font-family="Helvetica,sans-Serif" font-size="10.00">Line</text>
</a>
</g>
</g>
<!-- Node1&#45;&gt;Node4 -->
<g id="edge3" class="edge">
<title>Node1&#45;&gt;Node4</title>
<path fill="none" stroke="midnightblue" d="M130.23,-105.82C118.58,-96.15 103.9,-83.95 94.13,-75.83"/>
<polygon fill="midnightblue" stroke="midnightblue" points="128.13,-108.63 138.06,-112.32 132.6,-103.24 128.13,-108.63"/>
</g>
<!-- Node5 -->
<g id="node5" class="node">
<title>Node5</title>
<g id="a_node5"><a xlink:href="classPolygon.html" target="_top" xlink:title="Represents a polygon in 2D space.">
<polygon fill="none" stroke="black" points="120.5,-56.5 120.5,-75.5 176.5,-75.5 176.5,-56.5 120.5,-56.5"/>
<text text-anchor="middle" x="148.5" y="-63.5" font-family="Helvetica,sans-Serif" font-size="10.00">Polygon</text>
</a>
</g>
</g>
<!-- Node1&#45;&gt;Node5 -->
<g id="edge4" class="edge">
<title>Node1&#45;&gt;Node5</title>
<path fill="none" stroke="midnightblue" d="M148.5,-101.8C148.5,-92.91 148.5,-82.78 148.5,-75.75"/>
<polygon fill="midnightblue" stroke="midnightblue" points="145,-102.08 148.5,-112.08 152,-102.08 145,-102.08"/>
</g>
<!-- Node7 -->
<g id="node7" class="node">
<title>Node7</title>
<g id="a_node7"><a xlink:href="classPolyline.html" target="_top" xlink:title="Represents a polyline in 2D space.">
<polygon fill="none" stroke="black" points="194.5,-56.5 194.5,-75.5 250.5,-75.5 250.5,-56.5 194.5,-56.5"/>
<text text-anchor="middle" x="222.5" y="-63.5" font-family="Helvetica,sans-Serif" font-size="10.00">Polyline</text>
</a>
</g>
</g>
<!-- Node1&#45;&gt;Node7 -->
<g id="edge6" class="edge">
<title>Node1&#45;&gt;Node7</title>
<path fill="none" stroke="midnightblue" d="M168.53,-106.38C181.91,-96.62 199.06,-84.11 210.39,-75.83"/>
<polygon fill="midnightblue" stroke="midnightblue" points="166.4,-103.6 160.39,-112.32 170.53,-109.26 166.4,-103.6"/>
</g>
<!-- Node8 -->
<g id="node8" class="node">
<title>Node8</title>
<g id="a_node8"><a xlink:href="classText.html" target="_top" xlink:title="Represents text in 2D space.">
<polygon fill="none" stroke="black" points="269,-56.5 269,-75.5 306,-75.5 306,-56.5 269,-56.5"/>
<text text-anchor="middle" x="287.5" y="-63.5" font-family="Helvetica,sans-Serif" font-size="10.00">Text</text>
</a>
</g>
</g>
<!-- Node1&#45;&gt;Node8 -->
<g id="edge7" class="edge">
<title>Node1&#45;&gt;Node8</title>
<path fill="none" stroke="midnightblue" d="M180.03,-108.75C207.35,-98.14 245.96,-83.14 268.7,-74.3"/>
<polygon fill="midnightblue" stroke="midnightblue" points="178.58,-105.56 170.52,-112.44 181.11,-112.08 178.58,-105.56"/>
</g>
<!-- Node3 -->
<g id="node3" class="node">
<title>Node3</title>
<g id="a_node3"><a xlink:href="classEllipse.html" target="_top" xlink:title="Represents an ellipse in 2D space.">
<polygon fill="none" stroke="black" points="0,-0.5 0,-19.5 49,-19.5 49,-0.5 0,-0.5"/>
<text text-anchor="middle" x="24.5" y="-7.5" font-family="Helvetica,sans-Serif" font-size="10.00">Ellipse</text>
</a>
</g>
</g>
<!-- Node2&#45;&gt;Node3 -->
<g id="edge2" class="edge">
<title>Node2&#45;&gt;Node3</title>
<path fill="none" stroke="midnightblue" d="M24.5,-45.8C24.5,-36.91 24.5,-26.78 24.5,-19.75"/>
<polygon fill="midnightblue" stroke="midnightblue" points="21,-46.08 24.5,-56.08 28,-46.08 21,-46.08"/>
</g>
<!-- Node6 -->
<g id="node6" class="node">
<title>Node6</title>
<g id="a_node6"><a xlink:href="classRect.html" target="_top" xlink:title="Represents a rectangle in 2D space.">
<polygon fill="none" stroke="black" points="129.5,-0.5 129.5,-19.5 167.5,-19.5 167.5,-0.5 129.5,-0.5"/>
<text text-anchor="middle" x="148.5" y="-7.5" font-family="Helvetica,sans-Serif" font-size="10.00">Rect</text>
</a>
</g>
</g>
<!-- Node5&#45;&gt;Node6 -->
<g id="edge5" class="edge">
<title>Node5&#45;&gt;Node6</title>
<path fill="none" stroke="midnightblue" d="M148.5,-45.8C148.5,-36.91 148.5,-26.78 148.5,-19.75"/>
<polygon fill="midnightblue" stroke="midnightblue" points="145,-46.08 148.5,-56.08 152,-46.08 145,-46.08"/>
</g>
</g>
</svg>
