<?xml version="1.0" encoding="UTF-8" standalone="no"?>
<!DOCTYPE svg PUBLIC "-//W3C//DTD SVG 1.1//EN"
 "http://www.w3.org/Graphics/SVG/1.1/DTD/svg11.dtd">
<!-- Generated by graphviz version 2.43.0 (0)
 -->
<!-- Title: Plyline Pages: 1 -->
<svg width="260pt" height="299pt"
 viewBox="0.00 0.00 259.50 299.00" xmlns="http://www.w3.org/2000/svg" xmlns:xlink="http://www.w3.org/1999/xlink">
<g id="graph0" class="graph" transform="scale(1 1) rotate(0) translate(4 295)">
<title>Plyline</title>
<!-- Node1 -->
<g id="node1" class="node">
<title>Node1</title>
<g id="a_node1"><a xlink:title="Represents a polyline in 2D space.">
<polygon fill="#bfbfbf" stroke="black" points="60.5,-0.5 60.5,-19.5 110.5,-19.5 110.5,-0.5 60.5,-0.5"/>
<text text-anchor="middle" x="85.5" y="-7.5" font-family="Helvetica,sans-Serif" font-size="10.00">Plyline</text>
</a>
</g>
</g>
<!-- Node2 -->
<g id="node2" class="node">
<title>Node2</title>
<g id="a_node2"><a xlink:href="classPolyShape.html" target="_top" xlink:title="Abstract base class for polygon and polyline shapes in 2D space.">
<polygon fill="none" stroke="black" points="51.5,-57.5 51.5,-76.5 119.5,-76.5 119.5,-57.5 51.5,-57.5"/>
<text text-anchor="middle" x="85.5" y="-64.5" font-family="Helvetica,sans-Serif" font-size="10.00">PolyShape</text>
</a>
</g>
</g>
<!-- Node2&#45;&gt;Node1 -->
<g id="edge1" class="edge">
<title>Node2&#45;&gt;Node1</title>
<path fill="none" stroke="midnightblue" d="M85.5,-47.12C85.5,-37.82 85.5,-27.06 85.5,-19.71"/>
<polygon fill="midnightblue" stroke="midnightblue" points="82,-47.41 85.5,-57.41 89,-47.41 82,-47.41"/>
</g>
<!-- Node3 -->
<g id="node3" class="node">
<title>Node3</title>
<g id="a_node3"><a xlink:href="classSVGElement.html" target="_top" xlink:title="Represents an element in an SVG file.">
<polygon fill="none" stroke="black" points="47,-114.5 47,-133.5 124,-133.5 124,-114.5 47,-114.5"/>
<text text-anchor="middle" x="85.5" y="-121.5" font-family="Helvetica,sans-Serif" font-size="10.00">SVGElement</text>
</a>
</g>
</g>
<!-- Node3&#45;&gt;Node2 -->
<g id="edge2" class="edge">
<title>Node3&#45;&gt;Node2</title>
<path fill="none" stroke="midnightblue" d="M85.5,-104.12C85.5,-94.82 85.5,-84.06 85.5,-76.71"/>
<polygon fill="midnightblue" stroke="midnightblue" points="82,-104.41 85.5,-114.41 89,-104.41 82,-104.41"/>
</g>
<!-- Node3&#45;&gt;Node3 -->
<g id="edge4" class="edge">
<title>Node3&#45;&gt;Node3</title>
<path fill="none" stroke="#9a32cd" stroke-dasharray="5,2" d="M134.22,-128.26C138.98,-127.4 142,-125.98 142,-124 142,-120.83 134.27,-119.09 124.06,-118.8"/>
<polygon fill="#9a32cd" stroke="#9a32cd" points="133.69,-124.8 124.06,-129.2 134.34,-131.77 133.69,-124.8"/>
<text text-anchor="middle" x="159.5" y="-121.5" font-family="Helvetica,sans-Serif" font-size="10.00"> parent</text>
</g>
<!-- Node4 -->
<g id="node4" class="node">
<title>Node4</title>
<g id="a_node4"><a xlink:href="classVector2D.html" target="_top" xlink:title=" ">
<polygon fill="none" stroke="black" points="0,-232 0,-251 105,-251 105,-232 0,-232"/>
<text text-anchor="middle" x="52.5" y="-239" font-family="Helvetica,sans-Serif" font-size="10.00">Vector2D&lt; float &gt;</text>
</a>
</g>
</g>
<!-- Node4&#45;&gt;Node3 -->
<g id="edge3" class="edge">
<title>Node4&#45;&gt;Node3</title>
<path fill="none" stroke="#9a32cd" stroke-dasharray="5,2" d="M53.8,-221.72C55.56,-203.41 59.56,-175.03 68.5,-152 71.07,-145.39 75.32,-138.64 78.92,-133.54"/>
<polygon fill="#9a32cd" stroke="#9a32cd" points="50.3,-221.66 52.97,-231.91 57.27,-222.23 50.3,-221.66"/>
<text text-anchor="middle" x="90" y="-160.5" font-family="Helvetica,sans-Serif" font-size="10.00"> position</text>
</g>
<!-- Node5 -->
<g id="node5" class="node">
<title>Node5</title>
<g id="a_node5"><a xlink:href="classmColor.html" target="_top" xlink:title="Utility class for manipulating RGBA mColors.">
<polygon fill="none" stroke="black" points="123.5,-232 123.5,-251 175.5,-251 175.5,-232 123.5,-232"/>
<text text-anchor="middle" x="149.5" y="-239" font-family="Helvetica,sans-Serif" font-size="10.00">mColor</text>
</a>
</g>
</g>
<!-- Node5&#45;&gt;Node3 -->
<g id="edge5" class="edge">
<title>Node5&#45;&gt;Node3</title>
<path fill="none" stroke="#9a32cd" stroke-dasharray="5,2" d="M143.78,-222.08C137.51,-203.47 126.34,-174.36 111.5,-152 106.97,-145.17 100.6,-138.52 95.3,-133.53"/>
<polygon fill="#9a32cd" stroke="#9a32cd" points="140.48,-223.25 146.89,-231.69 147.14,-221.1 140.48,-223.25"/>
<text text-anchor="middle" x="138" y="-166" font-family="Helvetica,sans-Serif" font-size="10.00"> fill</text>
<text text-anchor="middle" x="138" y="-155" font-family="Helvetica,sans-Serif" font-size="10.00">stroke</text>
</g>
<!-- Node5&#45;&gt;Node5 -->
<g id="edge6" class="edge">
<title>Node5&#45;&gt;Node5</title>
<path fill="none" stroke="#9a32cd" stroke-dasharray="5,2" d="M169.65,-255.15C181.9,-258.31 193.5,-253.76 193.5,-241.5 193.5,-226.11 175.24,-222.87 160.33,-231.76"/>
<polygon fill="#9a32cd" stroke="#9a32cd" points="170.9,-251.89 160.33,-251.24 168.19,-258.34 170.9,-251.89"/>
<text text-anchor="middle" x="222.5" y="-283" font-family="Helvetica,sans-Serif" font-size="10.00"> Black</text>
<text text-anchor="middle" x="222.5" y="-272" font-family="Helvetica,sans-Serif" font-size="10.00">Blue</text>
<text text-anchor="middle" x="222.5" y="-261" font-family="Helvetica,sans-Serif" font-size="10.00">Cyan</text>
<text text-anchor="middle" x="222.5" y="-250" font-family="Helvetica,sans-Serif" font-size="10.00">Green</text>
<text text-anchor="middle" x="222.5" y="-239" font-family="Helvetica,sans-Serif" font-size="10.00">Magenta</text>
<text text-anchor="middle" x="222.5" y="-228" font-family="Helvetica,sans-Serif" font-size="10.00">Red</text>
<text text-anchor="middle" x="222.5" y="-217" font-family="Helvetica,sans-Serif" font-size="10.00">Transparent</text>
<text text-anchor="middle" x="222.5" y="-206" font-family="Helvetica,sans-Serif" font-size="10.00">White</text>
<text text-anchor="middle" x="222.5" y="-195" font-family="Helvetica,sans-Serif" font-size="10.00">Yellow</text>
</g>
</g>
</svg>
