<?xml version="1.0" encoding="UTF-8" standalone="no"?>
<!DOCTYPE svg PUBLIC "-//W3C//DTD SVG 1.1//EN"
 "http://www.w3.org/Graphics/SVG/1.1/DTD/svg11.dtd">
<!-- Generated by graphviz version 2.43.0 (0)
 -->
<!-- Title: Line Pages: 1 -->
<svg width="263pt" height="242pt"
 viewBox="0.00 0.00 262.50 242.00" xmlns="http://www.w3.org/2000/svg" xmlns:xlink="http://www.w3.org/1999/xlink">
<g id="graph0" class="graph" transform="scale(1 1) rotate(0) translate(4 238)">
<title>Line</title>
<!-- Node1 -->
<g id="node1" class="node">
<title>Node1</title>
<g id="a_node1"><a xlink:title="Represents a line in 2D space.">
<polygon fill="#bfbfbf" stroke="black" points="63,-0.5 63,-19.5 100,-19.5 100,-0.5 63,-0.5"/>
<text text-anchor="middle" x="81.5" y="-7.5" font-family="Helvetica,sans-Serif" font-size="10.00">Line</text>
</a>
</g>
</g>
<!-- Node2 -->
<g id="node2" class="node">
<title>Node2</title>
<g id="a_node2"><a xlink:href="classSVGElement.html" target="_top" xlink:title="Represents an element in an SVG file.">
<polygon fill="none" stroke="black" points="114,-57.5 114,-76.5 191,-76.5 191,-57.5 114,-57.5"/>
<text text-anchor="middle" x="152.5" y="-64.5" font-family="Helvetica,sans-Serif" font-size="10.00">SVGElement</text>
</a>
</g>
</g>
<!-- Node2&#45;&gt;Node1 -->
<g id="edge1" class="edge">
<title>Node2&#45;&gt;Node1</title>
<path fill="none" stroke="midnightblue" d="M133.13,-51C120.18,-40.96 103.58,-28.1 92.75,-19.71"/>
<polygon fill="midnightblue" stroke="midnightblue" points="131.36,-54.05 141.41,-57.41 135.64,-48.52 131.36,-54.05"/>
</g>
<!-- Node2&#45;&gt;Node2 -->
<g id="edge3" class="edge">
<title>Node2&#45;&gt;Node2</title>
<path fill="none" stroke="#9a32cd" stroke-dasharray="5,2" d="M201.22,-71.26C205.98,-70.4 209,-68.98 209,-67 209,-63.83 201.27,-62.09 191.06,-61.8"/>
<polygon fill="#9a32cd" stroke="#9a32cd" points="200.69,-67.8 191.06,-72.2 201.34,-74.77 200.69,-67.8"/>
<text text-anchor="middle" x="226.5" y="-64.5" font-family="Helvetica,sans-Serif" font-size="10.00"> parent</text>
</g>
<!-- Node3 -->
<g id="node3" class="node">
<title>Node3</title>
<g id="a_node3"><a xlink:href="classVector2D.html" target="_top" xlink:title=" ">
<polygon fill="none" stroke="black" points="0,-175 0,-194 105,-194 105,-175 0,-175"/>
<text text-anchor="middle" x="52.5" y="-182" font-family="Helvetica,sans-Serif" font-size="10.00">Vector2D&lt; float &gt;</text>
</a>
</g>
</g>
<!-- Node3&#45;&gt;Node1 -->
<g id="edge6" class="edge">
<title>Node3&#45;&gt;Node1</title>
<path fill="none" stroke="#9a32cd" stroke-dasharray="5,2" d="M50.99,-164.44C49.54,-139.35 48.81,-94.1 58.5,-57 62.11,-43.18 70.19,-28.66 75.75,-19.72"/>
<polygon fill="#9a32cd" stroke="#9a32cd" points="47.52,-164.99 51.69,-174.72 54.5,-164.51 47.52,-164.99"/>
<text text-anchor="middle" x="81.5" y="-64.5" font-family="Helvetica,sans-Serif" font-size="10.00"> direction</text>
</g>
<!-- Node3&#45;&gt;Node2 -->
<g id="edge2" class="edge">
<title>Node3&#45;&gt;Node2</title>
<path fill="none" stroke="#9a32cd" stroke-dasharray="5,2" d="M59.91,-165.59C68.58,-146.31 84.48,-115.65 105.5,-95 113.29,-87.35 123.67,-81.09 132.69,-76.53"/>
<polygon fill="#9a32cd" stroke="#9a32cd" points="56.6,-164.42 55.85,-174.99 63.03,-167.2 56.6,-164.42"/>
<text text-anchor="middle" x="127" y="-103.5" font-family="Helvetica,sans-Serif" font-size="10.00"> position</text>
</g>
<!-- Node4 -->
<g id="node4" class="node">
<title>Node4</title>
<g id="a_node4"><a xlink:href="classmColor.html" target="_top" xlink:title="Utility class for manipulating RGBA mColors.">
<polygon fill="none" stroke="black" points="126.5,-175 126.5,-194 178.5,-194 178.5,-175 126.5,-175"/>
<text text-anchor="middle" x="152.5" y="-182" font-family="Helvetica,sans-Serif" font-size="10.00">mColor</text>
</a>
</g>
</g>
<!-- Node4&#45;&gt;Node2 -->
<g id="edge4" class="edge">
<title>Node4&#45;&gt;Node2</title>
<path fill="none" stroke="#9a32cd" stroke-dasharray="5,2" d="M152.5,-164.66C152.5,-139.37 152.5,-95.44 152.5,-76.78"/>
<polygon fill="#9a32cd" stroke="#9a32cd" points="149,-164.82 152.5,-174.82 156,-164.82 149,-164.82"/>
<text text-anchor="middle" x="168" y="-109" font-family="Helvetica,sans-Serif" font-size="10.00"> fill</text>
<text text-anchor="middle" x="168" y="-98" font-family="Helvetica,sans-Serif" font-size="10.00">stroke</text>
</g>
<!-- Node4&#45;&gt;Node4 -->
<g id="edge5" class="edge">
<title>Node4&#45;&gt;Node4</title>
<path fill="none" stroke="#9a32cd" stroke-dasharray="5,2" d="M172.65,-198.15C184.9,-201.31 196.5,-196.76 196.5,-184.5 196.5,-169.11 178.24,-165.87 163.33,-174.76"/>
<polygon fill="#9a32cd" stroke="#9a32cd" points="173.9,-194.89 163.33,-194.24 171.19,-201.34 173.9,-194.89"/>
<text text-anchor="middle" x="225.5" y="-226" font-family="Helvetica,sans-Serif" font-size="10.00"> Black</text>
<text text-anchor="middle" x="225.5" y="-215" font-family="Helvetica,sans-Serif" font-size="10.00">Blue</text>
<text text-anchor="middle" x="225.5" y="-204" font-family="Helvetica,sans-Serif" font-size="10.00">Cyan</text>
<text text-anchor="middle" x="225.5" y="-193" font-family="Helvetica,sans-Serif" font-size="10.00">Green</text>
<text text-anchor="middle" x="225.5" y="-182" font-family="Helvetica,sans-Serif" font-size="10.00">Magenta</text>
<text text-anchor="middle" x="225.5" y="-171" font-family="Helvetica,sans-Serif" font-size="10.00">Red</text>
<text text-anchor="middle" x="225.5" y="-160" font-family="Helvetica,sans-Serif" font-size="10.00">Transparent</text>
<text text-anchor="middle" x="225.5" y="-149" font-family="Helvetica,sans-Serif" font-size="10.00">White</text>
<text text-anchor="middle" x="225.5" y="-138" font-family="Helvetica,sans-Serif" font-size="10.00">Yellow</text>
</g>
</g>
</svg>
