<?xml version="1.0" encoding="UTF-8" standalone="no"?>
<!DOCTYPE svg PUBLIC "-//W3C//DTD SVG 1.1//EN"
 "http://www.w3.org/Graphics/SVG/1.1/DTD/svg11.dtd">
<!-- Generated by graphviz version 2.43.0 (0)
 -->
<!-- Title: Circle Pages: 1 -->
<svg width="261pt" height="299pt"
 viewBox="0.00 0.00 260.50 299.00" xmlns="http://www.w3.org/2000/svg" xmlns:xlink="http://www.w3.org/1999/xlink">
<g id="graph0" class="graph" transform="scale(1 1) rotate(0) translate(4 295)">
<title>Circle</title>
<!-- Node1 -->
<g id="node1" class="node">
<title>Node1</title>
<g id="a_node1"><a xlink:title="Represents a circle in 2D space.">
<polygon fill="#bfbfbf" stroke="black" points="58.5,-0.5 58.5,-19.5 102.5,-19.5 102.5,-0.5 58.5,-0.5"/>
<text text-anchor="middle" x="80.5" y="-7.5" font-family="Helvetica,sans-Serif" font-size="10.00">Circle</text>
</a>
</g>
</g>
<!-- Node2 -->
<g id="node2" class="node">
<title>Node2</title>
<g id="a_node2"><a xlink:href="classEll.html" target="_top" xlink:title="Represents an ellipse in 2D space.">
<polygon fill="none" stroke="black" points="66,-57.5 66,-76.5 95,-76.5 95,-57.5 66,-57.5"/>
<text text-anchor="middle" x="80.5" y="-64.5" font-family="Helvetica,sans-Serif" font-size="10.00">Ell</text>
</a>
</g>
</g>
<!-- Node2&#45;&gt;Node1 -->
<g id="edge1" class="edge">
<title>Node2&#45;&gt;Node1</title>
<path fill="none" stroke="midnightblue" d="M80.5,-47.12C80.5,-37.82 80.5,-27.06 80.5,-19.71"/>
<polygon fill="midnightblue" stroke="midnightblue" points="77,-47.41 80.5,-57.41 84,-47.41 77,-47.41"/>
</g>
<!-- Node3 -->
<g id="node3" class="node">
<title>Node3</title>
<g id="a_node3"><a xlink:href="classSVGElement.html" target="_top" xlink:title="Represents an element in an SVG file.">
<polygon fill="none" stroke="black" points="104,-114.5 104,-133.5 181,-133.5 181,-114.5 104,-114.5"/>
<text text-anchor="middle" x="142.5" y="-121.5" font-family="Helvetica,sans-Serif" font-size="10.00">SVGElement</text>
</a>
</g>
</g>
<!-- Node3&#45;&gt;Node2 -->
<g id="edge2" class="edge">
<title>Node3&#45;&gt;Node2</title>
<path fill="none" stroke="midnightblue" d="M125.26,-107.71C114,-97.72 99.69,-85.02 90.32,-76.71"/>
<polygon fill="midnightblue" stroke="midnightblue" points="123.01,-110.39 132.81,-114.41 127.65,-105.15 123.01,-110.39"/>
</g>
<!-- Node3&#45;&gt;Node3 -->
<g id="edge4" class="edge">
<title>Node3&#45;&gt;Node3</title>
<path fill="none" stroke="#9a32cd" stroke-dasharray="5,2" d="M191.22,-128.26C195.98,-127.4 199,-125.98 199,-124 199,-120.83 191.27,-119.09 181.06,-118.8"/>
<polygon fill="#9a32cd" stroke="#9a32cd" points="190.69,-124.8 181.06,-129.2 191.34,-131.77 190.69,-124.8"/>
<text text-anchor="middle" x="216.5" y="-121.5" font-family="Helvetica,sans-Serif" font-size="10.00"> parent</text>
</g>
<!-- Node4 -->
<g id="node4" class="node">
<title>Node4</title>
<g id="a_node4"><a xlink:href="classVector2D.html" target="_top" xlink:title=" ">
<polygon fill="none" stroke="black" points="0,-232 0,-251 105,-251 105,-232 0,-232"/>
<text text-anchor="middle" x="52.5" y="-239" font-family="Helvetica,sans-Serif" font-size="10.00">Vector2D&lt; float &gt;</text>
</a>
</g>
</g>
<!-- Node4&#45;&gt;Node2 -->
<g id="edge7" class="edge">
<title>Node4&#45;&gt;Node2</title>
<path fill="none" stroke="#9a32cd" stroke-dasharray="5,2" d="M51.68,-221.5C51.05,-196.48 51.5,-151.3 60.5,-114 63.81,-100.29 70.94,-85.51 75.73,-76.5"/>
<polygon fill="#9a32cd" stroke="#9a32cd" points="48.19,-221.88 52.03,-231.76 55.18,-221.64 48.19,-221.88"/>
<text text-anchor="middle" x="77.5" y="-121.5" font-family="Helvetica,sans-Serif" font-size="10.00"> radius</text>
</g>
<!-- Node4&#45;&gt;Node3 -->
<g id="edge3" class="edge">
<title>Node4&#45;&gt;Node3</title>
<path fill="none" stroke="#9a32cd" stroke-dasharray="5,2" d="M58.05,-222.32C64.68,-203.02 77.33,-172.55 96.5,-152 103.7,-144.28 113.61,-138.08 122.39,-133.58"/>
<polygon fill="#9a32cd" stroke="#9a32cd" points="54.67,-221.4 54.92,-231.99 61.33,-223.56 54.67,-221.4"/>
<text text-anchor="middle" x="118" y="-160.5" font-family="Helvetica,sans-Serif" font-size="10.00"> position</text>
</g>
<!-- Node5 -->
<g id="node5" class="node">
<title>Node5</title>
<g id="a_node5"><a xlink:href="classmColor.html" target="_top" xlink:title="Utility class for manipulating RGBA mColors.">
<polygon fill="none" stroke="black" points="124.5,-232 124.5,-251 176.5,-251 176.5,-232 124.5,-232"/>
<text text-anchor="middle" x="150.5" y="-239" font-family="Helvetica,sans-Serif" font-size="10.00">mColor</text>
</a>
</g>
</g>
<!-- Node5&#45;&gt;Node3 -->
<g id="edge5" class="edge">
<title>Node5&#45;&gt;Node3</title>
<path fill="none" stroke="#9a32cd" stroke-dasharray="5,2" d="M149.2,-221.66C147.44,-196.37 144.4,-152.44 143.11,-133.78"/>
<polygon fill="#9a32cd" stroke="#9a32cd" points="145.72,-222.08 149.9,-231.82 152.7,-221.6 145.72,-222.08"/>
<text text-anchor="middle" x="161" y="-166" font-family="Helvetica,sans-Serif" font-size="10.00"> fill</text>
<text text-anchor="middle" x="161" y="-155" font-family="Helvetica,sans-Serif" font-size="10.00">stroke</text>
</g>
<!-- Node5&#45;&gt;Node5 -->
<g id="edge6" class="edge">
<title>Node5&#45;&gt;Node5</title>
<path fill="none" stroke="#9a32cd" stroke-dasharray="5,2" d="M170.65,-255.15C182.9,-258.31 194.5,-253.76 194.5,-241.5 194.5,-226.11 176.24,-222.87 161.33,-231.76"/>
<polygon fill="#9a32cd" stroke="#9a32cd" points="171.9,-251.89 161.33,-251.24 169.19,-258.34 171.9,-251.89"/>
<text text-anchor="middle" x="223.5" y="-283" font-family="Helvetica,sans-Serif" font-size="10.00"> Black</text>
<text text-anchor="middle" x="223.5" y="-272" font-family="Helvetica,sans-Serif" font-size="10.00">Blue</text>
<text text-anchor="middle" x="223.5" y="-261" font-family="Helvetica,sans-Serif" font-size="10.00">Cyan</text>
<text text-anchor="middle" x="223.5" y="-250" font-family="Helvetica,sans-Serif" font-size="10.00">Green</text>
<text text-anchor="middle" x="223.5" y="-239" font-family="Helvetica,sans-Serif" font-size="10.00">Magenta</text>
<text text-anchor="middle" x="223.5" y="-228" font-family="Helvetica,sans-Serif" font-size="10.00">Red</text>
<text text-anchor="middle" x="223.5" y="-217" font-family="Helvetica,sans-Serif" font-size="10.00">Transparent</text>
<text text-anchor="middle" x="223.5" y="-206" font-family="Helvetica,sans-Serif" font-size="10.00">White</text>
<text text-anchor="middle" x="223.5" y="-195" font-family="Helvetica,sans-Serif" font-size="10.00">Yellow</text>
</g>
</g>
</svg>
