<?xml version="1.0" encoding="UTF-8" standalone="no"?>
<!DOCTYPE svg PUBLIC "-//W3C//DTD SVG 1.1//EN"
 "http://www.w3.org/Graphics/SVG/1.1/DTD/svg11.dtd">
<!-- Generated by graphviz version 2.43.0 (0)
 -->
<!-- Title: Rect Pages: 1 -->
<svg width="261pt" height="309pt"
 viewBox="0.00 0.00 260.50 309.00" xmlns="http://www.w3.org/2000/svg" xmlns:xlink="http://www.w3.org/1999/xlink">
<g id="graph0" class="graph" transform="scale(1 1) rotate(0) translate(4 305)">
<title>Rect</title>
<!-- Node1 -->
<g id="node1" class="node">
<title>Node1</title>
<g id="a_node1"><a xlink:title="Represents a rectangle in 2D space.">
<polygon fill="#bfbfbf" stroke="black" points="54.5,-0.5 54.5,-19.5 92.5,-19.5 92.5,-0.5 54.5,-0.5"/>
<text text-anchor="middle" x="73.5" y="-7.5" font-family="Helvetica,sans-Serif" font-size="10.00">Rect</text>
</a>
</g>
</g>
<!-- Node2 -->
<g id="node2" class="node">
<title>Node2</title>
<g id="a_node2"><a xlink:href="classPolyShape.html" target="_top" xlink:title="Abstract base class for polygon and polyline shapes in 2D space.">
<polygon fill="none" stroke="black" points="81.5,-57.5 81.5,-76.5 149.5,-76.5 149.5,-57.5 81.5,-57.5"/>
<text text-anchor="middle" x="115.5" y="-64.5" font-family="Helvetica,sans-Serif" font-size="10.00">PolyShape</text>
</a>
</g>
</g>
<!-- Node2&#45;&gt;Node1 -->
<g id="edge1" class="edge">
<title>Node2&#45;&gt;Node1</title>
<path fill="none" stroke="midnightblue" d="M102.7,-49.23C95.26,-39.49 86.19,-27.62 80.16,-19.71"/>
<polygon fill="midnightblue" stroke="midnightblue" points="100.09,-51.58 108.94,-57.41 105.65,-47.33 100.09,-51.58"/>
</g>
<!-- Node3 -->
<g id="node3" class="node">
<title>Node3</title>
<g id="a_node3"><a xlink:href="classSVGElement.html" target="_top" xlink:title="Represents an element in an SVG file.">
<polygon fill="none" stroke="black" points="80,-124.5 80,-143.5 157,-143.5 157,-124.5 80,-124.5"/>
<text text-anchor="middle" x="118.5" y="-131.5" font-family="Helvetica,sans-Serif" font-size="10.00">SVGElement</text>
</a>
</g>
</g>
<!-- Node3&#45;&gt;Node2 -->
<g id="edge2" class="edge">
<title>Node3&#45;&gt;Node2</title>
<path fill="none" stroke="midnightblue" d="M117.62,-114.04C117.05,-101.67 116.34,-86.12 115.9,-76.63"/>
<polygon fill="midnightblue" stroke="midnightblue" points="114.14,-114.41 118.1,-124.23 121.13,-114.08 114.14,-114.41"/>
</g>
<!-- Node3&#45;&gt;Node3 -->
<g id="edge4" class="edge">
<title>Node3&#45;&gt;Node3</title>
<path fill="none" stroke="#9a32cd" stroke-dasharray="5,2" d="M167.22,-138.87C171.98,-137.89 175,-136.27 175,-134 175,-130.38 167.27,-128.39 157.06,-128.05"/>
<polygon fill="#9a32cd" stroke="#9a32cd" points="166.63,-135.41 157.06,-139.95 167.37,-142.38 166.63,-135.41"/>
<text text-anchor="middle" x="192.5" y="-131.5" font-family="Helvetica,sans-Serif" font-size="10.00"> parent</text>
</g>
<!-- Node4 -->
<g id="node4" class="node">
<title>Node4</title>
<g id="a_node4"><a xlink:href="classVector2D.html" target="_top" xlink:title=" ">
<polygon fill="none" stroke="black" points="0,-242 0,-261 105,-261 105,-242 0,-242"/>
<text text-anchor="middle" x="52.5" y="-249" font-family="Helvetica,sans-Serif" font-size="10.00">Vector2D&lt; float &gt;</text>
</a>
</g>
</g>
<!-- Node4&#45;&gt;Node1 -->
<g id="edge7" class="edge">
<title>Node4&#45;&gt;Node1</title>
<path fill="none" stroke="#9a32cd" stroke-dasharray="5,2" d="M54.13,-231.97C58.38,-183.5 69.7,-54.35 72.74,-19.67"/>
<polygon fill="#9a32cd" stroke="#9a32cd" points="50.63,-231.71 53.25,-241.98 57.61,-232.32 50.63,-231.71"/>
<text text-anchor="middle" x="83.5" y="-98" font-family="Helvetica,sans-Serif" font-size="10.00"> radius</text>
</g>
<!-- Node4&#45;&gt;Node3 -->
<g id="edge3" class="edge">
<title>Node4&#45;&gt;Node3</title>
<path fill="none" stroke="#9a32cd" stroke-dasharray="5,2" d="M55.17,-231.83C58.63,-212.78 66.16,-183.11 81.5,-162 86.92,-154.54 95.03,-148.3 102.27,-143.7"/>
<polygon fill="#9a32cd" stroke="#9a32cd" points="51.68,-231.48 53.53,-241.91 58.59,-232.59 51.68,-231.48"/>
<text text-anchor="middle" x="103" y="-170.5" font-family="Helvetica,sans-Serif" font-size="10.00"> position</text>
</g>
<!-- Node5 -->
<g id="node5" class="node">
<title>Node5</title>
<g id="a_node5"><a xlink:href="classmColor.html" target="_top" xlink:title="Utility class for manipulating RGBA mColors.">
<polygon fill="none" stroke="black" points="124.5,-242 124.5,-261 176.5,-261 176.5,-242 124.5,-242"/>
<text text-anchor="middle" x="150.5" y="-249" font-family="Helvetica,sans-Serif" font-size="10.00">mColor</text>
</a>
</g>
</g>
<!-- Node5&#45;&gt;Node3 -->
<g id="edge5" class="edge">
<title>Node5&#45;&gt;Node3</title>
<path fill="none" stroke="#9a32cd" stroke-dasharray="5,2" d="M146.55,-232.09C142.54,-214.07 135.88,-185.93 128.5,-162 126.61,-155.89 124.11,-149.14 122.09,-143.91"/>
<polygon fill="#9a32cd" stroke="#9a32cd" points="143.13,-232.85 148.69,-241.87 149.97,-231.35 143.13,-232.85"/>
<text text-anchor="middle" x="150" y="-176" font-family="Helvetica,sans-Serif" font-size="10.00"> fill</text>
<text text-anchor="middle" x="150" y="-165" font-family="Helvetica,sans-Serif" font-size="10.00">stroke</text>
</g>
<!-- Node5&#45;&gt;Node5 -->
<g id="edge6" class="edge">
<title>Node5&#45;&gt;Node5</title>
<path fill="none" stroke="#9a32cd" stroke-dasharray="5,2" d="M170.65,-265.15C182.9,-268.31 194.5,-263.76 194.5,-251.5 194.5,-236.11 176.24,-232.87 161.33,-241.76"/>
<polygon fill="#9a32cd" stroke="#9a32cd" points="171.9,-261.89 161.33,-261.24 169.19,-268.34 171.9,-261.89"/>
<text text-anchor="middle" x="223.5" y="-293" font-family="Helvetica,sans-Serif" font-size="10.00"> Black</text>
<text text-anchor="middle" x="223.5" y="-282" font-family="Helvetica,sans-Serif" font-size="10.00">Blue</text>
<text text-anchor="middle" x="223.5" y="-271" font-family="Helvetica,sans-Serif" font-size="10.00">Cyan</text>
<text text-anchor="middle" x="223.5" y="-260" font-family="Helvetica,sans-Serif" font-size="10.00">Green</text>
<text text-anchor="middle" x="223.5" y="-249" font-family="Helvetica,sans-Serif" font-size="10.00">Magenta</text>
<text text-anchor="middle" x="223.5" y="-238" font-family="Helvetica,sans-Serif" font-size="10.00">Red</text>
<text text-anchor="middle" x="223.5" y="-227" font-family="Helvetica,sans-Serif" font-size="10.00">Transparent</text>
<text text-anchor="middle" x="223.5" y="-216" font-family="Helvetica,sans-Serif" font-size="10.00">White</text>
<text text-anchor="middle" x="223.5" y="-205" font-family="Helvetica,sans-Serif" font-size="10.00">Yellow</text>
</g>
</g>
</svg>
