<?xml version="1.0" encoding="UTF-8" standalone="no"?>
<!DOCTYPE svg PUBLIC "-//W3C//DTD SVG 1.1//EN"
 "http://www.w3.org/Graphics/SVG/1.1/DTD/svg11.dtd">
<!-- Generated by graphviz version 2.43.0 (0)
 -->
<!-- Title: Parser Pages: 1 -->
<svg width="260pt" height="252pt"
 viewBox="0.00 0.00 259.50 252.00" xmlns="http://www.w3.org/2000/svg" xmlns:xlink="http://www.w3.org/1999/xlink">
<g id="graph0" class="graph" transform="scale(1 1) rotate(0) translate(4 248)">
<title>Parser</title>
<!-- Node1 -->
<g id="node1" class="node">
<title>Node1</title>
<g id="a_node1"><a xlink:title="To manipulate and parse an SVG file.">
<polygon fill="#bfbfbf" stroke="black" points="62,-0.5 62,-19.5 109,-19.5 109,-0.5 62,-0.5"/>
<text text-anchor="middle" x="85.5" y="-7.5" font-family="Helvetica,sans-Serif" font-size="10.00">Parser</text>
</a>
</g>
</g>
<!-- Node1&#45;&gt;Node1 -->
<g id="edge6" class="edge">
<title>Node1&#45;&gt;Node1</title>
<path fill="none" stroke="#9a32cd" stroke-dasharray="5,2" d="M119.51,-15.29C124.01,-14.39 127,-12.63 127,-10 127,-5.69 118.96,-3.7 109.38,-4.04"/>
<polygon fill="#9a32cd" stroke="#9a32cd" points="119.13,-11.81 109.38,-15.96 119.59,-18.8 119.13,-11.81"/>
<text text-anchor="middle" x="149.5" y="-7.5" font-family="Helvetica,sans-Serif" font-size="10.00"> instance</text>
</g>
<!-- Node2 -->
<g id="node2" class="node">
<title>Node2</title>
<g id="a_node2"><a xlink:href="classSVGElement.html" target="_top" xlink:title="Represents an element in an SVG file.">
<polygon fill="none" stroke="black" points="47,-67.5 47,-86.5 124,-86.5 124,-67.5 47,-67.5"/>
<text text-anchor="middle" x="85.5" y="-74.5" font-family="Helvetica,sans-Serif" font-size="10.00">SVGElement</text>
</a>
</g>
</g>
<!-- Node2&#45;&gt;Node1 -->
<g id="edge1" class="edge">
<title>Node2&#45;&gt;Node1</title>
<path fill="none" stroke="#9a32cd" stroke-dasharray="5,2" d="M85.5,-57.04C85.5,-44.67 85.5,-29.12 85.5,-19.63"/>
<polygon fill="#9a32cd" stroke="#9a32cd" points="82,-57.23 85.5,-67.23 89,-57.23 82,-57.23"/>
<text text-anchor="middle" x="97" y="-41" font-family="Helvetica,sans-Serif" font-size="10.00"> root</text>
</g>
<!-- Node2&#45;&gt;Node2 -->
<g id="edge3" class="edge">
<title>Node2&#45;&gt;Node2</title>
<path fill="none" stroke="#9a32cd" stroke-dasharray="5,2" d="M134.22,-81.87C138.98,-80.89 142,-79.27 142,-77 142,-73.38 134.27,-71.39 124.06,-71.05"/>
<polygon fill="#9a32cd" stroke="#9a32cd" points="133.63,-78.41 124.06,-82.95 134.37,-85.38 133.63,-78.41"/>
<text text-anchor="middle" x="159.5" y="-74.5" font-family="Helvetica,sans-Serif" font-size="10.00"> parent</text>
</g>
<!-- Node3 -->
<g id="node3" class="node">
<title>Node3</title>
<g id="a_node3"><a xlink:href="classVector2D.html" target="_top" xlink:title=" ">
<polygon fill="none" stroke="black" points="0,-185 0,-204 105,-204 105,-185 0,-185"/>
<text text-anchor="middle" x="52.5" y="-192" font-family="Helvetica,sans-Serif" font-size="10.00">Vector2D&lt; float &gt;</text>
</a>
</g>
</g>
<!-- Node3&#45;&gt;Node2 -->
<g id="edge2" class="edge">
<title>Node3&#45;&gt;Node2</title>
<path fill="none" stroke="#9a32cd" stroke-dasharray="5,2" d="M53.8,-174.72C55.56,-156.41 59.56,-128.03 68.5,-105 71.07,-98.39 75.32,-91.64 78.92,-86.54"/>
<polygon fill="#9a32cd" stroke="#9a32cd" points="50.3,-174.66 52.97,-184.91 57.27,-175.23 50.3,-174.66"/>
<text text-anchor="middle" x="90" y="-113.5" font-family="Helvetica,sans-Serif" font-size="10.00"> position</text>
</g>
<!-- Node4 -->
<g id="node4" class="node">
<title>Node4</title>
<g id="a_node4"><a xlink:href="classmColor.html" target="_top" xlink:title="Utility class for manipulating RGBA mColors.">
<polygon fill="none" stroke="black" points="123.5,-185 123.5,-204 175.5,-204 175.5,-185 123.5,-185"/>
<text text-anchor="middle" x="149.5" y="-192" font-family="Helvetica,sans-Serif" font-size="10.00">mColor</text>
</a>
</g>
</g>
<!-- Node4&#45;&gt;Node2 -->
<g id="edge4" class="edge">
<title>Node4&#45;&gt;Node2</title>
<path fill="none" stroke="#9a32cd" stroke-dasharray="5,2" d="M143.78,-175.08C137.51,-156.47 126.34,-127.36 111.5,-105 106.97,-98.17 100.6,-91.52 95.3,-86.53"/>
<polygon fill="#9a32cd" stroke="#9a32cd" points="140.48,-176.25 146.89,-184.69 147.14,-174.1 140.48,-176.25"/>
<text text-anchor="middle" x="138" y="-119" font-family="Helvetica,sans-Serif" font-size="10.00"> fill</text>
<text text-anchor="middle" x="138" y="-108" font-family="Helvetica,sans-Serif" font-size="10.00">stroke</text>
</g>
<!-- Node4&#45;&gt;Node4 -->
<g id="edge5" class="edge">
<title>Node4&#45;&gt;Node4</title>
<path fill="none" stroke="#9a32cd" stroke-dasharray="5,2" d="M169.65,-208.15C181.9,-211.31 193.5,-206.76 193.5,-194.5 193.5,-179.11 175.24,-175.87 160.33,-184.76"/>
<polygon fill="#9a32cd" stroke="#9a32cd" points="170.9,-204.89 160.33,-204.24 168.19,-211.34 170.9,-204.89"/>
<text text-anchor="middle" x="222.5" y="-236" font-family="Helvetica,sans-Serif" font-size="10.00"> Black</text>
<text text-anchor="middle" x="222.5" y="-225" font-family="Helvetica,sans-Serif" font-size="10.00">Blue</text>
<text text-anchor="middle" x="222.5" y="-214" font-family="Helvetica,sans-Serif" font-size="10.00">Cyan</text>
<text text-anchor="middle" x="222.5" y="-203" font-family="Helvetica,sans-Serif" font-size="10.00">Green</text>
<text text-anchor="middle" x="222.5" y="-192" font-family="Helvetica,sans-Serif" font-size="10.00">Magenta</text>
<text text-anchor="middle" x="222.5" y="-181" font-family="Helvetica,sans-Serif" font-size="10.00">Red</text>
<text text-anchor="middle" x="222.5" y="-170" font-family="Helvetica,sans-Serif" font-size="10.00">Transparent</text>
<text text-anchor="middle" x="222.5" y="-159" font-family="Helvetica,sans-Serif" font-size="10.00">White</text>
<text text-anchor="middle" x="222.5" y="-148" font-family="Helvetica,sans-Serif" font-size="10.00">Yellow</text>
</g>
</g>
</svg>
