<?xml version="1.0" encoding="UTF-8" standalone="no"?>
<!DOCTYPE svg PUBLIC "-//W3C//DTD SVG 1.1//EN"
 "http://www.w3.org/Graphics/SVG/1.1/DTD/svg11.dtd">
<!-- Generated by graphviz version 2.43.0 (0)
 -->
<!-- Title: Shape Pages: 1 -->
<svg width="316pt" height="140pt"
 viewBox="0.00 0.00 316.00 140.00" xmlns="http://www.w3.org/2000/svg" xmlns:xlink="http://www.w3.org/1999/xlink">
<g id="graph0" class="graph" transform="scale(1 1) rotate(0) translate(4 136)">
<title>Shape</title>
<!-- Node1 -->
<g id="node1" class="node">
<title>Node1</title>
<g id="a_node1"><a xlink:title="Represents a shape in 2D space.">
<polygon fill="#bfbfbf" stroke="black" points="127,-112.5 127,-131.5 174,-131.5 174,-112.5 127,-112.5"/>
<text text-anchor="middle" x="150.5" y="-119.5" font-family="Helvetica,sans-Serif" font-size="10.00">Shape</text>
</a>
</g>
</g>
<!-- Node2 -->
<g id="node2" class="node">
<title>Node2</title>
<g id="a_node2"><a xlink:href="classEllipse.html" target="_top" xlink:title="Represents an ellipse in 2D space.">
<polygon fill="none" stroke="black" points="0,-56.5 0,-75.5 49,-75.5 49,-56.5 0,-56.5"/>
<text text-anchor="middle" x="24.5" y="-63.5" font-family="Helvetica,sans-Serif" font-size="10.00">Ellipse</text>
</a>
</g>
</g>
<!-- Node1&#45;&gt;Node2 -->
<g id="edge1" class="edge">
<title>Node1&#45;&gt;Node2</title>
<path fill="none" stroke="midnightblue" d="M121.34,-108.5C97.72,-98.38 65.07,-84.39 44.37,-75.52"/>
<polygon fill="midnightblue" stroke="midnightblue" points="119.96,-111.72 130.53,-112.44 122.72,-105.29 119.96,-111.72"/>
</g>
<!-- Node4 -->
<g id="node4" class="node">
<title>Node4</title>
<g id="a_node4"><a xlink:href="classLine.html" target="_top" xlink:title="Represents a line in 2D space.">
<polygon fill="none" stroke="black" points="67,-56.5 67,-75.5 104,-75.5 104,-56.5 67,-56.5"/>
<text text-anchor="middle" x="85.5" y="-63.5" font-family="Helvetica,sans-Serif" font-size="10.00">Line</text>
</a>
</g>
</g>
<!-- Node1&#45;&gt;Node4 -->
<g id="edge3" class="edge">
<title>Node1&#45;&gt;Node4</title>
<path fill="none" stroke="midnightblue" d="M132.23,-105.82C120.58,-96.15 105.9,-83.95 96.13,-75.83"/>
<polygon fill="midnightblue" stroke="midnightblue" points="130.13,-108.63 140.06,-112.32 134.6,-103.24 130.13,-108.63"/>
</g>
<!-- Node5 -->
<g id="node5" class="node">
<title>Node5</title>
<g id="a_node5"><a xlink:href="classPolygon.html" target="_top" xlink:title="Represents a polygon in 2D space.">
<polygon fill="none" stroke="black" points="122.5,-56.5 122.5,-75.5 178.5,-75.5 178.5,-56.5 122.5,-56.5"/>
<text text-anchor="middle" x="150.5" y="-63.5" font-family="Helvetica,sans-Serif" font-size="10.00">Polygon</text>
</a>
</g>
</g>
<!-- Node1&#45;&gt;Node5 -->
<g id="edge4" class="edge">
<title>Node1&#45;&gt;Node5</title>
<path fill="none" stroke="midnightblue" d="M150.5,-101.8C150.5,-92.91 150.5,-82.78 150.5,-75.75"/>
<polygon fill="midnightblue" stroke="midnightblue" points="147,-102.08 150.5,-112.08 154,-102.08 147,-102.08"/>
</g>
<!-- Node7 -->
<g id="node7" class="node">
<title>Node7</title>
<g id="a_node7"><a xlink:href="classPolyline.html" target="_top" xlink:title="Represents a polyline in 2D space.">
<polygon fill="none" stroke="black" points="196.5,-56.5 196.5,-75.5 252.5,-75.5 252.5,-56.5 196.5,-56.5"/>
<text text-anchor="middle" x="224.5" y="-63.5" font-family="Helvetica,sans-Serif" font-size="10.00">Polyline</text>
</a>
</g>
</g>
<!-- Node1&#45;&gt;Node7 -->
<g id="edge6" class="edge">
<title>Node1&#45;&gt;Node7</title>
<path fill="none" stroke="midnightblue" d="M170.53,-106.38C183.91,-96.62 201.06,-84.11 212.39,-75.83"/>
<polygon fill="midnightblue" stroke="midnightblue" points="168.4,-103.6 162.39,-112.32 172.53,-109.26 168.4,-103.6"/>
</g>
<!-- Node8 -->
<g id="node8" class="node">
<title>Node8</title>
<g id="a_node8"><a xlink:href="classText.html" target="_top" xlink:title="Represents text in 2D space.">
<polygon fill="none" stroke="black" points="271,-56.5 271,-75.5 308,-75.5 308,-56.5 271,-56.5"/>
<text text-anchor="middle" x="289.5" y="-63.5" font-family="Helvetica,sans-Serif" font-size="10.00">Text</text>
</a>
</g>
</g>
<!-- Node1&#45;&gt;Node8 -->
<g id="edge7" class="edge">
<title>Node1&#45;&gt;Node8</title>
<path fill="none" stroke="midnightblue" d="M182.03,-108.75C209.35,-98.14 247.96,-83.14 270.7,-74.3"/>
<polygon fill="midnightblue" stroke="midnightblue" points="180.58,-105.56 172.52,-112.44 183.11,-112.08 180.58,-105.56"/>
</g>
<!-- Node3 -->
<g id="node3" class="node">
<title>Node3</title>
<g id="a_node3"><a xlink:href="classCircle.html" target="_top" xlink:title="Represents a circle in 2D space.">
<polygon fill="none" stroke="black" points="2.5,-0.5 2.5,-19.5 46.5,-19.5 46.5,-0.5 2.5,-0.5"/>
<text text-anchor="middle" x="24.5" y="-7.5" font-family="Helvetica,sans-Serif" font-size="10.00">Circle</text>
</a>
</g>
</g>
<!-- Node2&#45;&gt;Node3 -->
<g id="edge2" class="edge">
<title>Node2&#45;&gt;Node3</title>
<path fill="none" stroke="midnightblue" d="M24.5,-45.8C24.5,-36.91 24.5,-26.78 24.5,-19.75"/>
<polygon fill="midnightblue" stroke="midnightblue" points="21,-46.08 24.5,-56.08 28,-46.08 21,-46.08"/>
</g>
<!-- Node6 -->
<g id="node6" class="node">
<title>Node6</title>
<g id="a_node6"><a xlink:href="classRect.html" target="_top" xlink:title="Represents a rectangle in 2D space.">
<polygon fill="none" stroke="black" points="131.5,-0.5 131.5,-19.5 169.5,-19.5 169.5,-0.5 131.5,-0.5"/>
<text text-anchor="middle" x="150.5" y="-7.5" font-family="Helvetica,sans-Serif" font-size="10.00">Rect</text>
</a>
</g>
</g>
<!-- Node5&#45;&gt;Node6 -->
<g id="edge5" class="edge">
<title>Node5&#45;&gt;Node6</title>
<path fill="none" stroke="midnightblue" d="M150.5,-45.8C150.5,-36.91 150.5,-26.78 150.5,-19.75"/>
<polygon fill="midnightblue" stroke="midnightblue" points="147,-46.08 150.5,-56.08 154,-46.08 147,-46.08"/>
</g>
</g>
</svg>
