<?xml version="1.0" encoding="UTF-8" standalone="no"?>
<!DOCTYPE svg PUBLIC "-//W3C//DTD SVG 1.1//EN"
 "http://www.w3.org/Graphics/SVG/1.1/DTD/svg11.dtd">
<!-- Generated by graphviz version 2.43.0 (0)
 -->
<!-- Title: SVGElement Pages: 1 -->
<svg width="363pt" height="140pt"
 viewBox="0.00 0.00 362.50 140.00" xmlns="http://www.w3.org/2000/svg" xmlns:xlink="http://www.w3.org/1999/xlink">
<g id="graph0" class="graph" transform="scale(1 1) rotate(0) translate(4 136)">
<title>SVGElement</title>
<!-- Node1 -->
<g id="node1" class="node">
<title>Node1</title>
<g id="a_node1"><a xlink:title="Represents an element in an SVG file.">
<polygon fill="#bfbfbf" stroke="black" points="127.5,-112.5 127.5,-131.5 204.5,-131.5 204.5,-112.5 127.5,-112.5"/>
<text text-anchor="middle" x="166" y="-119.5" font-family="Helvetica,sans-Serif" font-size="10.00">SVGElement</text>
</a>
</g>
</g>
<!-- Node2 -->
<g id="node2" class="node">
<title>Node2</title>
<g id="a_node2"><a xlink:href="classEll.html" target="_top" xlink:title="Represents an ellipse in 2D space.">
<polygon fill="none" stroke="black" points="7.5,-56.5 7.5,-75.5 36.5,-75.5 36.5,-56.5 7.5,-56.5"/>
<text text-anchor="middle" x="22" y="-63.5" font-family="Helvetica,sans-Serif" font-size="10.00">Ell</text>
</a>
</g>
</g>
<!-- Node1&#45;&gt;Node2 -->
<g id="edge1" class="edge">
<title>Node1&#45;&gt;Node2</title>
<path fill="none" stroke="midnightblue" d="M133.48,-108.81C103.2,-97.45 59.43,-81.04 36.8,-72.55"/>
<polygon fill="midnightblue" stroke="midnightblue" points="132.59,-112.21 143.18,-112.44 135.05,-105.66 132.59,-112.21"/>
</g>
<!-- Node4 -->
<g id="node4" class="node">
<title>Node4</title>
<g id="a_node4"><a xlink:href="classGroup.html" target="_top" xlink:title="A composite class that contains a vector of shape pointers (polymorphic).">
<polygon fill="none" stroke="black" points="55,-56.5 55,-75.5 101,-75.5 101,-56.5 55,-56.5"/>
<text text-anchor="middle" x="78" y="-63.5" font-family="Helvetica,sans-Serif" font-size="10.00">Group</text>
</a>
</g>
</g>
<!-- Node1&#45;&gt;Node4 -->
<g id="edge3" class="edge">
<title>Node1&#45;&gt;Node4</title>
<path fill="none" stroke="midnightblue" d="M143.02,-106.9C126.89,-97 105.82,-84.07 92.1,-75.65"/>
<polygon fill="midnightblue" stroke="midnightblue" points="141.51,-110.08 151.86,-112.32 145.17,-104.11 141.51,-110.08"/>
</g>
<!-- Node5 -->
<g id="node5" class="node">
<title>Node5</title>
<g id="a_node5"><a xlink:href="classLine.html" target="_top" xlink:title="Represents a line in 2D space.">
<polygon fill="none" stroke="black" points="119.5,-56.5 119.5,-75.5 156.5,-75.5 156.5,-56.5 119.5,-56.5"/>
<text text-anchor="middle" x="138" y="-63.5" font-family="Helvetica,sans-Serif" font-size="10.00">Line</text>
</a>
</g>
</g>
<!-- Node1&#45;&gt;Node5 -->
<g id="edge4" class="edge">
<title>Node1&#45;&gt;Node5</title>
<path fill="none" stroke="midnightblue" d="M156.66,-102.98C151.91,-93.82 146.34,-83.09 142.54,-75.75"/>
<polygon fill="midnightblue" stroke="midnightblue" points="153.67,-104.82 161.38,-112.08 159.88,-101.59 153.67,-104.82"/>
</g>
<!-- Node6 -->
<g id="node6" class="node">
<title>Node6</title>
<g id="a_node6"><a xlink:href="classPath.html" target="_top" xlink:title="Represents a path element in 2D space.">
<polygon fill="none" stroke="black" points="175,-56.5 175,-75.5 213,-75.5 213,-56.5 175,-56.5"/>
<text text-anchor="middle" x="194" y="-63.5" font-family="Helvetica,sans-Serif" font-size="10.00">Path</text>
</a>
</g>
</g>
<!-- Node1&#45;&gt;Node6 -->
<g id="edge5" class="edge">
<title>Node1&#45;&gt;Node6</title>
<path fill="none" stroke="midnightblue" d="M175.34,-102.98C180.09,-93.82 185.66,-83.09 189.46,-75.75"/>
<polygon fill="midnightblue" stroke="midnightblue" points="172.12,-101.59 170.62,-112.08 178.33,-104.82 172.12,-101.59"/>
</g>
<!-- Node7 -->
<g id="node7" class="node">
<title>Node7</title>
<g id="a_node7"><a xlink:href="classPolyShape.html" target="_top" xlink:title="Abstract base class for polygon and polyline shapes in 2D space.">
<polygon fill="none" stroke="black" points="231,-56.5 231,-75.5 299,-75.5 299,-56.5 231,-56.5"/>
<text text-anchor="middle" x="265" y="-63.5" font-family="Helvetica,sans-Serif" font-size="10.00">PolyShape</text>
</a>
</g>
</g>
<!-- Node1&#45;&gt;Node7 -->
<g id="edge6" class="edge">
<title>Node1&#45;&gt;Node7</title>
<path fill="none" stroke="midnightblue" d="M190.84,-107.45C209.11,-97.48 233.42,-84.23 249.13,-75.65"/>
<polygon fill="midnightblue" stroke="midnightblue" points="189.01,-104.46 181.91,-112.32 192.36,-110.61 189.01,-104.46"/>
</g>
<!-- Node11 -->
<g id="node11" class="node">
<title>Node11</title>
<g id="a_node11"><a xlink:href="classText.html" target="_top" xlink:title="Represents text in 2D space.">
<polygon fill="none" stroke="black" points="317.5,-56.5 317.5,-75.5 354.5,-75.5 354.5,-56.5 317.5,-56.5"/>
<text text-anchor="middle" x="336" y="-63.5" font-family="Helvetica,sans-Serif" font-size="10.00">Text</text>
</a>
</g>
</g>
<!-- Node1&#45;&gt;Node11 -->
<g id="edge10" class="edge">
<title>Node1&#45;&gt;Node11</title>
<path fill="none" stroke="midnightblue" d="M202.58,-109.45C231.26,-100.39 272.19,-87.43 308,-76 311.02,-75.04 314.21,-74.01 317.33,-73.01"/>
<polygon fill="midnightblue" stroke="midnightblue" points="201.45,-106.14 192.97,-112.49 203.56,-112.81 201.45,-106.14"/>
</g>
<!-- Node3 -->
<g id="node3" class="node">
<title>Node3</title>
<g id="a_node3"><a xlink:href="classCircle.html" target="_top" xlink:title="Represents a circle in 2D space.">
<polygon fill="none" stroke="black" points="0,-0.5 0,-19.5 44,-19.5 44,-0.5 0,-0.5"/>
<text text-anchor="middle" x="22" y="-7.5" font-family="Helvetica,sans-Serif" font-size="10.00">Circle</text>
</a>
</g>
</g>
<!-- Node2&#45;&gt;Node3 -->
<g id="edge2" class="edge">
<title>Node2&#45;&gt;Node3</title>
<path fill="none" stroke="midnightblue" d="M22,-45.8C22,-36.91 22,-26.78 22,-19.75"/>
<polygon fill="midnightblue" stroke="midnightblue" points="18.5,-46.08 22,-56.08 25.5,-46.08 18.5,-46.08"/>
</g>
<!-- Node8 -->
<g id="node8" class="node">
<title>Node8</title>
<g id="a_node8"><a xlink:href="classPlygon.html" target="_top" xlink:title="Represents a polygon in 2D space.">
<polygon fill="none" stroke="black" points="172,-0.5 172,-19.5 222,-19.5 222,-0.5 172,-0.5"/>
<text text-anchor="middle" x="197" y="-7.5" font-family="Helvetica,sans-Serif" font-size="10.00">Plygon</text>
</a>
</g>
</g>
<!-- Node7&#45;&gt;Node8 -->
<g id="edge7" class="edge">
<title>Node7&#45;&gt;Node8</title>
<path fill="none" stroke="midnightblue" d="M246.24,-50.1C234,-40.38 218.44,-28.03 208.12,-19.83"/>
<polygon fill="midnightblue" stroke="midnightblue" points="244.07,-52.85 254.07,-56.32 248.42,-47.36 244.07,-52.85"/>
</g>
<!-- Node9 -->
<g id="node9" class="node">
<title>Node9</title>
<g id="a_node9"><a xlink:href="classPlyline.html" target="_top" xlink:title="Represents a polyline in 2D space.">
<polygon fill="none" stroke="black" points="240,-0.5 240,-19.5 290,-19.5 290,-0.5 240,-0.5"/>
<text text-anchor="middle" x="265" y="-7.5" font-family="Helvetica,sans-Serif" font-size="10.00">Plyline</text>
</a>
</g>
</g>
<!-- Node7&#45;&gt;Node9 -->
<g id="edge8" class="edge">
<title>Node7&#45;&gt;Node9</title>
<path fill="none" stroke="midnightblue" d="M265,-45.8C265,-36.91 265,-26.78 265,-19.75"/>
<polygon fill="midnightblue" stroke="midnightblue" points="261.5,-46.08 265,-56.08 268.5,-46.08 261.5,-46.08"/>
</g>
<!-- Node10 -->
<g id="node10" class="node">
<title>Node10</title>
<g id="a_node10"><a xlink:href="classRect.html" target="_top" xlink:title="Represents a rectangle in 2D space.">
<polygon fill="none" stroke="black" points="308,-0.5 308,-19.5 346,-19.5 346,-0.5 308,-0.5"/>
<text text-anchor="middle" x="327" y="-7.5" font-family="Helvetica,sans-Serif" font-size="10.00">Rect</text>
</a>
</g>
</g>
<!-- Node7&#45;&gt;Node10 -->
<g id="edge9" class="edge">
<title>Node7&#45;&gt;Node10</title>
<path fill="none" stroke="midnightblue" d="M282.75,-49.54C293.81,-39.91 307.63,-27.87 316.86,-19.83"/>
<polygon fill="midnightblue" stroke="midnightblue" points="280.2,-47.12 274.96,-56.32 284.8,-52.4 280.2,-47.12"/>
</g>
</g>
</svg>
