<?xml version="1.0" encoding="UTF-8" standalone="no"?>
<!DOCTYPE svg PUBLIC "-//W3C//DTD SVG 1.1//EN"
 "http://www.w3.org/Graphics/SVG/1.1/DTD/svg11.dtd">
<!-- Generated by graphviz version 2.43.0 (0)
 -->
<!-- Title: Ell Pages: 1 -->
<svg width="261pt" height="242pt"
 viewBox="0.00 0.00 260.50 242.00" xmlns="http://www.w3.org/2000/svg" xmlns:xlink="http://www.w3.org/1999/xlink">
<g id="graph0" class="graph" transform="scale(1 1) rotate(0) translate(4 238)">
<title>Ell</title>
<!-- Node1 -->
<g id="node1" class="node">
<title>Node1</title>
<g id="a_node1"><a xlink:title="Represents an ellipse in 2D space.">
<polygon fill="#bfbfbf" stroke="black" points="66,-0.5 66,-19.5 95,-19.5 95,-0.5 66,-0.5"/>
<text text-anchor="middle" x="80.5" y="-7.5" font-family="Helvetica,sans-Serif" font-size="10.00">Ell</text>
</a>
</g>
</g>
<!-- Node2 -->
<g id="node2" class="node">
<title>Node2</title>
<g id="a_node2"><a xlink:href="classSVGElement.html" target="_top" xlink:title="Represents an element in an SVG file.">
<polygon fill="none" stroke="black" points="104,-57.5 104,-76.5 181,-76.5 181,-57.5 104,-57.5"/>
<text text-anchor="middle" x="142.5" y="-64.5" font-family="Helvetica,sans-Serif" font-size="10.00">SVGElement</text>
</a>
</g>
</g>
<!-- Node2&#45;&gt;Node1 -->
<g id="edge1" class="edge">
<title>Node2&#45;&gt;Node1</title>
<path fill="none" stroke="midnightblue" d="M125.26,-50.71C114,-40.72 99.69,-28.02 90.32,-19.71"/>
<polygon fill="midnightblue" stroke="midnightblue" points="123.01,-53.39 132.81,-57.41 127.65,-48.15 123.01,-53.39"/>
</g>
<!-- Node2&#45;&gt;Node2 -->
<g id="edge3" class="edge">
<title>Node2&#45;&gt;Node2</title>
<path fill="none" stroke="#9a32cd" stroke-dasharray="5,2" d="M191.22,-71.26C195.98,-70.4 199,-68.98 199,-67 199,-63.83 191.27,-62.09 181.06,-61.8"/>
<polygon fill="#9a32cd" stroke="#9a32cd" points="190.69,-67.8 181.06,-72.2 191.34,-74.77 190.69,-67.8"/>
<text text-anchor="middle" x="216.5" y="-64.5" font-family="Helvetica,sans-Serif" font-size="10.00"> parent</text>
</g>
<!-- Node3 -->
<g id="node3" class="node">
<title>Node3</title>
<g id="a_node3"><a xlink:href="classVector2D.html" target="_top" xlink:title=" ">
<polygon fill="none" stroke="black" points="0,-175 0,-194 105,-194 105,-175 0,-175"/>
<text text-anchor="middle" x="52.5" y="-182" font-family="Helvetica,sans-Serif" font-size="10.00">Vector2D&lt; float &gt;</text>
</a>
</g>
</g>
<!-- Node3&#45;&gt;Node1 -->
<g id="edge6" class="edge">
<title>Node3&#45;&gt;Node1</title>
<path fill="none" stroke="#9a32cd" stroke-dasharray="5,2" d="M51.68,-164.5C51.05,-139.48 51.5,-94.3 60.5,-57 63.81,-43.29 70.94,-28.51 75.73,-19.5"/>
<polygon fill="#9a32cd" stroke="#9a32cd" points="48.19,-164.88 52.03,-174.76 55.18,-164.64 48.19,-164.88"/>
<text text-anchor="middle" x="77.5" y="-64.5" font-family="Helvetica,sans-Serif" font-size="10.00"> radius</text>
</g>
<!-- Node3&#45;&gt;Node2 -->
<g id="edge2" class="edge">
<title>Node3&#45;&gt;Node2</title>
<path fill="none" stroke="#9a32cd" stroke-dasharray="5,2" d="M58.05,-165.32C64.68,-146.02 77.33,-115.55 96.5,-95 103.7,-87.28 113.61,-81.08 122.39,-76.58"/>
<polygon fill="#9a32cd" stroke="#9a32cd" points="54.67,-164.4 54.92,-174.99 61.33,-166.56 54.67,-164.4"/>
<text text-anchor="middle" x="118" y="-103.5" font-family="Helvetica,sans-Serif" font-size="10.00"> position</text>
</g>
<!-- Node4 -->
<g id="node4" class="node">
<title>Node4</title>
<g id="a_node4"><a xlink:href="classmColor.html" target="_top" xlink:title="Utility class for manipulating RGBA mColors.">
<polygon fill="none" stroke="black" points="124.5,-175 124.5,-194 176.5,-194 176.5,-175 124.5,-175"/>
<text text-anchor="middle" x="150.5" y="-182" font-family="Helvetica,sans-Serif" font-size="10.00">mColor</text>
</a>
</g>
</g>
<!-- Node4&#45;&gt;Node2 -->
<g id="edge4" class="edge">
<title>Node4&#45;&gt;Node2</title>
<path fill="none" stroke="#9a32cd" stroke-dasharray="5,2" d="M149.2,-164.66C147.44,-139.37 144.4,-95.44 143.11,-76.78"/>
<polygon fill="#9a32cd" stroke="#9a32cd" points="145.72,-165.08 149.9,-174.82 152.7,-164.6 145.72,-165.08"/>
<text text-anchor="middle" x="161" y="-109" font-family="Helvetica,sans-Serif" font-size="10.00"> fill</text>
<text text-anchor="middle" x="161" y="-98" font-family="Helvetica,sans-Serif" font-size="10.00">stroke</text>
</g>
<!-- Node4&#45;&gt;Node4 -->
<g id="edge5" class="edge">
<title>Node4&#45;&gt;Node4</title>
<path fill="none" stroke="#9a32cd" stroke-dasharray="5,2" d="M170.65,-198.15C182.9,-201.31 194.5,-196.76 194.5,-184.5 194.5,-169.11 176.24,-165.87 161.33,-174.76"/>
<polygon fill="#9a32cd" stroke="#9a32cd" points="171.9,-194.89 161.33,-194.24 169.19,-201.34 171.9,-194.89"/>
<text text-anchor="middle" x="223.5" y="-226" font-family="Helvetica,sans-Serif" font-size="10.00"> Black</text>
<text text-anchor="middle" x="223.5" y="-215" font-family="Helvetica,sans-Serif" font-size="10.00">Blue</text>
<text text-anchor="middle" x="223.5" y="-204" font-family="Helvetica,sans-Serif" font-size="10.00">Cyan</text>
<text text-anchor="middle" x="223.5" y="-193" font-family="Helvetica,sans-Serif" font-size="10.00">Green</text>
<text text-anchor="middle" x="223.5" y="-182" font-family="Helvetica,sans-Serif" font-size="10.00">Magenta</text>
<text text-anchor="middle" x="223.5" y="-171" font-family="Helvetica,sans-Serif" font-size="10.00">Red</text>
<text text-anchor="middle" x="223.5" y="-160" font-family="Helvetica,sans-Serif" font-size="10.00">Transparent</text>
<text text-anchor="middle" x="223.5" y="-149" font-family="Helvetica,sans-Serif" font-size="10.00">White</text>
<text text-anchor="middle" x="223.5" y="-138" font-family="Helvetica,sans-Serif" font-size="10.00">Yellow</text>
</g>
</g>
</svg>
