<?xml version="1.0" encoding="UTF-8" standalone="no"?>
<!DOCTYPE svg PUBLIC "-//W3C//DTD SVG 1.1//EN"
 "http://www.w3.org/Graphics/SVG/1.1/DTD/svg11.dtd">
<!-- Generated by graphviz version 2.43.0 (0)
 -->
<!-- Title: SVGElement Pages: 1 -->
<svg width="260pt" height="185pt"
 viewBox="0.00 0.00 259.50 185.00" xmlns="http://www.w3.org/2000/svg" xmlns:xlink="http://www.w3.org/1999/xlink">
<g id="graph0" class="graph" transform="scale(1 1) rotate(0) translate(4 181)">
<title>SVGElement</title>
<!-- Node1 -->
<g id="node1" class="node">
<title>Node1</title>
<g id="a_node1"><a xlink:title="Represents an element in an SVG file.">
<polygon fill="#bfbfbf" stroke="black" points="47,-0.5 47,-19.5 124,-19.5 124,-0.5 47,-0.5"/>
<text text-anchor="middle" x="85.5" y="-7.5" font-family="Helvetica,sans-Serif" font-size="10.00">SVGElement</text>
</a>
</g>
</g>
<!-- Node1&#45;&gt;Node1 -->
<g id="edge2" class="edge">
<title>Node1&#45;&gt;Node1</title>
<path fill="none" stroke="#9a32cd" stroke-dasharray="5,2" d="M134.22,-15.79C138.98,-14.62 142,-12.69 142,-10 142,-5.7 134.27,-3.34 124.06,-2.94"/>
<polygon fill="#9a32cd" stroke="#9a32cd" points="133.54,-12.34 124.06,-17.06 134.41,-19.29 133.54,-12.34"/>
<text text-anchor="middle" x="159.5" y="-7.5" font-family="Helvetica,sans-Serif" font-size="10.00"> parent</text>
</g>
<!-- Node2 -->
<g id="node2" class="node">
<title>Node2</title>
<g id="a_node2"><a xlink:href="classVector2D.html" target="_top" xlink:title=" ">
<polygon fill="none" stroke="black" points="0,-118 0,-137 105,-137 105,-118 0,-118"/>
<text text-anchor="middle" x="52.5" y="-125" font-family="Helvetica,sans-Serif" font-size="10.00">Vector2D&lt; float &gt;</text>
</a>
</g>
</g>
<!-- Node2&#45;&gt;Node1 -->
<g id="edge1" class="edge">
<title>Node2&#45;&gt;Node1</title>
<path fill="none" stroke="#9a32cd" stroke-dasharray="5,2" d="M53.8,-107.72C55.56,-89.41 59.56,-61.03 68.5,-38 71.07,-31.39 75.32,-24.64 78.92,-19.54"/>
<polygon fill="#9a32cd" stroke="#9a32cd" points="50.3,-107.66 52.97,-117.91 57.27,-108.23 50.3,-107.66"/>
<text text-anchor="middle" x="90" y="-46.5" font-family="Helvetica,sans-Serif" font-size="10.00"> position</text>
</g>
<!-- Node3 -->
<g id="node3" class="node">
<title>Node3</title>
<g id="a_node3"><a xlink:href="classmColor.html" target="_top" xlink:title="Utility class for manipulating RGBA mColors.">
<polygon fill="none" stroke="black" points="123.5,-118 123.5,-137 175.5,-137 175.5,-118 123.5,-118"/>
<text text-anchor="middle" x="149.5" y="-125" font-family="Helvetica,sans-Serif" font-size="10.00">mColor</text>
</a>
</g>
</g>
<!-- Node3&#45;&gt;Node1 -->
<g id="edge3" class="edge">
<title>Node3&#45;&gt;Node1</title>
<path fill="none" stroke="#9a32cd" stroke-dasharray="5,2" d="M143.78,-108.08C137.51,-89.47 126.34,-60.36 111.5,-38 106.97,-31.17 100.6,-24.52 95.3,-19.53"/>
<polygon fill="#9a32cd" stroke="#9a32cd" points="140.48,-109.25 146.89,-117.69 147.14,-107.1 140.48,-109.25"/>
<text text-anchor="middle" x="138" y="-52" font-family="Helvetica,sans-Serif" font-size="10.00"> fill</text>
<text text-anchor="middle" x="138" y="-41" font-family="Helvetica,sans-Serif" font-size="10.00">stroke</text>
</g>
<!-- Node3&#45;&gt;Node3 -->
<g id="edge4" class="edge">
<title>Node3&#45;&gt;Node3</title>
<path fill="none" stroke="#9a32cd" stroke-dasharray="5,2" d="M169.65,-141.15C181.9,-144.31 193.5,-139.76 193.5,-127.5 193.5,-112.11 175.24,-108.87 160.33,-117.76"/>
<polygon fill="#9a32cd" stroke="#9a32cd" points="170.9,-137.89 160.33,-137.24 168.19,-144.34 170.9,-137.89"/>
<text text-anchor="middle" x="222.5" y="-169" font-family="Helvetica,sans-Serif" font-size="10.00"> Black</text>
<text text-anchor="middle" x="222.5" y="-158" font-family="Helvetica,sans-Serif" font-size="10.00">Blue</text>
<text text-anchor="middle" x="222.5" y="-147" font-family="Helvetica,sans-Serif" font-size="10.00">Cyan</text>
<text text-anchor="middle" x="222.5" y="-136" font-family="Helvetica,sans-Serif" font-size="10.00">Green</text>
<text text-anchor="middle" x="222.5" y="-125" font-family="Helvetica,sans-Serif" font-size="10.00">Magenta</text>
<text text-anchor="middle" x="222.5" y="-114" font-family="Helvetica,sans-Serif" font-size="10.00">Red</text>
<text text-anchor="middle" x="222.5" y="-103" font-family="Helvetica,sans-Serif" font-size="10.00">Transparent</text>
<text text-anchor="middle" x="222.5" y="-92" font-family="Helvetica,sans-Serif" font-size="10.00">White</text>
<text text-anchor="middle" x="222.5" y="-81" font-family="Helvetica,sans-Serif" font-size="10.00">Yellow</text>
</g>
</g>
</svg>
