<?xml version="1.0" encoding="UTF-8" standalone="no"?>
<!DOCTYPE svg PUBLIC "-//W3C//DTD SVG 1.1//EN"
 "http://www.w3.org/Graphics/SVG/1.1/DTD/svg11.dtd">
<!-- Generated by graphviz version 2.43.0 (0)
 -->
<!-- Title: Path Pages: 1 -->
<svg width="260pt" height="242pt"
 viewBox="0.00 0.00 259.50 242.00" xmlns="http://www.w3.org/2000/svg" xmlns:xlink="http://www.w3.org/1999/xlink">
<g id="graph0" class="graph" transform="scale(1 1) rotate(0) translate(4 238)">
<title>Path</title>
<!-- Node1 -->
<g id="node1" class="node">
<title>Node1</title>
<g id="a_node1"><a xlink:title="Represents a path element in 2D space.">
<polygon fill="#bfbfbf" stroke="black" points="66.5,-0.5 66.5,-19.5 104.5,-19.5 104.5,-0.5 66.5,-0.5"/>
<text text-anchor="middle" x="85.5" y="-7.5" font-family="Helvetica,sans-Serif" font-size="10.00">Path</text>
</a>
</g>
</g>
<!-- Node2 -->
<g id="node2" class="node">
<title>Node2</title>
<g id="a_node2"><a xlink:href="classSVGElement.html" target="_top" xlink:title="Represents an element in an SVG file.">
<polygon fill="none" stroke="black" points="47,-57.5 47,-76.5 124,-76.5 124,-57.5 47,-57.5"/>
<text text-anchor="middle" x="85.5" y="-64.5" font-family="Helvetica,sans-Serif" font-size="10.00">SVGElement</text>
</a>
</g>
</g>
<!-- Node2&#45;&gt;Node1 -->
<g id="edge1" class="edge">
<title>Node2&#45;&gt;Node1</title>
<path fill="none" stroke="midnightblue" d="M85.5,-47.12C85.5,-37.82 85.5,-27.06 85.5,-19.71"/>
<polygon fill="midnightblue" stroke="midnightblue" points="82,-47.41 85.5,-57.41 89,-47.41 82,-47.41"/>
</g>
<!-- Node2&#45;&gt;Node2 -->
<g id="edge3" class="edge">
<title>Node2&#45;&gt;Node2</title>
<path fill="none" stroke="#9a32cd" stroke-dasharray="5,2" d="M134.22,-71.26C138.98,-70.4 142,-68.98 142,-67 142,-63.83 134.27,-62.09 124.06,-61.8"/>
<polygon fill="#9a32cd" stroke="#9a32cd" points="133.69,-67.8 124.06,-72.2 134.34,-74.77 133.69,-67.8"/>
<text text-anchor="middle" x="159.5" y="-64.5" font-family="Helvetica,sans-Serif" font-size="10.00"> parent</text>
</g>
<!-- Node3 -->
<g id="node3" class="node">
<title>Node3</title>
<g id="a_node3"><a xlink:href="classVector2D.html" target="_top" xlink:title=" ">
<polygon fill="none" stroke="black" points="0,-175 0,-194 105,-194 105,-175 0,-175"/>
<text text-anchor="middle" x="52.5" y="-182" font-family="Helvetica,sans-Serif" font-size="10.00">Vector2D&lt; float &gt;</text>
</a>
</g>
</g>
<!-- Node3&#45;&gt;Node2 -->
<g id="edge2" class="edge">
<title>Node3&#45;&gt;Node2</title>
<path fill="none" stroke="#9a32cd" stroke-dasharray="5,2" d="M53.8,-164.72C55.56,-146.41 59.56,-118.03 68.5,-95 71.07,-88.39 75.32,-81.64 78.92,-76.54"/>
<polygon fill="#9a32cd" stroke="#9a32cd" points="50.3,-164.66 52.97,-174.91 57.27,-165.23 50.3,-164.66"/>
<text text-anchor="middle" x="90" y="-103.5" font-family="Helvetica,sans-Serif" font-size="10.00"> position</text>
</g>
<!-- Node4 -->
<g id="node4" class="node">
<title>Node4</title>
<g id="a_node4"><a xlink:href="classmColor.html" target="_top" xlink:title="Utility class for manipulating RGBA mColors.">
<polygon fill="none" stroke="black" points="123.5,-175 123.5,-194 175.5,-194 175.5,-175 123.5,-175"/>
<text text-anchor="middle" x="149.5" y="-182" font-family="Helvetica,sans-Serif" font-size="10.00">mColor</text>
</a>
</g>
</g>
<!-- Node4&#45;&gt;Node2 -->
<g id="edge4" class="edge">
<title>Node4&#45;&gt;Node2</title>
<path fill="none" stroke="#9a32cd" stroke-dasharray="5,2" d="M143.78,-165.08C137.51,-146.47 126.34,-117.36 111.5,-95 106.97,-88.17 100.6,-81.52 95.3,-76.53"/>
<polygon fill="#9a32cd" stroke="#9a32cd" points="140.48,-166.25 146.89,-174.69 147.14,-164.1 140.48,-166.25"/>
<text text-anchor="middle" x="138" y="-109" font-family="Helvetica,sans-Serif" font-size="10.00"> fill</text>
<text text-anchor="middle" x="138" y="-98" font-family="Helvetica,sans-Serif" font-size="10.00">stroke</text>
</g>
<!-- Node4&#45;&gt;Node4 -->
<g id="edge5" class="edge">
<title>Node4&#45;&gt;Node4</title>
<path fill="none" stroke="#9a32cd" stroke-dasharray="5,2" d="M169.65,-198.15C181.9,-201.31 193.5,-196.76 193.5,-184.5 193.5,-169.11 175.24,-165.87 160.33,-174.76"/>
<polygon fill="#9a32cd" stroke="#9a32cd" points="170.9,-194.89 160.33,-194.24 168.19,-201.34 170.9,-194.89"/>
<text text-anchor="middle" x="222.5" y="-226" font-family="Helvetica,sans-Serif" font-size="10.00"> Black</text>
<text text-anchor="middle" x="222.5" y="-215" font-family="Helvetica,sans-Serif" font-size="10.00">Blue</text>
<text text-anchor="middle" x="222.5" y="-204" font-family="Helvetica,sans-Serif" font-size="10.00">Cyan</text>
<text text-anchor="middle" x="222.5" y="-193" font-family="Helvetica,sans-Serif" font-size="10.00">Green</text>
<text text-anchor="middle" x="222.5" y="-182" font-family="Helvetica,sans-Serif" font-size="10.00">Magenta</text>
<text text-anchor="middle" x="222.5" y="-171" font-family="Helvetica,sans-Serif" font-size="10.00">Red</text>
<text text-anchor="middle" x="222.5" y="-160" font-family="Helvetica,sans-Serif" font-size="10.00">Transparent</text>
<text text-anchor="middle" x="222.5" y="-149" font-family="Helvetica,sans-Serif" font-size="10.00">White</text>
<text text-anchor="middle" x="222.5" y="-138" font-family="Helvetica,sans-Serif" font-size="10.00">Yellow</text>
</g>
</g>
</svg>
