<?xml version="1.0" encoding="UTF-8" standalone="no"?>
<!DOCTYPE svg PUBLIC "-//W3C//DTD SVG 1.1//EN"
 "http://www.w3.org/Graphics/SVG/1.1/DTD/svg11.dtd">
<!-- Generated by graphviz version 2.43.0 (0)
 -->
<!-- Title: Graphical Class Hierarchy Pages: 1 -->
<svg width="232pt" height="218pt"
 viewBox="0.00 0.00 232.00 218.00" xmlns="http://www.w3.org/2000/svg" xmlns:xlink="http://www.w3.org/1999/xlink">
<g id="graph0" class="graph" transform="scale(1 1) rotate(0) translate(4 214)">
<title>Graphical Class Hierarchy</title>
<!-- Node0 -->
<g id="node1" class="node">
<title>Node0</title>
<g id="a_node1"><a xlink:href="classShape.html" target="_top" xlink:title="Represents a shape in 2D space.">
<polygon fill="none" stroke="black" points="0,-95.5 0,-114.5 47,-114.5 47,-95.5 0,-95.5"/>
<text text-anchor="middle" x="23.5" y="-102.5" font-family="Helvetica,sans-Serif" font-size="10.00">Shape</text>
</a>
</g>
</g>
<!-- Node1 -->
<g id="node2" class="node">
<title>Node1</title>
<g id="a_node2"><a xlink:href="classCircle.html" target="_top" xlink:title="Represents a circle in 2D space.">
<polygon fill="none" stroke="black" points="89,-190.5 89,-209.5 133,-209.5 133,-190.5 89,-190.5"/>
<text text-anchor="middle" x="111" y="-197.5" font-family="Helvetica,sans-Serif" font-size="10.00">Circle</text>
</a>
</g>
</g>
<!-- Node0&#45;&gt;Node1 -->
<g id="edge1" class="edge">
<title>Node0&#45;&gt;Node1</title>
<path fill="none" stroke="midnightblue" d="M36.18,-123.19C47.12,-139.42 64.51,-163.28 83,-181 86.48,-184.33 90.58,-187.52 94.52,-190.31"/>
<polygon fill="midnightblue" stroke="midnightblue" points="38.96,-121.04 30.53,-114.62 33.12,-124.9 38.96,-121.04"/>
</g>
<!-- Node3 -->
<g id="node4" class="node">
<title>Node3</title>
<g id="a_node4"><a xlink:href="classLine.html" target="_top" xlink:title="Represents a line in 2D space.">
<polygon fill="none" stroke="black" points="92.5,-152.5 92.5,-171.5 129.5,-171.5 129.5,-152.5 92.5,-152.5"/>
<text text-anchor="middle" x="111" y="-159.5" font-family="Helvetica,sans-Serif" font-size="10.00">Line</text>
</a>
</g>
</g>
<!-- Node0&#45;&gt;Node3 -->
<g id="edge3" class="edge">
<title>Node0&#45;&gt;Node3</title>
<path fill="none" stroke="midnightblue" d="M47.46,-120.31C62.82,-130.55 82.56,-143.71 95.71,-152.47"/>
<polygon fill="midnightblue" stroke="midnightblue" points="49.27,-117.3 39,-114.67 45.38,-123.13 49.27,-117.3"/>
</g>
<!-- Node4 -->
<g id="node5" class="node">
<title>Node4</title>
<g id="a_node5"><a xlink:href="classPolygon.html" target="_top" xlink:title="Represents a polygon in 2D space.">
<polygon fill="none" stroke="black" points="83,-114.5 83,-133.5 139,-133.5 139,-114.5 83,-114.5"/>
<text text-anchor="middle" x="111" y="-121.5" font-family="Helvetica,sans-Serif" font-size="10.00">Polygon</text>
</a>
</g>
</g>
<!-- Node0&#45;&gt;Node4 -->
<g id="edge4" class="edge">
<title>Node0&#45;&gt;Node4</title>
<path fill="none" stroke="midnightblue" d="M57.31,-112.29C65.72,-114.16 74.67,-116.15 82.77,-117.95"/>
<polygon fill="midnightblue" stroke="midnightblue" points="57.93,-108.84 47.41,-110.09 56.42,-115.68 57.93,-108.84"/>
</g>
<!-- Node5 -->
<g id="node6" class="node">
<title>Node5</title>
<g id="a_node6"><a xlink:href="classPolyline.html" target="_top" xlink:title="Represents a polyline in 2D space.">
<polygon fill="none" stroke="black" points="83,-76.5 83,-95.5 139,-95.5 139,-76.5 83,-76.5"/>
<text text-anchor="middle" x="111" y="-83.5" font-family="Helvetica,sans-Serif" font-size="10.00">Polyline</text>
</a>
</g>
</g>
<!-- Node0&#45;&gt;Node5 -->
<g id="edge5" class="edge">
<title>Node0&#45;&gt;Node5</title>
<path fill="none" stroke="midnightblue" d="M57.31,-97.71C65.72,-95.84 74.67,-93.85 82.77,-92.05"/>
<polygon fill="midnightblue" stroke="midnightblue" points="56.42,-94.32 47.41,-99.91 57.93,-101.16 56.42,-94.32"/>
</g>
<!-- Node6 -->
<g id="node7" class="node">
<title>Node6</title>
<g id="a_node7"><a xlink:href="classRect.html" target="_top" xlink:title="Represents a rectangle in 2D space.">
<polygon fill="none" stroke="black" points="92,-38.5 92,-57.5 130,-57.5 130,-38.5 92,-38.5"/>
<text text-anchor="middle" x="111" y="-45.5" font-family="Helvetica,sans-Serif" font-size="10.00">Rect</text>
</a>
</g>
</g>
<!-- Node0&#45;&gt;Node6 -->
<g id="edge6" class="edge">
<title>Node0&#45;&gt;Node6</title>
<path fill="none" stroke="midnightblue" d="M47.46,-89.69C62.82,-79.45 82.56,-66.29 95.71,-57.53"/>
<polygon fill="midnightblue" stroke="midnightblue" points="45.38,-86.87 39,-95.33 49.27,-92.7 45.38,-86.87"/>
</g>
<!-- Node7 -->
<g id="node8" class="node">
<title>Node7</title>
<g id="a_node8"><a xlink:href="classText.html" target="_top" xlink:title="Represents text in 2D space.">
<polygon fill="none" stroke="black" points="92.5,-0.5 92.5,-19.5 129.5,-19.5 129.5,-0.5 92.5,-0.5"/>
<text text-anchor="middle" x="111" y="-7.5" font-family="Helvetica,sans-Serif" font-size="10.00">Text</text>
</a>
</g>
</g>
<!-- Node0&#45;&gt;Node7 -->
<g id="edge7" class="edge">
<title>Node0&#45;&gt;Node7</title>
<path fill="none" stroke="midnightblue" d="M36.18,-86.81C47.12,-70.58 64.51,-46.72 83,-29 86.48,-25.67 90.58,-22.48 94.52,-19.69"/>
<polygon fill="midnightblue" stroke="midnightblue" points="33.12,-85.1 30.53,-95.38 38.96,-88.96 33.12,-85.1"/>
</g>
<!-- Node2 -->
<g id="node3" class="node">
<title>Node2</title>
<g id="a_node3"><a xlink:href="classEllipse.html" target="_top" xlink:title="Represents an ellipse in 2D space.">
<polygon fill="none" stroke="black" points="175,-190.5 175,-209.5 224,-209.5 224,-190.5 175,-190.5"/>
<text text-anchor="middle" x="199.5" y="-197.5" font-family="Helvetica,sans-Serif" font-size="10.00">Ellipse</text>
</a>
</g>
</g>
<!-- Node1&#45;&gt;Node2 -->
<g id="edge2" class="edge">
<title>Node1&#45;&gt;Node2</title>
<path fill="none" stroke="midnightblue" d="M143.69,-200C154.03,-200 165.31,-200 174.93,-200"/>
<polygon fill="midnightblue" stroke="midnightblue" points="143.38,-196.5 133.38,-200 143.38,-203.5 143.38,-196.5"/>
</g>
</g>
</svg>
