<?xml version="1.0" encoding="UTF-8" standalone="no"?>
<!DOCTYPE svg PUBLIC "-//W3C//DTD SVG 1.1//EN"
 "http://www.w3.org/Graphics/SVG/1.1/DTD/svg11.dtd">
<!-- Generated by graphviz version 2.43.0 (0)
 -->
<!-- Title: Graphical Class Hierarchy Pages: 1 -->
<svg width="227pt" height="180pt"
 viewBox="0.00 0.00 227.00 180.00" xmlns="http://www.w3.org/2000/svg" xmlns:xlink="http://www.w3.org/1999/xlink">
<g id="graph0" class="graph" transform="scale(1 1) rotate(0) translate(4 176)">
<title>Graphical Class Hierarchy</title>
<!-- Node0 -->
<g id="node1" class="node">
<title>Node0</title>
<g id="a_node1"><a xlink:href="classShape.html" target="_top" xlink:title="Represents a shape in 2D space.">
<polygon fill="none" stroke="black" points="0,-76.5 0,-95.5 47,-95.5 47,-76.5 0,-76.5"/>
<text text-anchor="middle" x="23.5" y="-83.5" font-family="Helvetica,sans-Serif" font-size="10.00">Shape</text>
</a>
</g>
</g>
<!-- Node1 -->
<g id="node2" class="node">
<title>Node1</title>
<g id="a_node2"><a xlink:href="classEllipse.html" target="_top" xlink:title="Represents an ellipse in 2D space.">
<polygon fill="none" stroke="black" points="86.5,-152.5 86.5,-171.5 135.5,-171.5 135.5,-152.5 86.5,-152.5"/>
<text text-anchor="middle" x="111" y="-159.5" font-family="Helvetica,sans-Serif" font-size="10.00">Ellipse</text>
</a>
</g>
</g>
<!-- Node0&#45;&gt;Node1 -->
<g id="edge1" class="edge">
<title>Node0&#45;&gt;Node1</title>
<path fill="none" stroke="midnightblue" d="M40.7,-103.17C52.09,-114.89 67.93,-130.49 83,-143 86.88,-146.22 91.28,-149.47 95.39,-152.35"/>
<polygon fill="midnightblue" stroke="midnightblue" points="43.04,-100.55 33.59,-95.76 37.99,-105.4 43.04,-100.55"/>
</g>
<!-- Node3 -->
<g id="node4" class="node">
<title>Node3</title>
<g id="a_node4"><a xlink:href="classLine.html" target="_top" xlink:title="Represents a line in 2D space.">
<polygon fill="none" stroke="black" points="92.5,-114.5 92.5,-133.5 129.5,-133.5 129.5,-114.5 92.5,-114.5"/>
<text text-anchor="middle" x="111" y="-121.5" font-family="Helvetica,sans-Serif" font-size="10.00">Line</text>
</a>
</g>
</g>
<!-- Node0&#45;&gt;Node3 -->
<g id="edge3" class="edge">
<title>Node0&#45;&gt;Node3</title>
<path fill="none" stroke="midnightblue" d="M55.27,-99.67C67.77,-105.23 81.75,-111.45 92.46,-116.2"/>
<polygon fill="midnightblue" stroke="midnightblue" points="56.63,-96.45 46.08,-95.59 53.79,-102.85 56.63,-96.45"/>
</g>
<!-- Node4 -->
<g id="node5" class="node">
<title>Node4</title>
<g id="a_node5"><a xlink:href="classPolygon.html" target="_top" xlink:title="Represents a polygon in 2D space.">
<polygon fill="none" stroke="black" points="83,-76.5 83,-95.5 139,-95.5 139,-76.5 83,-76.5"/>
<text text-anchor="middle" x="111" y="-83.5" font-family="Helvetica,sans-Serif" font-size="10.00">Polygon</text>
</a>
</g>
</g>
<!-- Node0&#45;&gt;Node4 -->
<g id="edge4" class="edge">
<title>Node0&#45;&gt;Node4</title>
<path fill="none" stroke="midnightblue" d="M57.59,-86C65.91,-86 74.76,-86 82.77,-86"/>
<polygon fill="midnightblue" stroke="midnightblue" points="57.41,-82.5 47.41,-86 57.41,-89.5 57.41,-82.5"/>
</g>
<!-- Node6 -->
<g id="node7" class="node">
<title>Node6</title>
<g id="a_node7"><a xlink:href="classPolyline.html" target="_top" xlink:title="Represents a polyline in 2D space.">
<polygon fill="none" stroke="black" points="83,-38.5 83,-57.5 139,-57.5 139,-38.5 83,-38.5"/>
<text text-anchor="middle" x="111" y="-45.5" font-family="Helvetica,sans-Serif" font-size="10.00">Polyline</text>
</a>
</g>
</g>
<!-- Node0&#45;&gt;Node6 -->
<g id="edge6" class="edge">
<title>Node0&#45;&gt;Node6</title>
<path fill="none" stroke="midnightblue" d="M55.34,-72.29C66.31,-67.42 78.41,-62.04 88.43,-57.59"/>
<polygon fill="midnightblue" stroke="midnightblue" points="53.79,-69.15 46.08,-76.41 56.63,-75.55 53.79,-69.15"/>
</g>
<!-- Node7 -->
<g id="node8" class="node">
<title>Node7</title>
<g id="a_node8"><a xlink:href="classText.html" target="_top" xlink:title="Represents text in 2D space.">
<polygon fill="none" stroke="black" points="92.5,-0.5 92.5,-19.5 129.5,-19.5 129.5,-0.5 92.5,-0.5"/>
<text text-anchor="middle" x="111" y="-7.5" font-family="Helvetica,sans-Serif" font-size="10.00">Text</text>
</a>
</g>
</g>
<!-- Node0&#45;&gt;Node7 -->
<g id="edge7" class="edge">
<title>Node0&#45;&gt;Node7</title>
<path fill="none" stroke="midnightblue" d="M40.7,-68.83C52.09,-57.11 67.93,-41.51 83,-29 86.88,-25.78 91.28,-22.53 95.39,-19.65"/>
<polygon fill="midnightblue" stroke="midnightblue" points="37.99,-66.6 33.59,-76.24 43.04,-71.45 37.99,-66.6"/>
</g>
<!-- Node2 -->
<g id="node3" class="node">
<title>Node2</title>
<g id="a_node3"><a xlink:href="classCircle.html" target="_top" xlink:title="Represents a circle in 2D space.">
<polygon fill="none" stroke="black" points="175,-152.5 175,-171.5 219,-171.5 219,-152.5 175,-152.5"/>
<text text-anchor="middle" x="197" y="-159.5" font-family="Helvetica,sans-Serif" font-size="10.00">Circle</text>
</a>
</g>
</g>
<!-- Node1&#45;&gt;Node2 -->
<g id="edge2" class="edge">
<title>Node1&#45;&gt;Node2</title>
<path fill="none" stroke="midnightblue" d="M146.11,-162C155.87,-162 166.22,-162 174.96,-162"/>
<polygon fill="midnightblue" stroke="midnightblue" points="145.85,-158.5 135.85,-162 145.85,-165.5 145.85,-158.5"/>
</g>
<!-- Node5 -->
<g id="node6" class="node">
<title>Node5</title>
<g id="a_node6"><a xlink:href="classRect.html" target="_top" xlink:title="Represents a rectangle in 2D space.">
<polygon fill="none" stroke="black" points="178,-76.5 178,-95.5 216,-95.5 216,-76.5 178,-76.5"/>
<text text-anchor="middle" x="197" y="-83.5" font-family="Helvetica,sans-Serif" font-size="10.00">Rect</text>
</a>
</g>
</g>
<!-- Node4&#45;&gt;Node5 -->
<g id="edge5" class="edge">
<title>Node4&#45;&gt;Node5</title>
<path fill="none" stroke="midnightblue" d="M149.15,-86C159.08,-86 169.37,-86 177.77,-86"/>
<polygon fill="midnightblue" stroke="midnightblue" points="149.04,-82.5 139.04,-86 149.04,-89.5 149.04,-82.5"/>
</g>
</g>
</svg>
