<?xml version="1.0" encoding="UTF-8" standalone="no"?>
<!DOCTYPE svg PUBLIC "-//W3C//DTD SVG 1.1//EN"
 "http://www.w3.org/Graphics/SVG/1.1/DTD/svg11.dtd">
<!-- Generated by graphviz version 2.43.0 (0)
 -->
<!-- Title: Graphical Class Hierarchy Pages: 1 -->
<svg width="275pt" height="218pt"
 viewBox="0.00 0.00 275.00 218.00" xmlns="http://www.w3.org/2000/svg" xmlns:xlink="http://www.w3.org/1999/xlink">
<g id="graph0" class="graph" transform="scale(1 1) rotate(0) translate(4 214)">
<title>Graphical Class Hierarchy</title>
<!-- Node0 -->
<g id="node1" class="node">
<title>Node0</title>
<g id="a_node1"><a xlink:href="classSVGElement.html" target="_top" xlink:title="Represents an element in an SVG file.">
<polygon fill="none" stroke="black" points="0,-95.5 0,-114.5 77,-114.5 77,-95.5 0,-95.5"/>
<text text-anchor="middle" x="38.5" y="-102.5" font-family="Helvetica,sans-Serif" font-size="10.00">SVGElement</text>
</a>
</g>
</g>
<!-- Node1 -->
<g id="node2" class="node">
<title>Node1</title>
<g id="a_node2"><a xlink:href="classEll.html" target="_top" xlink:title="Represents an ellipse in 2D space.">
<polygon fill="none" stroke="black" points="132.5,-190.5 132.5,-209.5 161.5,-209.5 161.5,-190.5 132.5,-190.5"/>
<text text-anchor="middle" x="147" y="-197.5" font-family="Helvetica,sans-Serif" font-size="10.00">Ell</text>
</a>
</g>
</g>
<!-- Node0&#45;&gt;Node1 -->
<g id="edge1" class="edge">
<title>Node0&#45;&gt;Node1</title>
<path fill="none" stroke="midnightblue" d="M53.86,-122.45C67.87,-138.81 90.32,-163.32 113,-181 118.94,-185.63 126.14,-189.91 132.29,-193.23"/>
<polygon fill="midnightblue" stroke="midnightblue" points="56.47,-120.12 47.35,-114.73 51.12,-124.63 56.47,-120.12"/>
</g>
<!-- Node3 -->
<g id="node4" class="node">
<title>Node3</title>
<g id="a_node4"><a xlink:href="classGroup.html" target="_top" xlink:title="A composite class that contains a vector of shape pointers (polymorphic).">
<polygon fill="none" stroke="black" points="124,-152.5 124,-171.5 170,-171.5 170,-152.5 124,-152.5"/>
<text text-anchor="middle" x="147" y="-159.5" font-family="Helvetica,sans-Serif" font-size="10.00">Group</text>
</a>
</g>
</g>
<!-- Node0&#45;&gt;Node3 -->
<g id="edge3" class="edge">
<title>Node0&#45;&gt;Node3</title>
<path fill="none" stroke="midnightblue" d="M66.5,-119.45C85.85,-129.81 111.36,-143.46 128.2,-152.47"/>
<polygon fill="midnightblue" stroke="midnightblue" points="68.03,-116.3 57.57,-114.67 64.73,-122.47 68.03,-116.3"/>
</g>
<!-- Node4 -->
<g id="node5" class="node">
<title>Node4</title>
<g id="a_node5"><a xlink:href="classLine.html" target="_top" xlink:title="Represents a line in 2D space.">
<polygon fill="none" stroke="black" points="128.5,-114.5 128.5,-133.5 165.5,-133.5 165.5,-114.5 128.5,-114.5"/>
<text text-anchor="middle" x="147" y="-121.5" font-family="Helvetica,sans-Serif" font-size="10.00">Line</text>
</a>
</g>
</g>
<!-- Node0&#45;&gt;Node4 -->
<g id="edge4" class="edge">
<title>Node0&#45;&gt;Node4</title>
<path fill="none" stroke="midnightblue" d="M87.09,-113.49C101.81,-116.12 117.11,-118.85 128.43,-120.87"/>
<polygon fill="midnightblue" stroke="midnightblue" points="87.51,-110.01 77.05,-111.7 86.28,-116.9 87.51,-110.01"/>
</g>
<!-- Node5 -->
<g id="node6" class="node">
<title>Node5</title>
<g id="a_node6"><a xlink:href="classPath.html" target="_top" xlink:title="Represents a path element in 2D space.">
<polygon fill="none" stroke="black" points="128,-76.5 128,-95.5 166,-95.5 166,-76.5 128,-76.5"/>
<text text-anchor="middle" x="147" y="-83.5" font-family="Helvetica,sans-Serif" font-size="10.00">Path</text>
</a>
</g>
</g>
<!-- Node0&#45;&gt;Node5 -->
<g id="edge5" class="edge">
<title>Node0&#45;&gt;Node5</title>
<path fill="none" stroke="midnightblue" d="M86.95,-96.53C101.47,-93.95 116.56,-91.25 127.86,-89.24"/>
<polygon fill="midnightblue" stroke="midnightblue" points="86.28,-93.1 77.05,-98.3 87.51,-99.99 86.28,-93.1"/>
</g>
<!-- Node6 -->
<g id="node7" class="node">
<title>Node6</title>
<g id="a_node7"><a xlink:href="classPolyShape.html" target="_top" xlink:title="Abstract base class for polygon and polyline shapes in 2D space.">
<polygon fill="none" stroke="black" points="113,-38.5 113,-57.5 181,-57.5 181,-38.5 113,-38.5"/>
<text text-anchor="middle" x="147" y="-45.5" font-family="Helvetica,sans-Serif" font-size="10.00">PolyShape</text>
</a>
</g>
</g>
<!-- Node0&#45;&gt;Node6 -->
<g id="edge6" class="edge">
<title>Node0&#45;&gt;Node6</title>
<path fill="none" stroke="midnightblue" d="M66.5,-90.55C85.85,-80.19 111.36,-66.54 128.2,-57.53"/>
<polygon fill="midnightblue" stroke="midnightblue" points="64.73,-87.53 57.57,-95.33 68.03,-93.7 64.73,-87.53"/>
</g>
<!-- Node10 -->
<g id="node11" class="node">
<title>Node10</title>
<g id="a_node11"><a xlink:href="classText.html" target="_top" xlink:title="Represents text in 2D space.">
<polygon fill="none" stroke="black" points="128.5,-0.5 128.5,-19.5 165.5,-19.5 165.5,-0.5 128.5,-0.5"/>
<text text-anchor="middle" x="147" y="-7.5" font-family="Helvetica,sans-Serif" font-size="10.00">Text</text>
</a>
</g>
</g>
<!-- Node0&#45;&gt;Node10 -->
<g id="edge10" class="edge">
<title>Node0&#45;&gt;Node10</title>
<path fill="none" stroke="midnightblue" d="M53.86,-87.55C67.87,-71.19 90.32,-46.68 113,-29 117.69,-25.34 123.16,-21.91 128.29,-18.99"/>
<polygon fill="midnightblue" stroke="midnightblue" points="51.12,-85.37 47.35,-95.27 56.47,-89.88 51.12,-85.37"/>
</g>
<!-- Node2 -->
<g id="node3" class="node">
<title>Node2</title>
<g id="a_node3"><a xlink:href="classCircle.html" target="_top" xlink:title="Represents a circle in 2D space.">
<polygon fill="none" stroke="black" points="220,-190.5 220,-209.5 264,-209.5 264,-190.5 220,-190.5"/>
<text text-anchor="middle" x="242" y="-197.5" font-family="Helvetica,sans-Serif" font-size="10.00">Circle</text>
</a>
</g>
</g>
<!-- Node1&#45;&gt;Node2 -->
<g id="edge2" class="edge">
<title>Node1&#45;&gt;Node2</title>
<path fill="none" stroke="midnightblue" d="M172.14,-200C186.97,-200 205.77,-200 219.98,-200"/>
<polygon fill="midnightblue" stroke="midnightblue" points="171.72,-196.5 161.72,-200 171.72,-203.5 171.72,-196.5"/>
</g>
<!-- Node7 -->
<g id="node8" class="node">
<title>Node7</title>
<g id="a_node8"><a xlink:href="classPlygon.html" target="_top" xlink:title="Represents a polygon in 2D space.">
<polygon fill="none" stroke="black" points="217,-76.5 217,-95.5 267,-95.5 267,-76.5 217,-76.5"/>
<text text-anchor="middle" x="242" y="-83.5" font-family="Helvetica,sans-Serif" font-size="10.00">Plygon</text>
</a>
</g>
</g>
<!-- Node6&#45;&gt;Node7 -->
<g id="edge7" class="edge">
<title>Node6&#45;&gt;Node7</title>
<path fill="none" stroke="midnightblue" d="M180.82,-61.41C192.94,-66.36 206.42,-71.87 217.54,-76.41"/>
<polygon fill="midnightblue" stroke="midnightblue" points="182.05,-58.13 171.47,-57.59 179.4,-64.61 182.05,-58.13"/>
</g>
<!-- Node8 -->
<g id="node9" class="node">
<title>Node8</title>
<g id="a_node9"><a xlink:href="classPlyline.html" target="_top" xlink:title="Represents a polyline in 2D space.">
<polygon fill="none" stroke="black" points="217,-38.5 217,-57.5 267,-57.5 267,-38.5 217,-38.5"/>
<text text-anchor="middle" x="242" y="-45.5" font-family="Helvetica,sans-Serif" font-size="10.00">Plyline</text>
</a>
</g>
</g>
<!-- Node6&#45;&gt;Node8 -->
<g id="edge8" class="edge">
<title>Node6&#45;&gt;Node8</title>
<path fill="none" stroke="midnightblue" d="M191.23,-48C200.03,-48 208.98,-48 216.83,-48"/>
<polygon fill="midnightblue" stroke="midnightblue" points="191.05,-44.5 181.05,-48 191.05,-51.5 191.05,-44.5"/>
</g>
<!-- Node9 -->
<g id="node10" class="node">
<title>Node9</title>
<g id="a_node10"><a xlink:href="classRect.html" target="_top" xlink:title="Represents a rectangle in 2D space.">
<polygon fill="none" stroke="black" points="223,-0.5 223,-19.5 261,-19.5 261,-0.5 223,-0.5"/>
<text text-anchor="middle" x="242" y="-7.5" font-family="Helvetica,sans-Serif" font-size="10.00">Rect</text>
</a>
</g>
</g>
<!-- Node6&#45;&gt;Node9 -->
<g id="edge9" class="edge">
<title>Node6&#45;&gt;Node9</title>
<path fill="none" stroke="midnightblue" d="M180.86,-34.57C194.96,-28.81 210.9,-22.3 222.82,-17.43"/>
<polygon fill="midnightblue" stroke="midnightblue" points="179.4,-31.39 171.47,-38.41 182.05,-37.87 179.4,-31.39"/>
</g>
</g>
</svg>
