<?xml version="1.0" encoding="UTF-8" standalone="no"?>
<!DOCTYPE svg PUBLIC "-//W3C//DTD SVG 1.1//EN"
 "http://www.w3.org/Graphics/SVG/1.1/DTD/svg11.dtd">
<!-- Generated by graphviz version 2.43.0 (0)
 -->
<!-- Title: Stop Pages: 1 -->
<svg width="136pt" height="174pt"
 viewBox="0.00 0.00 136.00 174.00" xmlns="http://www.w3.org/2000/svg" xmlns:xlink="http://www.w3.org/1999/xlink">
<g id="graph0" class="graph" transform="scale(1 1) rotate(0) translate(4 170)">
<title>Stop</title>
<!-- Node1 -->
<g id="node1" class="node">
<title>Node1</title>
<g id="a_node1"><a xlink:title="A class that represents a stop.">
<polygon fill="#bfbfbf" stroke="black" points="7,-0.5 7,-19.5 45,-19.5 45,-0.5 7,-0.5"/>
<text text-anchor="middle" x="26" y="-7.5" font-family="Helvetica,sans-Serif" font-size="10.00">Stop</text>
</a>
</g>
</g>
<!-- Node2 -->
<g id="node2" class="node">
<title>Node2</title>
<g id="a_node2"><a xlink:href="classmColor.html" target="_top" xlink:title="Utility class for manipulating RGBA mColors.">
<polygon fill="none" stroke="black" points="0,-107 0,-126 52,-126 52,-107 0,-107"/>
<text text-anchor="middle" x="26" y="-114" font-family="Helvetica,sans-Serif" font-size="10.00">mColor</text>
</a>
</g>
</g>
<!-- Node2&#45;&gt;Node1 -->
<g id="edge1" class="edge">
<title>Node2&#45;&gt;Node1</title>
<path fill="none" stroke="#9a32cd" stroke-dasharray="5,2" d="M26,-96.84C26,-74.08 26,-36.53 26,-19.67"/>
<polygon fill="#9a32cd" stroke="#9a32cd" points="22.5,-96.95 26,-106.95 29.5,-96.95 22.5,-96.95"/>
<text text-anchor="middle" x="40" y="-41" font-family="Helvetica,sans-Serif" font-size="10.00"> color</text>
</g>
<!-- Node2&#45;&gt;Node2 -->
<g id="edge2" class="edge">
<title>Node2&#45;&gt;Node2</title>
<path fill="none" stroke="#9a32cd" stroke-dasharray="5,2" d="M47.93,-129.48C59.51,-131.59 70,-127.27 70,-116.5 70,-102.72 52.81,-99.49 38.16,-106.81"/>
<polygon fill="#9a32cd" stroke="#9a32cd" points="48.76,-126.06 38.16,-126.19 46.52,-132.7 48.76,-126.06"/>
<text text-anchor="middle" x="99" y="-158" font-family="Helvetica,sans-Serif" font-size="10.00"> Black</text>
<text text-anchor="middle" x="99" y="-147" font-family="Helvetica,sans-Serif" font-size="10.00">Blue</text>
<text text-anchor="middle" x="99" y="-136" font-family="Helvetica,sans-Serif" font-size="10.00">Cyan</text>
<text text-anchor="middle" x="99" y="-125" font-family="Helvetica,sans-Serif" font-size="10.00">Green</text>
<text text-anchor="middle" x="99" y="-114" font-family="Helvetica,sans-Serif" font-size="10.00">Magenta</text>
<text text-anchor="middle" x="99" y="-103" font-family="Helvetica,sans-Serif" font-size="10.00">Red</text>
<text text-anchor="middle" x="99" y="-92" font-family="Helvetica,sans-Serif" font-size="10.00">Transparent</text>
<text text-anchor="middle" x="99" y="-81" font-family="Helvetica,sans-Serif" font-size="10.00">White</text>
<text text-anchor="middle" x="99" y="-70" font-family="Helvetica,sans-Serif" font-size="10.00">Yellow</text>
</g>
</g>
</svg>
