<?xml version="1.0" encoding="UTF-8" standalone="no"?>
<!DOCTYPE svg PUBLIC "-//W3C//DTD SVG 1.1//EN"
 "http://www.w3.org/Graphics/SVG/1.1/DTD/svg11.dtd">
<!-- Generated by graphviz version 2.43.0 (0)
 -->
<!-- Title: Graphical Class Hierarchy Pages: 1 -->
<svg width="275pt" height="256pt"
 viewBox="0.00 0.00 275.00 256.00" xmlns="http://www.w3.org/2000/svg" xmlns:xlink="http://www.w3.org/1999/xlink">
<g id="graph0" class="graph" transform="scale(1 1) rotate(0) translate(4 252)">
<title>Graphical Class Hierarchy</title>
<!-- Node0 -->
<g id="node1" class="node">
<title>Node0</title>
<g id="a_node1"><a xlink:href="classSVGElement.html" target="_top" xlink:title="Represents an element in an SVG file.">
<polygon fill="none" stroke="black" points="0,-114.5 0,-133.5 77,-133.5 77,-114.5 0,-114.5"/>
<text text-anchor="middle" x="38.5" y="-121.5" font-family="Helvetica,sans-Serif" font-size="10.00">SVGElement</text>
</a>
</g>
</g>
<!-- Node1 -->
<g id="node2" class="node">
<title>Node1</title>
<g id="a_node2"><a xlink:href="classEll.html" target="_top" xlink:title="Represents an ellipse in 2D space.">
<polygon fill="none" stroke="black" points="132.5,-228.5 132.5,-247.5 161.5,-247.5 161.5,-228.5 132.5,-228.5"/>
<text text-anchor="middle" x="147" y="-235.5" font-family="Helvetica,sans-Serif" font-size="10.00">Ell</text>
</a>
</g>
</g>
<!-- Node0&#45;&gt;Node1 -->
<g id="edge1" class="edge">
<title>Node0&#45;&gt;Node1</title>
<path fill="none" stroke="midnightblue" d="M50.55,-142.3C63.58,-162.81 86.82,-196.16 113,-219 118.78,-224.04 126.1,-228.42 132.37,-231.69"/>
<polygon fill="midnightblue" stroke="midnightblue" points="53.4,-140.27 45.15,-133.62 47.46,-143.96 53.4,-140.27"/>
</g>
<!-- Node3 -->
<g id="node4" class="node">
<title>Node3</title>
<g id="a_node4"><a xlink:href="classGroup.html" target="_top" xlink:title="A composite class that contains a vector of shape pointers (polymorphic).">
<polygon fill="none" stroke="black" points="124,-190.5 124,-209.5 170,-209.5 170,-190.5 124,-190.5"/>
<text text-anchor="middle" x="147" y="-197.5" font-family="Helvetica,sans-Serif" font-size="10.00">Group</text>
</a>
</g>
</g>
<!-- Node0&#45;&gt;Node3 -->
<g id="edge3" class="edge">
<title>Node0&#45;&gt;Node3</title>
<path fill="none" stroke="midnightblue" d="M58.88,-140.21C73.4,-152.06 93.94,-168.21 113,-181 117.83,-184.24 123.24,-187.5 128.26,-190.38"/>
<polygon fill="midnightblue" stroke="midnightblue" points="61.04,-137.45 51.09,-133.8 56.59,-142.86 61.04,-137.45"/>
</g>
<!-- Node4 -->
<g id="node5" class="node">
<title>Node4</title>
<g id="a_node5"><a xlink:href="classLine.html" target="_top" xlink:title="Represents a line in 2D space.">
<polygon fill="none" stroke="black" points="128.5,-152.5 128.5,-171.5 165.5,-171.5 165.5,-152.5 128.5,-152.5"/>
<text text-anchor="middle" x="147" y="-159.5" font-family="Helvetica,sans-Serif" font-size="10.00">Line</text>
</a>
</g>
</g>
<!-- Node0&#45;&gt;Node4 -->
<g id="edge4" class="edge">
<title>Node0&#45;&gt;Node4</title>
<path fill="none" stroke="midnightblue" d="M75.91,-136.99C93.68,-143.33 114.25,-150.67 128.49,-155.75"/>
<polygon fill="midnightblue" stroke="midnightblue" points="76.97,-133.65 66.37,-133.59 74.62,-140.25 76.97,-133.65"/>
</g>
<!-- Node5 -->
<g id="node6" class="node">
<title>Node5</title>
<g id="a_node6"><a xlink:href="classPath.html" target="_top" xlink:title="Represents a path element in 2D space.">
<polygon fill="none" stroke="black" points="128,-114.5 128,-133.5 166,-133.5 166,-114.5 128,-114.5"/>
<text text-anchor="middle" x="147" y="-121.5" font-family="Helvetica,sans-Serif" font-size="10.00">Path</text>
</a>
</g>
</g>
<!-- Node0&#45;&gt;Node5 -->
<g id="edge5" class="edge">
<title>Node0&#45;&gt;Node5</title>
<path fill="none" stroke="midnightblue" d="M87.37,-124C101.76,-124 116.67,-124 127.86,-124"/>
<polygon fill="midnightblue" stroke="midnightblue" points="87.05,-120.5 77.05,-124 87.05,-127.5 87.05,-120.5"/>
</g>
<!-- Node6 -->
<g id="node7" class="node">
<title>Node6</title>
<g id="a_node7"><a xlink:href="classPolyShape.html" target="_top" xlink:title="Abstract base class for polygon and polyline shapes in 2D space.">
<polygon fill="none" stroke="black" points="113,-76.5 113,-95.5 181,-95.5 181,-76.5 113,-76.5"/>
<text text-anchor="middle" x="147" y="-83.5" font-family="Helvetica,sans-Serif" font-size="10.00">PolyShape</text>
</a>
</g>
</g>
<!-- Node0&#45;&gt;Node6 -->
<g id="edge6" class="edge">
<title>Node0&#45;&gt;Node6</title>
<path fill="none" stroke="midnightblue" d="M75.86,-111.03C90.04,-105.97 106.02,-100.27 119.13,-95.59"/>
<polygon fill="midnightblue" stroke="midnightblue" points="74.62,-107.75 66.37,-114.41 76.97,-114.35 74.62,-107.75"/>
</g>
<!-- Node9 -->
<g id="node10" class="node">
<title>Node9</title>
<g id="a_node10"><a xlink:href="classRect.html" target="_top" xlink:title="Represents a rectangle in 2D space.">
<polygon fill="none" stroke="black" points="128,-38.5 128,-57.5 166,-57.5 166,-38.5 128,-38.5"/>
<text text-anchor="middle" x="147" y="-45.5" font-family="Helvetica,sans-Serif" font-size="10.00">Rect</text>
</a>
</g>
</g>
<!-- Node0&#45;&gt;Node9 -->
<g id="edge9" class="edge">
<title>Node0&#45;&gt;Node9</title>
<path fill="none" stroke="midnightblue" d="M58.88,-107.79C73.4,-95.94 93.94,-79.79 113,-67 117.83,-63.76 123.24,-60.5 128.26,-57.62"/>
<polygon fill="midnightblue" stroke="midnightblue" points="56.59,-105.14 51.09,-114.2 61.04,-110.55 56.59,-105.14"/>
</g>
<!-- Node10 -->
<g id="node11" class="node">
<title>Node10</title>
<g id="a_node11"><a xlink:href="classText.html" target="_top" xlink:title="Represents text in 2D space.">
<polygon fill="none" stroke="black" points="128.5,-0.5 128.5,-19.5 165.5,-19.5 165.5,-0.5 128.5,-0.5"/>
<text text-anchor="middle" x="147" y="-7.5" font-family="Helvetica,sans-Serif" font-size="10.00">Text</text>
</a>
</g>
</g>
<!-- Node0&#45;&gt;Node10 -->
<g id="edge10" class="edge">
<title>Node0&#45;&gt;Node10</title>
<path fill="none" stroke="midnightblue" d="M50.55,-105.7C63.58,-85.19 86.82,-51.84 113,-29 117.58,-25 123.13,-21.42 128.37,-18.48"/>
<polygon fill="midnightblue" stroke="midnightblue" points="47.46,-104.04 45.15,-114.38 53.4,-107.73 47.46,-104.04"/>
</g>
<!-- Node2 -->
<g id="node3" class="node">
<title>Node2</title>
<g id="a_node3"><a xlink:href="classCircle.html" target="_top" xlink:title="Represents a circle in 2D space.">
<polygon fill="none" stroke="black" points="220,-228.5 220,-247.5 264,-247.5 264,-228.5 220,-228.5"/>
<text text-anchor="middle" x="242" y="-235.5" font-family="Helvetica,sans-Serif" font-size="10.00">Circle</text>
</a>
</g>
</g>
<!-- Node1&#45;&gt;Node2 -->
<g id="edge2" class="edge">
<title>Node1&#45;&gt;Node2</title>
<path fill="none" stroke="midnightblue" d="M172.14,-238C186.97,-238 205.77,-238 219.98,-238"/>
<polygon fill="midnightblue" stroke="midnightblue" points="171.72,-234.5 161.72,-238 171.72,-241.5 171.72,-234.5"/>
</g>
<!-- Node7 -->
<g id="node8" class="node">
<title>Node7</title>
<g id="a_node8"><a xlink:href="classPlygon.html" target="_top" xlink:title="Represents a polygon in 2D space.">
<polygon fill="none" stroke="black" points="217,-95.5 217,-114.5 267,-114.5 267,-95.5 217,-95.5"/>
<text text-anchor="middle" x="242" y="-102.5" font-family="Helvetica,sans-Serif" font-size="10.00">Plygon</text>
</a>
</g>
</g>
<!-- Node6&#45;&gt;Node7 -->
<g id="edge7" class="edge">
<title>Node6&#45;&gt;Node7</title>
<path fill="none" stroke="midnightblue" d="M190.94,-94.77C199.83,-96.59 208.9,-98.44 216.83,-100.06"/>
<polygon fill="midnightblue" stroke="midnightblue" points="191.55,-91.32 181.05,-92.75 190.15,-98.18 191.55,-91.32"/>
</g>
<!-- Node8 -->
<g id="node9" class="node">
<title>Node8</title>
<g id="a_node9"><a xlink:href="classPlyline.html" target="_top" xlink:title="Represents a polyline in 2D space.">
<polygon fill="none" stroke="black" points="217,-57.5 217,-76.5 267,-76.5 267,-57.5 217,-57.5"/>
<text text-anchor="middle" x="242" y="-64.5" font-family="Helvetica,sans-Serif" font-size="10.00">Plyline</text>
</a>
</g>
</g>
<!-- Node6&#45;&gt;Node8 -->
<g id="edge8" class="edge">
<title>Node6&#45;&gt;Node8</title>
<path fill="none" stroke="midnightblue" d="M190.94,-77.23C199.83,-75.41 208.9,-73.56 216.83,-71.94"/>
<polygon fill="midnightblue" stroke="midnightblue" points="190.15,-73.82 181.05,-79.25 191.55,-80.68 190.15,-73.82"/>
</g>
</g>
</svg>
