<?xml version="1.0" encoding="UTF-8" standalone="no"?>
<!DOCTYPE svg PUBLIC "-//W3C//DTD SVG 1.1//EN"
 "http://www.w3.org/Graphics/SVG/1.1/DTD/svg11.dtd">
<!-- Generated by graphviz version 2.43.0 (0)
 -->
<!-- Title: Circle Pages: 1 -->
<svg width="357pt" height="299pt"
 viewBox="0.00 0.00 356.50 299.00" xmlns="http://www.w3.org/2000/svg" xmlns:xlink="http://www.w3.org/1999/xlink">
<g id="graph0" class="graph" transform="scale(1 1) rotate(0) translate(4 295)">
<title>Circle</title>
<!-- Node1 -->
<g id="node1" class="node">
<title>Node1</title>
<g id="a_node1"><a xlink:title="Represents a circle in 2D space.">
<polygon fill="#bfbfbf" stroke="black" points="61.5,-0.5 61.5,-19.5 105.5,-19.5 105.5,-0.5 61.5,-0.5"/>
<text text-anchor="middle" x="83.5" y="-7.5" font-family="Helvetica,sans-Serif" font-size="10.00">Circle</text>
</a>
</g>
</g>
<!-- Node2 -->
<g id="node2" class="node">
<title>Node2</title>
<g id="a_node2"><a xlink:href="classEll.html" target="_top" xlink:title="Represents an ellipse in 2D space.">
<polygon fill="none" stroke="black" points="69,-57.5 69,-76.5 98,-76.5 98,-57.5 69,-57.5"/>
<text text-anchor="middle" x="83.5" y="-64.5" font-family="Helvetica,sans-Serif" font-size="10.00">Ell</text>
</a>
</g>
</g>
<!-- Node2&#45;&gt;Node1 -->
<g id="edge1" class="edge">
<title>Node2&#45;&gt;Node1</title>
<path fill="none" stroke="midnightblue" d="M83.5,-47.12C83.5,-37.82 83.5,-27.06 83.5,-19.71"/>
<polygon fill="midnightblue" stroke="midnightblue" points="80,-47.41 83.5,-57.41 87,-47.41 80,-47.41"/>
</g>
<!-- Node3 -->
<g id="node3" class="node">
<title>Node3</title>
<g id="a_node3"><a xlink:href="classSVGElement.html" target="_top" xlink:title="Represents an element in an SVG file.">
<polygon fill="none" stroke="black" points="110,-114.5 110,-133.5 187,-133.5 187,-114.5 110,-114.5"/>
<text text-anchor="middle" x="148.5" y="-121.5" font-family="Helvetica,sans-Serif" font-size="10.00">SVGElement</text>
</a>
</g>
</g>
<!-- Node3&#45;&gt;Node2 -->
<g id="edge2" class="edge">
<title>Node3&#45;&gt;Node2</title>
<path fill="none" stroke="midnightblue" d="M130.43,-107.71C118.62,-97.72 103.62,-85.02 93.8,-76.71"/>
<polygon fill="midnightblue" stroke="midnightblue" points="128.45,-110.62 138.34,-114.41 132.97,-105.27 128.45,-110.62"/>
</g>
<!-- Node3&#45;&gt;Node3 -->
<g id="edge7" class="edge">
<title>Node3&#45;&gt;Node3</title>
<path fill="none" stroke="#9a32cd" stroke-dasharray="5,2" d="M197.22,-128.26C201.98,-127.4 205,-125.98 205,-124 205,-120.83 197.27,-119.09 187.06,-118.8"/>
<polygon fill="#9a32cd" stroke="#9a32cd" points="196.69,-124.8 187.06,-129.2 197.34,-131.77 196.69,-124.8"/>
<text text-anchor="middle" x="222.5" y="-121.5" font-family="Helvetica,sans-Serif" font-size="10.00"> parent</text>
</g>
<!-- Node4 -->
<g id="node4" class="node">
<title>Node4</title>
<g id="a_node4"><a xlink:href="classVector2D.html" target="_top" xlink:title=" ">
<polygon fill="none" stroke="black" points="0,-232 0,-251 105,-251 105,-232 0,-232"/>
<text text-anchor="middle" x="52.5" y="-239" font-family="Helvetica,sans-Serif" font-size="10.00">Vector2D&lt; float &gt;</text>
</a>
</g>
</g>
<!-- Node4&#45;&gt;Node2 -->
<g id="edge8" class="edge">
<title>Node4&#45;&gt;Node2</title>
<path fill="none" stroke="#9a32cd" stroke-dasharray="5,2" d="M53.16,-221.56C54.35,-196.61 57.64,-151.5 66.5,-114 69.67,-100.58 75.64,-85.72 79.59,-76.62"/>
<polygon fill="#9a32cd" stroke="#9a32cd" points="49.65,-221.65 52.74,-231.79 56.65,-221.94 49.65,-221.65"/>
<text text-anchor="middle" x="83.5" y="-121.5" font-family="Helvetica,sans-Serif" font-size="10.00"> radius</text>
</g>
<!-- Node4&#45;&gt;Node3 -->
<g id="edge3" class="edge">
<title>Node4&#45;&gt;Node3</title>
<path fill="none" stroke="#9a32cd" stroke-dasharray="5,2" d="M59.29,-222.61C67.3,-203.35 82.14,-172.7 102.5,-152 110.03,-144.34 120.18,-138.08 129.03,-133.52"/>
<polygon fill="#9a32cd" stroke="#9a32cd" points="56,-221.41 55.55,-232 62.5,-224 56,-221.41"/>
<text text-anchor="middle" x="124" y="-160.5" font-family="Helvetica,sans-Serif" font-size="10.00"> position</text>
</g>
<!-- Node5 -->
<g id="node5" class="node">
<title>Node5</title>
<g id="a_node5"><a xlink:href="classGradient.html" target="_top" xlink:title="A class that represents a gradient.">
<polygon fill="none" stroke="black" points="123,-232 123,-251 182,-251 182,-232 123,-232"/>
<text text-anchor="middle" x="152.5" y="-239" font-family="Helvetica,sans-Serif" font-size="10.00">Gradient</text>
</a>
</g>
</g>
<!-- Node5&#45;&gt;Node3 -->
<g id="edge4" class="edge">
<title>Node5&#45;&gt;Node3</title>
<path fill="none" stroke="#9a32cd" stroke-dasharray="5,2" d="M151.85,-221.66C150.97,-196.37 149.45,-152.44 148.8,-133.78"/>
<polygon fill="#9a32cd" stroke="#9a32cd" points="148.36,-221.95 152.2,-231.82 155.35,-221.7 148.36,-221.95"/>
<text text-anchor="middle" x="172.5" y="-160.5" font-family="Helvetica,sans-Serif" font-size="10.00"> gradient</text>
</g>
<!-- Node6 -->
<g id="node6" class="node">
<title>Node6</title>
<g id="a_node6"><a xlink:href="classColorShape.html" target="_top" xlink:title="Utility class for manipulating RGBA ColorShapes.">
<polygon fill="none" stroke="black" points="200.5,-232 200.5,-251 272.5,-251 272.5,-232 200.5,-232"/>
<text text-anchor="middle" x="236.5" y="-239" font-family="Helvetica,sans-Serif" font-size="10.00">ColorShape</text>
</a>
</g>
</g>
<!-- Node6&#45;&gt;Node3 -->
<g id="edge5" class="edge">
<title>Node6&#45;&gt;Node3</title>
<path fill="none" stroke="#9a32cd" stroke-dasharray="5,2" d="M232.45,-222.19C227.37,-202.78 216.98,-172.21 198.5,-152 191.18,-143.99 180.92,-137.88 171.59,-133.51"/>
<polygon fill="#9a32cd" stroke="#9a32cd" points="229.05,-223.02 234.8,-231.92 235.86,-221.38 229.05,-223.02"/>
<text text-anchor="middle" x="229" y="-166" font-family="Helvetica,sans-Serif" font-size="10.00"> fill</text>
<text text-anchor="middle" x="229" y="-155" font-family="Helvetica,sans-Serif" font-size="10.00">stroke</text>
</g>
<!-- Node6&#45;&gt;Node6 -->
<g id="edge6" class="edge">
<title>Node6&#45;&gt;Node6</title>
<path fill="none" stroke="#9a32cd" stroke-dasharray="5,2" d="M259.22,-254.69C274.98,-258.7 290.5,-254.31 290.5,-241.5 290.5,-226.04 267.86,-222.84 249.52,-231.9"/>
<polygon fill="#9a32cd" stroke="#9a32cd" points="260.11,-251.29 249.52,-251.1 257.68,-257.85 260.11,-251.29"/>
<text text-anchor="middle" x="319.5" y="-283" font-family="Helvetica,sans-Serif" font-size="10.00"> Black</text>
<text text-anchor="middle" x="319.5" y="-272" font-family="Helvetica,sans-Serif" font-size="10.00">Blue</text>
<text text-anchor="middle" x="319.5" y="-261" font-family="Helvetica,sans-Serif" font-size="10.00">Cyan</text>
<text text-anchor="middle" x="319.5" y="-250" font-family="Helvetica,sans-Serif" font-size="10.00">Green</text>
<text text-anchor="middle" x="319.5" y="-239" font-family="Helvetica,sans-Serif" font-size="10.00">Magenta</text>
<text text-anchor="middle" x="319.5" y="-228" font-family="Helvetica,sans-Serif" font-size="10.00">Red</text>
<text text-anchor="middle" x="319.5" y="-217" font-family="Helvetica,sans-Serif" font-size="10.00">Transparent</text>
<text text-anchor="middle" x="319.5" y="-206" font-family="Helvetica,sans-Serif" font-size="10.00">White</text>
<text text-anchor="middle" x="319.5" y="-195" font-family="Helvetica,sans-Serif" font-size="10.00">Yellow</text>
</g>
</g>
</svg>
