<?xml version="1.0" encoding="UTF-8" standalone="no"?>
<!DOCTYPE svg PUBLIC "-//W3C//DTD SVG 1.1//EN"
 "http://www.w3.org/Graphics/SVG/1.1/DTD/svg11.dtd">
<!-- Generated by graphviz version 2.43.0 (0)
 -->
<!-- Title: Plygon Pages: 1 -->
<svg width="357pt" height="299pt"
 viewBox="0.00 0.00 356.50 299.00" xmlns="http://www.w3.org/2000/svg" xmlns:xlink="http://www.w3.org/1999/xlink">
<g id="graph0" class="graph" transform="scale(1 1) rotate(0) translate(4 295)">
<title>Plygon</title>
<!-- Node1 -->
<g id="node1" class="node">
<title>Node1</title>
<g id="a_node1"><a xlink:title="Represents a polygon in 2D space.">
<polygon fill="#bfbfbf" stroke="black" points="127.5,-0.5 127.5,-19.5 177.5,-19.5 177.5,-0.5 127.5,-0.5"/>
<text text-anchor="middle" x="152.5" y="-7.5" font-family="Helvetica,sans-Serif" font-size="10.00">Plygon</text>
</a>
</g>
</g>
<!-- Node2 -->
<g id="node2" class="node">
<title>Node2</title>
<g id="a_node2"><a xlink:href="classPolyShape.html" target="_top" xlink:title="Abstract base class for polygon and polyline shapes in 2D space.">
<polygon fill="none" stroke="black" points="118.5,-57.5 118.5,-76.5 186.5,-76.5 186.5,-57.5 118.5,-57.5"/>
<text text-anchor="middle" x="152.5" y="-64.5" font-family="Helvetica,sans-Serif" font-size="10.00">PolyShape</text>
</a>
</g>
</g>
<!-- Node2&#45;&gt;Node1 -->
<g id="edge1" class="edge">
<title>Node2&#45;&gt;Node1</title>
<path fill="none" stroke="midnightblue" d="M152.5,-47.12C152.5,-37.82 152.5,-27.06 152.5,-19.71"/>
<polygon fill="midnightblue" stroke="midnightblue" points="149,-47.41 152.5,-57.41 156,-47.41 149,-47.41"/>
</g>
<!-- Node3 -->
<g id="node3" class="node">
<title>Node3</title>
<g id="a_node3"><a xlink:href="classSVGElement.html" target="_top" xlink:title="Represents an element in an SVG file.">
<polygon fill="none" stroke="black" points="114,-114.5 114,-133.5 191,-133.5 191,-114.5 114,-114.5"/>
<text text-anchor="middle" x="152.5" y="-121.5" font-family="Helvetica,sans-Serif" font-size="10.00">SVGElement</text>
</a>
</g>
</g>
<!-- Node3&#45;&gt;Node2 -->
<g id="edge2" class="edge">
<title>Node3&#45;&gt;Node2</title>
<path fill="none" stroke="midnightblue" d="M152.5,-104.12C152.5,-94.82 152.5,-84.06 152.5,-76.71"/>
<polygon fill="midnightblue" stroke="midnightblue" points="149,-104.41 152.5,-114.41 156,-104.41 149,-104.41"/>
</g>
<!-- Node3&#45;&gt;Node3 -->
<g id="edge7" class="edge">
<title>Node3&#45;&gt;Node3</title>
<path fill="none" stroke="#9a32cd" stroke-dasharray="5,2" d="M201.22,-128.26C205.98,-127.4 209,-125.98 209,-124 209,-120.83 201.27,-119.09 191.06,-118.8"/>
<polygon fill="#9a32cd" stroke="#9a32cd" points="200.69,-124.8 191.06,-129.2 201.34,-131.77 200.69,-124.8"/>
<text text-anchor="middle" x="226.5" y="-121.5" font-family="Helvetica,sans-Serif" font-size="10.00"> parent</text>
</g>
<!-- Node4 -->
<g id="node4" class="node">
<title>Node4</title>
<g id="a_node4"><a xlink:href="classVector2D.html" target="_top" xlink:title=" ">
<polygon fill="none" stroke="black" points="0,-232 0,-251 105,-251 105,-232 0,-232"/>
<text text-anchor="middle" x="52.5" y="-239" font-family="Helvetica,sans-Serif" font-size="10.00">Vector2D&lt; float &gt;</text>
</a>
</g>
</g>
<!-- Node4&#45;&gt;Node3 -->
<g id="edge3" class="edge">
<title>Node4&#45;&gt;Node3</title>
<path fill="none" stroke="#9a32cd" stroke-dasharray="5,2" d="M59.91,-222.59C68.58,-203.31 84.48,-172.65 105.5,-152 113.29,-144.35 123.67,-138.09 132.69,-133.53"/>
<polygon fill="#9a32cd" stroke="#9a32cd" points="56.6,-221.42 55.85,-231.99 63.03,-224.2 56.6,-221.42"/>
<text text-anchor="middle" x="127" y="-160.5" font-family="Helvetica,sans-Serif" font-size="10.00"> position</text>
</g>
<!-- Node5 -->
<g id="node5" class="node">
<title>Node5</title>
<g id="a_node5"><a xlink:href="classGradient.html" target="_top" xlink:title="A class that represents a gradient.">
<polygon fill="none" stroke="black" points="123,-232 123,-251 182,-251 182,-232 123,-232"/>
<text text-anchor="middle" x="152.5" y="-239" font-family="Helvetica,sans-Serif" font-size="10.00">Gradient</text>
</a>
</g>
</g>
<!-- Node5&#45;&gt;Node3 -->
<g id="edge4" class="edge">
<title>Node5&#45;&gt;Node3</title>
<path fill="none" stroke="#9a32cd" stroke-dasharray="5,2" d="M152.5,-221.66C152.5,-196.37 152.5,-152.44 152.5,-133.78"/>
<polygon fill="#9a32cd" stroke="#9a32cd" points="149,-221.82 152.5,-231.82 156,-221.82 149,-221.82"/>
<text text-anchor="middle" x="174.5" y="-160.5" font-family="Helvetica,sans-Serif" font-size="10.00"> gradient</text>
</g>
<!-- Node6 -->
<g id="node6" class="node">
<title>Node6</title>
<g id="a_node6"><a xlink:href="classColorShape.html" target="_top" xlink:title="Utility class for manipulating RGBA ColorShapes.">
<polygon fill="none" stroke="black" points="200.5,-232 200.5,-251 272.5,-251 272.5,-232 200.5,-232"/>
<text text-anchor="middle" x="236.5" y="-239" font-family="Helvetica,sans-Serif" font-size="10.00">ColorShape</text>
</a>
</g>
</g>
<!-- Node6&#45;&gt;Node3 -->
<g id="edge5" class="edge">
<title>Node6&#45;&gt;Node3</title>
<path fill="none" stroke="#9a32cd" stroke-dasharray="5,2" d="M232.78,-221.98C228.08,-202.62 218.38,-172.29 200.5,-152 193.55,-144.11 183.71,-138.01 174.74,-133.63"/>
<polygon fill="#9a32cd" stroke="#9a32cd" points="229.41,-222.95 234.98,-231.95 236.24,-221.43 229.41,-222.95"/>
<text text-anchor="middle" x="230" y="-166" font-family="Helvetica,sans-Serif" font-size="10.00"> fill</text>
<text text-anchor="middle" x="230" y="-155" font-family="Helvetica,sans-Serif" font-size="10.00">stroke</text>
</g>
<!-- Node6&#45;&gt;Node6 -->
<g id="edge6" class="edge">
<title>Node6&#45;&gt;Node6</title>
<path fill="none" stroke="#9a32cd" stroke-dasharray="5,2" d="M259.22,-254.69C274.98,-258.7 290.5,-254.31 290.5,-241.5 290.5,-226.04 267.86,-222.84 249.52,-231.9"/>
<polygon fill="#9a32cd" stroke="#9a32cd" points="260.11,-251.29 249.52,-251.1 257.68,-257.85 260.11,-251.29"/>
<text text-anchor="middle" x="319.5" y="-283" font-family="Helvetica,sans-Serif" font-size="10.00"> Black</text>
<text text-anchor="middle" x="319.5" y="-272" font-family="Helvetica,sans-Serif" font-size="10.00">Blue</text>
<text text-anchor="middle" x="319.5" y="-261" font-family="Helvetica,sans-Serif" font-size="10.00">Cyan</text>
<text text-anchor="middle" x="319.5" y="-250" font-family="Helvetica,sans-Serif" font-size="10.00">Green</text>
<text text-anchor="middle" x="319.5" y="-239" font-family="Helvetica,sans-Serif" font-size="10.00">Magenta</text>
<text text-anchor="middle" x="319.5" y="-228" font-family="Helvetica,sans-Serif" font-size="10.00">Red</text>
<text text-anchor="middle" x="319.5" y="-217" font-family="Helvetica,sans-Serif" font-size="10.00">Transparent</text>
<text text-anchor="middle" x="319.5" y="-206" font-family="Helvetica,sans-Serif" font-size="10.00">White</text>
<text text-anchor="middle" x="319.5" y="-195" font-family="Helvetica,sans-Serif" font-size="10.00">Yellow</text>
</g>
</g>
</svg>
