<?xml version="1.0" encoding="UTF-8" standalone="no"?>
<!DOCTYPE svg PUBLIC "-//W3C//DTD SVG 1.1//EN"
 "http://www.w3.org/Graphics/SVG/1.1/DTD/svg11.dtd">
<!-- Generated by graphviz version 2.43.0 (0)
 -->
<!-- Title: Group Pages: 1 -->
<svg width="337pt" height="242pt"
 viewBox="0.00 0.00 336.50 242.00" xmlns="http://www.w3.org/2000/svg" xmlns:xlink="http://www.w3.org/1999/xlink">
<g id="graph0" class="graph" transform="scale(1 1) rotate(0) translate(4 238)">
<title>Group</title>
<!-- Node1 -->
<g id="node1" class="node">
<title>Node1</title>
<g id="a_node1"><a xlink:title="A composite class that contains a vector of shape pointers (polymorphic).">
<polygon fill="#bfbfbf" stroke="black" points="129.5,-0.5 129.5,-19.5 175.5,-19.5 175.5,-0.5 129.5,-0.5"/>
<text text-anchor="middle" x="152.5" y="-7.5" font-family="Helvetica,sans-Serif" font-size="10.00">Group</text>
</a>
</g>
</g>
<!-- Node2 -->
<g id="node2" class="node">
<title>Node2</title>
<g id="a_node2"><a xlink:href="classSVGElement.html" target="_top" xlink:title="Represents an element in an SVG file.">
<polygon fill="none" stroke="black" points="114,-57.5 114,-76.5 191,-76.5 191,-57.5 114,-57.5"/>
<text text-anchor="middle" x="152.5" y="-64.5" font-family="Helvetica,sans-Serif" font-size="10.00">SVGElement</text>
</a>
</g>
</g>
<!-- Node2&#45;&gt;Node1 -->
<g id="edge1" class="edge">
<title>Node2&#45;&gt;Node1</title>
<path fill="none" stroke="midnightblue" d="M152.5,-47.12C152.5,-37.82 152.5,-27.06 152.5,-19.71"/>
<polygon fill="midnightblue" stroke="midnightblue" points="149,-47.41 152.5,-57.41 156,-47.41 149,-47.41"/>
</g>
<!-- Node2&#45;&gt;Node2 -->
<g id="edge4" class="edge">
<title>Node2&#45;&gt;Node2</title>
<path fill="none" stroke="#9a32cd" stroke-dasharray="5,2" d="M201.22,-71.26C205.98,-70.4 209,-68.98 209,-67 209,-63.83 201.27,-62.09 191.06,-61.8"/>
<polygon fill="#9a32cd" stroke="#9a32cd" points="200.69,-67.8 191.06,-72.2 201.34,-74.77 200.69,-67.8"/>
<text text-anchor="middle" x="226.5" y="-64.5" font-family="Helvetica,sans-Serif" font-size="10.00"> parent</text>
</g>
<!-- Node3 -->
<g id="node3" class="node">
<title>Node3</title>
<g id="a_node3"><a xlink:href="classVector2D.html" target="_top" xlink:title=" ">
<polygon fill="none" stroke="black" points="0,-175 0,-194 105,-194 105,-175 0,-175"/>
<text text-anchor="middle" x="52.5" y="-182" font-family="Helvetica,sans-Serif" font-size="10.00">Vector2D&lt; float &gt;</text>
</a>
</g>
</g>
<!-- Node3&#45;&gt;Node2 -->
<g id="edge2" class="edge">
<title>Node3&#45;&gt;Node2</title>
<path fill="none" stroke="#9a32cd" stroke-dasharray="5,2" d="M59.91,-165.59C68.58,-146.31 84.48,-115.65 105.5,-95 113.29,-87.35 123.67,-81.09 132.69,-76.53"/>
<polygon fill="#9a32cd" stroke="#9a32cd" points="56.6,-164.42 55.85,-174.99 63.03,-167.2 56.6,-164.42"/>
<text text-anchor="middle" x="127" y="-103.5" font-family="Helvetica,sans-Serif" font-size="10.00"> position</text>
</g>
<!-- Node4 -->
<g id="node4" class="node">
<title>Node4</title>
<g id="a_node4"><a xlink:href="classGradient.html" target="_top" xlink:title="A class that represents a gradient.">
<polygon fill="none" stroke="black" points="123,-175 123,-194 182,-194 182,-175 123,-175"/>
<text text-anchor="middle" x="152.5" y="-182" font-family="Helvetica,sans-Serif" font-size="10.00">Gradient</text>
</a>
</g>
</g>
<!-- Node4&#45;&gt;Node2 -->
<g id="edge3" class="edge">
<title>Node4&#45;&gt;Node2</title>
<path fill="none" stroke="#9a32cd" stroke-dasharray="5,2" d="M152.5,-164.66C152.5,-139.37 152.5,-95.44 152.5,-76.78"/>
<polygon fill="#9a32cd" stroke="#9a32cd" points="149,-164.82 152.5,-174.82 156,-164.82 149,-164.82"/>
<text text-anchor="middle" x="174.5" y="-103.5" font-family="Helvetica,sans-Serif" font-size="10.00"> gradient</text>
</g>
<!-- Node5 -->
<g id="node5" class="node">
<title>Node5</title>
<g id="a_node5"><a xlink:href="classmColor.html" target="_top" xlink:title="Utility class for manipulating RGBA mColors.">
<polygon fill="none" stroke="black" points="200.5,-175 200.5,-194 252.5,-194 252.5,-175 200.5,-175"/>
<text text-anchor="middle" x="226.5" y="-182" font-family="Helvetica,sans-Serif" font-size="10.00">mColor</text>
</a>
</g>
</g>
<!-- Node5&#45;&gt;Node2 -->
<g id="edge5" class="edge">
<title>Node5&#45;&gt;Node2</title>
<path fill="none" stroke="#9a32cd" stroke-dasharray="5,2" d="M225.1,-164.77C222.79,-145.44 216.68,-115.33 200.5,-95 194.07,-86.92 184.52,-80.85 175.63,-76.54"/>
<polygon fill="#9a32cd" stroke="#9a32cd" points="221.64,-165.36 226.09,-174.98 228.61,-164.69 221.64,-165.36"/>
<text text-anchor="middle" x="228" y="-109" font-family="Helvetica,sans-Serif" font-size="10.00"> fill</text>
<text text-anchor="middle" x="228" y="-98" font-family="Helvetica,sans-Serif" font-size="10.00">stroke</text>
</g>
<!-- Node5&#45;&gt;Node5 -->
<g id="edge6" class="edge">
<title>Node5&#45;&gt;Node5</title>
<path fill="none" stroke="#9a32cd" stroke-dasharray="5,2" d="M246.65,-198.15C258.9,-201.31 270.5,-196.76 270.5,-184.5 270.5,-169.11 252.24,-165.87 237.33,-174.76"/>
<polygon fill="#9a32cd" stroke="#9a32cd" points="247.9,-194.89 237.33,-194.24 245.19,-201.34 247.9,-194.89"/>
<text text-anchor="middle" x="299.5" y="-226" font-family="Helvetica,sans-Serif" font-size="10.00"> Black</text>
<text text-anchor="middle" x="299.5" y="-215" font-family="Helvetica,sans-Serif" font-size="10.00">Blue</text>
<text text-anchor="middle" x="299.5" y="-204" font-family="Helvetica,sans-Serif" font-size="10.00">Cyan</text>
<text text-anchor="middle" x="299.5" y="-193" font-family="Helvetica,sans-Serif" font-size="10.00">Green</text>
<text text-anchor="middle" x="299.5" y="-182" font-family="Helvetica,sans-Serif" font-size="10.00">Magenta</text>
<text text-anchor="middle" x="299.5" y="-171" font-family="Helvetica,sans-Serif" font-size="10.00">Red</text>
<text text-anchor="middle" x="299.5" y="-160" font-family="Helvetica,sans-Serif" font-size="10.00">Transparent</text>
<text text-anchor="middle" x="299.5" y="-149" font-family="Helvetica,sans-Serif" font-size="10.00">White</text>
<text text-anchor="middle" x="299.5" y="-138" font-family="Helvetica,sans-Serif" font-size="10.00">Yellow</text>
</g>
</g>
</svg>
