<?xml version="1.0" encoding="UTF-8" standalone="no"?>
<!DOCTYPE svg PUBLIC "-//W3C//DTD SVG 1.1//EN"
 "http://www.w3.org/Graphics/SVG/1.1/DTD/svg11.dtd">
<!-- Generated by graphviz version 2.43.0 (0)
 -->
<!-- Title: SVGElement Pages: 1 -->
<svg width="419pt" height="140pt"
 viewBox="0.00 0.00 418.50 140.00" xmlns="http://www.w3.org/2000/svg" xmlns:xlink="http://www.w3.org/1999/xlink">
<g id="graph0" class="graph" transform="scale(1 1) rotate(0) translate(4 136)">
<title>SVGElement</title>
<!-- Node1 -->
<g id="node1" class="node">
<title>Node1</title>
<g id="a_node1"><a xlink:title="Represents an element in an SVG file.">
<polygon fill="#bfbfbf" stroke="black" points="155.5,-112.5 155.5,-131.5 232.5,-131.5 232.5,-112.5 155.5,-112.5"/>
<text text-anchor="middle" x="194" y="-119.5" font-family="Helvetica,sans-Serif" font-size="10.00">SVGElement</text>
</a>
</g>
</g>
<!-- Node2 -->
<g id="node2" class="node">
<title>Node2</title>
<g id="a_node2"><a xlink:href="classEll.html" target="_top" xlink:title="Represents an ellipse in 2D space.">
<polygon fill="none" stroke="black" points="7.5,-56.5 7.5,-75.5 36.5,-75.5 36.5,-56.5 7.5,-56.5"/>
<text text-anchor="middle" x="22" y="-63.5" font-family="Helvetica,sans-Serif" font-size="10.00">Ell</text>
</a>
</g>
</g>
<!-- Node1&#45;&gt;Node2 -->
<g id="edge1" class="edge">
<title>Node1&#45;&gt;Node2</title>
<path fill="none" stroke="midnightblue" d="M154.11,-109.62C124.2,-100.9 82.33,-88.32 46,-76 42.97,-74.97 39.74,-73.81 36.67,-72.67"/>
<polygon fill="midnightblue" stroke="midnightblue" points="153.2,-113 163.77,-112.42 155.14,-106.27 153.2,-113"/>
</g>
<!-- Node4 -->
<g id="node4" class="node">
<title>Node4</title>
<g id="a_node4"><a xlink:href="classGroup.html" target="_top" xlink:title="A composite class that contains a vector of shape pointers (polymorphic).">
<polygon fill="none" stroke="black" points="55,-56.5 55,-75.5 101,-75.5 101,-56.5 55,-56.5"/>
<text text-anchor="middle" x="78" y="-63.5" font-family="Helvetica,sans-Serif" font-size="10.00">Group</text>
</a>
</g>
</g>
<!-- Node1&#45;&gt;Node4 -->
<g id="edge3" class="edge">
<title>Node1&#45;&gt;Node4</title>
<path fill="none" stroke="midnightblue" d="M166.28,-108.1C144.61,-98.01 115.1,-84.27 96.29,-75.52"/>
<polygon fill="midnightblue" stroke="midnightblue" points="165.08,-111.4 175.62,-112.44 168.03,-105.05 165.08,-111.4"/>
</g>
<!-- Node5 -->
<g id="node5" class="node">
<title>Node5</title>
<g id="a_node5"><a xlink:href="classLine.html" target="_top" xlink:title="Represents a line in 2D space.">
<polygon fill="none" stroke="black" points="119.5,-56.5 119.5,-75.5 156.5,-75.5 156.5,-56.5 119.5,-56.5"/>
<text text-anchor="middle" x="138" y="-63.5" font-family="Helvetica,sans-Serif" font-size="10.00">Line</text>
</a>
</g>
</g>
<!-- Node1&#45;&gt;Node5 -->
<g id="edge4" class="edge">
<title>Node1&#45;&gt;Node5</title>
<path fill="none" stroke="midnightblue" d="M177.67,-105.25C167.74,-95.67 155.41,-83.79 147.16,-75.83"/>
<polygon fill="midnightblue" stroke="midnightblue" points="175.37,-107.9 185,-112.32 180.23,-102.86 175.37,-107.9"/>
</g>
<!-- Node6 -->
<g id="node6" class="node">
<title>Node6</title>
<g id="a_node6"><a xlink:href="classPath.html" target="_top" xlink:title="Represents a path element in 2D space.">
<polygon fill="none" stroke="black" points="175,-56.5 175,-75.5 213,-75.5 213,-56.5 175,-56.5"/>
<text text-anchor="middle" x="194" y="-63.5" font-family="Helvetica,sans-Serif" font-size="10.00">Path</text>
</a>
</g>
</g>
<!-- Node1&#45;&gt;Node6 -->
<g id="edge5" class="edge">
<title>Node1&#45;&gt;Node6</title>
<path fill="none" stroke="midnightblue" d="M194,-101.8C194,-92.91 194,-82.78 194,-75.75"/>
<polygon fill="midnightblue" stroke="midnightblue" points="190.5,-102.08 194,-112.08 197.5,-102.08 190.5,-102.08"/>
</g>
<!-- Node7 -->
<g id="node7" class="node">
<title>Node7</title>
<g id="a_node7"><a xlink:href="classPolyShape.html" target="_top" xlink:title="Abstract base class for polygon and polyline shapes in 2D space.">
<polygon fill="none" stroke="black" points="231,-56.5 231,-75.5 299,-75.5 299,-56.5 231,-56.5"/>
<text text-anchor="middle" x="265" y="-63.5" font-family="Helvetica,sans-Serif" font-size="10.00">PolyShape</text>
</a>
</g>
</g>
<!-- Node1&#45;&gt;Node7 -->
<g id="edge6" class="edge">
<title>Node1&#45;&gt;Node7</title>
<path fill="none" stroke="midnightblue" d="M213.59,-106.1C226.37,-96.38 242.61,-84.03 253.39,-75.83"/>
<polygon fill="midnightblue" stroke="midnightblue" points="211.25,-103.48 205.41,-112.32 215.49,-109.06 211.25,-103.48"/>
</g>
<!-- Node10 -->
<g id="node10" class="node">
<title>Node10</title>
<g id="a_node10"><a xlink:href="classRect.html" target="_top" xlink:title="Represents a rectangle in 2D space.">
<polygon fill="none" stroke="black" points="317,-56.5 317,-75.5 355,-75.5 355,-56.5 317,-56.5"/>
<text text-anchor="middle" x="336" y="-63.5" font-family="Helvetica,sans-Serif" font-size="10.00">Rect</text>
</a>
</g>
</g>
<!-- Node1&#45;&gt;Node10 -->
<g id="edge9" class="edge">
<title>Node1&#45;&gt;Node10</title>
<path fill="none" stroke="midnightblue" d="M226.21,-108.75C254.12,-98.14 293.57,-83.14 316.79,-74.3"/>
<polygon fill="midnightblue" stroke="midnightblue" points="224.6,-105.62 216.5,-112.44 227.09,-112.16 224.6,-105.62"/>
</g>
<!-- Node11 -->
<g id="node11" class="node">
<title>Node11</title>
<g id="a_node11"><a xlink:href="classText.html" target="_top" xlink:title="Represents text in 2D space.">
<polygon fill="none" stroke="black" points="373.5,-56.5 373.5,-75.5 410.5,-75.5 410.5,-56.5 373.5,-56.5"/>
<text text-anchor="middle" x="392" y="-63.5" font-family="Helvetica,sans-Serif" font-size="10.00">Text</text>
</a>
</g>
</g>
<!-- Node1&#45;&gt;Node11 -->
<g id="edge10" class="edge">
<title>Node1&#45;&gt;Node11</title>
<path fill="none" stroke="midnightblue" d="M238.08,-110C272.5,-101.26 321.47,-88.46 364,-76 367.04,-75.11 370.25,-74.12 373.37,-73.14"/>
<polygon fill="midnightblue" stroke="midnightblue" points="237.17,-106.62 228.33,-112.47 238.89,-113.41 237.17,-106.62"/>
</g>
<!-- Node3 -->
<g id="node3" class="node">
<title>Node3</title>
<g id="a_node3"><a xlink:href="classCircle.html" target="_top" xlink:title="Represents a circle in 2D space.">
<polygon fill="none" stroke="black" points="0,-0.5 0,-19.5 44,-19.5 44,-0.5 0,-0.5"/>
<text text-anchor="middle" x="22" y="-7.5" font-family="Helvetica,sans-Serif" font-size="10.00">Circle</text>
</a>
</g>
</g>
<!-- Node2&#45;&gt;Node3 -->
<g id="edge2" class="edge">
<title>Node2&#45;&gt;Node3</title>
<path fill="none" stroke="midnightblue" d="M22,-45.8C22,-36.91 22,-26.78 22,-19.75"/>
<polygon fill="midnightblue" stroke="midnightblue" points="18.5,-46.08 22,-56.08 25.5,-46.08 18.5,-46.08"/>
</g>
<!-- Node8 -->
<g id="node8" class="node">
<title>Node8</title>
<g id="a_node8"><a xlink:href="classPlygon.html" target="_top" xlink:title="Represents a polygon in 2D space.">
<polygon fill="none" stroke="black" points="206,-0.5 206,-19.5 256,-19.5 256,-0.5 206,-0.5"/>
<text text-anchor="middle" x="231" y="-7.5" font-family="Helvetica,sans-Serif" font-size="10.00">Plygon</text>
</a>
</g>
</g>
<!-- Node7&#45;&gt;Node8 -->
<g id="edge7" class="edge">
<title>Node7&#45;&gt;Node8</title>
<path fill="none" stroke="midnightblue" d="M254.02,-47.57C248.17,-38.27 241.23,-27.25 236.51,-19.75"/>
<polygon fill="midnightblue" stroke="midnightblue" points="251.1,-49.49 259.39,-56.08 257.02,-45.76 251.1,-49.49"/>
</g>
<!-- Node9 -->
<g id="node9" class="node">
<title>Node9</title>
<g id="a_node9"><a xlink:href="classPlyline.html" target="_top" xlink:title="Represents a polyline in 2D space.">
<polygon fill="none" stroke="black" points="274,-0.5 274,-19.5 324,-19.5 324,-0.5 274,-0.5"/>
<text text-anchor="middle" x="299" y="-7.5" font-family="Helvetica,sans-Serif" font-size="10.00">Plyline</text>
</a>
</g>
</g>
<!-- Node7&#45;&gt;Node9 -->
<g id="edge8" class="edge">
<title>Node7&#45;&gt;Node9</title>
<path fill="none" stroke="midnightblue" d="M275.98,-47.57C281.83,-38.27 288.77,-27.25 293.49,-19.75"/>
<polygon fill="midnightblue" stroke="midnightblue" points="272.98,-45.76 270.61,-56.08 278.9,-49.49 272.98,-45.76"/>
</g>
</g>
</svg>
