<?xml version="1.0" encoding="UTF-8" standalone="no"?>
<!DOCTYPE svg PUBLIC "-//W3C//DTD SVG 1.1//EN"
 "http://www.w3.org/Graphics/SVG/1.1/DTD/svg11.dtd">
<!-- Generated by graphviz version 2.43.0 (0)
 -->
<!-- Title: Parser Pages: 1 -->
<svg width="338pt" height="252pt"
 viewBox="0.00 0.00 337.50 252.00" xmlns="http://www.w3.org/2000/svg" xmlns:xlink="http://www.w3.org/1999/xlink">
<g id="graph0" class="graph" transform="scale(1 1) rotate(0) translate(4 248)">
<title>Parser</title>
<!-- Node1 -->
<g id="node1" class="node">
<title>Node1</title>
<g id="a_node1"><a xlink:title="To manipulate and parse an SVG file.">
<polygon fill="#bfbfbf" stroke="black" points="44,-0.5 44,-19.5 91,-19.5 91,-0.5 44,-0.5"/>
<text text-anchor="middle" x="67.5" y="-7.5" font-family="Helvetica,sans-Serif" font-size="10.00">Parser</text>
</a>
</g>
</g>
<!-- Node1&#45;&gt;Node1 -->
<g id="edge8" class="edge">
<title>Node1&#45;&gt;Node1</title>
<path fill="none" stroke="#9a32cd" stroke-dasharray="5,2" d="M101.51,-15.29C106.01,-14.39 109,-12.63 109,-10 109,-5.69 100.96,-3.7 91.38,-4.04"/>
<polygon fill="#9a32cd" stroke="#9a32cd" points="101.13,-11.81 91.38,-15.96 101.59,-18.8 101.13,-11.81"/>
<text text-anchor="middle" x="131.5" y="-7.5" font-family="Helvetica,sans-Serif" font-size="10.00"> instance</text>
</g>
<!-- Node2 -->
<g id="node2" class="node">
<title>Node2</title>
<g id="a_node2"><a xlink:href="classVector2D.html" target="_top" xlink:title=" ">
<polygon fill="none" stroke="black" points="0,-185 0,-204 105,-204 105,-185 0,-185"/>
<text text-anchor="middle" x="52.5" y="-192" font-family="Helvetica,sans-Serif" font-size="10.00">Vector2D&lt; float &gt;</text>
</a>
</g>
</g>
<!-- Node2&#45;&gt;Node1 -->
<g id="edge1" class="edge">
<title>Node2&#45;&gt;Node1</title>
<path fill="none" stroke="#9a32cd" stroke-dasharray="5,2" d="M53.33,-174.77C54.5,-150.06 56.91,-105.21 60.5,-67 62.08,-50.22 64.7,-30.71 66.24,-19.71"/>
<polygon fill="#9a32cd" stroke="#9a32cd" points="49.82,-174.75 52.86,-184.9 56.82,-175.07 49.82,-174.75"/>
<text text-anchor="middle" x="83.5" y="-74.5" font-family="Helvetica,sans-Serif" font-size="10.00"> viewport</text>
</g>
<!-- Node3 -->
<g id="node3" class="node">
<title>Node3</title>
<g id="a_node3"><a xlink:href="classSVGElement.html" target="_top" xlink:title="Represents an element in an SVG file.">
<polygon fill="none" stroke="black" points="116,-67.5 116,-86.5 193,-86.5 193,-67.5 116,-67.5"/>
<text text-anchor="middle" x="154.5" y="-74.5" font-family="Helvetica,sans-Serif" font-size="10.00">SVGElement</text>
</a>
</g>
</g>
<!-- Node2&#45;&gt;Node3 -->
<g id="edge3" class="edge">
<title>Node2&#45;&gt;Node3</title>
<path fill="none" stroke="#9a32cd" stroke-dasharray="5,2" d="M60.22,-175.87C69.33,-156.62 85.99,-125.77 107.5,-105 115.35,-97.42 125.74,-91.16 134.75,-86.59"/>
<polygon fill="#9a32cd" stroke="#9a32cd" points="57.02,-174.44 56.06,-184.99 63.39,-177.35 57.02,-174.44"/>
<text text-anchor="middle" x="129" y="-113.5" font-family="Helvetica,sans-Serif" font-size="10.00"> position</text>
</g>
<!-- Node3&#45;&gt;Node1 -->
<g id="edge2" class="edge">
<title>Node3&#45;&gt;Node1</title>
<path fill="none" stroke="#9a32cd" stroke-dasharray="5,2" d="M134.51,-61.07C117.34,-48.24 93.18,-30.19 79.05,-19.63"/>
<polygon fill="#9a32cd" stroke="#9a32cd" points="132.66,-64.05 142.77,-67.23 136.85,-58.44 132.66,-64.05"/>
<text text-anchor="middle" x="128" y="-41" font-family="Helvetica,sans-Serif" font-size="10.00"> root</text>
</g>
<!-- Node3&#45;&gt;Node3 -->
<g id="edge5" class="edge">
<title>Node3&#45;&gt;Node3</title>
<path fill="none" stroke="#9a32cd" stroke-dasharray="5,2" d="M203.22,-81.87C207.98,-80.89 211,-79.27 211,-77 211,-73.38 203.27,-71.39 193.06,-71.05"/>
<polygon fill="#9a32cd" stroke="#9a32cd" points="202.63,-78.41 193.06,-82.95 203.37,-85.38 202.63,-78.41"/>
<text text-anchor="middle" x="228.5" y="-74.5" font-family="Helvetica,sans-Serif" font-size="10.00"> parent</text>
</g>
<!-- Node4 -->
<g id="node4" class="node">
<title>Node4</title>
<g id="a_node4"><a xlink:href="classGradient.html" target="_top" xlink:title="A class that represents a gradient.">
<polygon fill="none" stroke="black" points="124,-185 124,-204 183,-204 183,-185 124,-185"/>
<text text-anchor="middle" x="153.5" y="-192" font-family="Helvetica,sans-Serif" font-size="10.00">Gradient</text>
</a>
</g>
</g>
<!-- Node4&#45;&gt;Node3 -->
<g id="edge4" class="edge">
<title>Node4&#45;&gt;Node3</title>
<path fill="none" stroke="#9a32cd" stroke-dasharray="5,2" d="M153.66,-174.66C153.88,-149.37 154.26,-105.44 154.42,-86.78"/>
<polygon fill="#9a32cd" stroke="#9a32cd" points="150.16,-174.79 153.58,-184.82 157.16,-174.85 150.16,-174.79"/>
<text text-anchor="middle" x="176.5" y="-113.5" font-family="Helvetica,sans-Serif" font-size="10.00"> gradient</text>
</g>
<!-- Node5 -->
<g id="node5" class="node">
<title>Node5</title>
<g id="a_node5"><a xlink:href="classmColor.html" target="_top" xlink:title="Utility class for manipulating RGBA mColors.">
<polygon fill="none" stroke="black" points="201.5,-185 201.5,-204 253.5,-204 253.5,-185 201.5,-185"/>
<text text-anchor="middle" x="227.5" y="-192" font-family="Helvetica,sans-Serif" font-size="10.00">mColor</text>
</a>
</g>
</g>
<!-- Node5&#45;&gt;Node3 -->
<g id="edge6" class="edge">
<title>Node5&#45;&gt;Node3</title>
<path fill="none" stroke="#9a32cd" stroke-dasharray="5,2" d="M226.06,-174.79C223.72,-155.49 217.58,-125.4 201.5,-105 195.21,-97.02 185.86,-90.97 177.15,-86.64"/>
<polygon fill="#9a32cd" stroke="#9a32cd" points="222.61,-175.39 227.07,-185 229.57,-174.7 222.61,-175.39"/>
<text text-anchor="middle" x="229" y="-119" font-family="Helvetica,sans-Serif" font-size="10.00"> fill</text>
<text text-anchor="middle" x="229" y="-108" font-family="Helvetica,sans-Serif" font-size="10.00">stroke</text>
</g>
<!-- Node5&#45;&gt;Node5 -->
<g id="edge7" class="edge">
<title>Node5&#45;&gt;Node5</title>
<path fill="none" stroke="#9a32cd" stroke-dasharray="5,2" d="M247.65,-208.15C259.9,-211.31 271.5,-206.76 271.5,-194.5 271.5,-179.11 253.24,-175.87 238.33,-184.76"/>
<polygon fill="#9a32cd" stroke="#9a32cd" points="248.9,-204.89 238.33,-204.24 246.19,-211.34 248.9,-204.89"/>
<text text-anchor="middle" x="300.5" y="-236" font-family="Helvetica,sans-Serif" font-size="10.00"> Black</text>
<text text-anchor="middle" x="300.5" y="-225" font-family="Helvetica,sans-Serif" font-size="10.00">Blue</text>
<text text-anchor="middle" x="300.5" y="-214" font-family="Helvetica,sans-Serif" font-size="10.00">Cyan</text>
<text text-anchor="middle" x="300.5" y="-203" font-family="Helvetica,sans-Serif" font-size="10.00">Green</text>
<text text-anchor="middle" x="300.5" y="-192" font-family="Helvetica,sans-Serif" font-size="10.00">Magenta</text>
<text text-anchor="middle" x="300.5" y="-181" font-family="Helvetica,sans-Serif" font-size="10.00">Red</text>
<text text-anchor="middle" x="300.5" y="-170" font-family="Helvetica,sans-Serif" font-size="10.00">Transparent</text>
<text text-anchor="middle" x="300.5" y="-159" font-family="Helvetica,sans-Serif" font-size="10.00">White</text>
<text text-anchor="middle" x="300.5" y="-148" font-family="Helvetica,sans-Serif" font-size="10.00">Yellow</text>
</g>
</g>
</svg>
