<?xml version="1.0" encoding="UTF-8" standalone="no"?>
<!DOCTYPE svg PUBLIC "-//W3C//DTD SVG 1.1//EN"
 "http://www.w3.org/Graphics/SVG/1.1/DTD/svg11.dtd">
<!-- Generated by graphviz version 2.43.0 (0)
 -->
<!-- Title: Rect Pages: 1 -->
<svg width="357pt" height="242pt"
 viewBox="0.00 0.00 356.50 242.00" xmlns="http://www.w3.org/2000/svg" xmlns:xlink="http://www.w3.org/1999/xlink">
<g id="graph0" class="graph" transform="scale(1 1) rotate(0) translate(4 238)">
<title>Rect</title>
<!-- Node1 -->
<g id="node1" class="node">
<title>Node1</title>
<g id="a_node1"><a xlink:title="Represents a rectangle in 2D space.">
<polygon fill="#bfbfbf" stroke="black" points="64.5,-0.5 64.5,-19.5 102.5,-19.5 102.5,-0.5 64.5,-0.5"/>
<text text-anchor="middle" x="83.5" y="-7.5" font-family="Helvetica,sans-Serif" font-size="10.00">Rect</text>
</a>
</g>
</g>
<!-- Node2 -->
<g id="node2" class="node">
<title>Node2</title>
<g id="a_node2"><a xlink:href="classSVGElement.html" target="_top" xlink:title="Represents an element in an SVG file.">
<polygon fill="none" stroke="black" points="110,-57.5 110,-76.5 187,-76.5 187,-57.5 110,-57.5"/>
<text text-anchor="middle" x="148.5" y="-64.5" font-family="Helvetica,sans-Serif" font-size="10.00">SVGElement</text>
</a>
</g>
</g>
<!-- Node2&#45;&gt;Node1 -->
<g id="edge1" class="edge">
<title>Node2&#45;&gt;Node1</title>
<path fill="none" stroke="midnightblue" d="M130.43,-50.71C118.62,-40.72 103.62,-28.02 93.8,-19.71"/>
<polygon fill="midnightblue" stroke="midnightblue" points="128.45,-53.62 138.34,-57.41 132.97,-48.27 128.45,-53.62"/>
</g>
<!-- Node2&#45;&gt;Node2 -->
<g id="edge6" class="edge">
<title>Node2&#45;&gt;Node2</title>
<path fill="none" stroke="#9a32cd" stroke-dasharray="5,2" d="M197.22,-71.26C201.98,-70.4 205,-68.98 205,-67 205,-63.83 197.27,-62.09 187.06,-61.8"/>
<polygon fill="#9a32cd" stroke="#9a32cd" points="196.69,-67.8 187.06,-72.2 197.34,-74.77 196.69,-67.8"/>
<text text-anchor="middle" x="222.5" y="-64.5" font-family="Helvetica,sans-Serif" font-size="10.00"> parent</text>
</g>
<!-- Node3 -->
<g id="node3" class="node">
<title>Node3</title>
<g id="a_node3"><a xlink:href="classVector2D.html" target="_top" xlink:title=" ">
<polygon fill="none" stroke="black" points="0,-175 0,-194 105,-194 105,-175 0,-175"/>
<text text-anchor="middle" x="52.5" y="-182" font-family="Helvetica,sans-Serif" font-size="10.00">Vector2D&lt; float &gt;</text>
</a>
</g>
</g>
<!-- Node3&#45;&gt;Node1 -->
<g id="edge7" class="edge">
<title>Node3&#45;&gt;Node1</title>
<path fill="none" stroke="#9a32cd" stroke-dasharray="5,2" d="M53.16,-164.56C54.35,-139.61 57.64,-94.5 66.5,-57 69.67,-43.58 75.64,-28.72 79.59,-19.62"/>
<polygon fill="#9a32cd" stroke="#9a32cd" points="49.65,-164.65 52.74,-174.79 56.65,-164.94 49.65,-164.65"/>
<text text-anchor="middle" x="83.5" y="-64.5" font-family="Helvetica,sans-Serif" font-size="10.00"> radius</text>
</g>
<!-- Node3&#45;&gt;Node2 -->
<g id="edge2" class="edge">
<title>Node3&#45;&gt;Node2</title>
<path fill="none" stroke="#9a32cd" stroke-dasharray="5,2" d="M59.29,-165.61C67.3,-146.35 82.14,-115.7 102.5,-95 110.03,-87.34 120.18,-81.08 129.03,-76.52"/>
<polygon fill="#9a32cd" stroke="#9a32cd" points="56,-164.41 55.55,-175 62.5,-167 56,-164.41"/>
<text text-anchor="middle" x="124" y="-103.5" font-family="Helvetica,sans-Serif" font-size="10.00"> position</text>
</g>
<!-- Node4 -->
<g id="node4" class="node">
<title>Node4</title>
<g id="a_node4"><a xlink:href="classGradient.html" target="_top" xlink:title="A class that represents a gradient.">
<polygon fill="none" stroke="black" points="123,-175 123,-194 182,-194 182,-175 123,-175"/>
<text text-anchor="middle" x="152.5" y="-182" font-family="Helvetica,sans-Serif" font-size="10.00">Gradient</text>
</a>
</g>
</g>
<!-- Node4&#45;&gt;Node2 -->
<g id="edge3" class="edge">
<title>Node4&#45;&gt;Node2</title>
<path fill="none" stroke="#9a32cd" stroke-dasharray="5,2" d="M151.85,-164.66C150.97,-139.37 149.45,-95.44 148.8,-76.78"/>
<polygon fill="#9a32cd" stroke="#9a32cd" points="148.36,-164.95 152.2,-174.82 155.35,-164.7 148.36,-164.95"/>
<text text-anchor="middle" x="172.5" y="-103.5" font-family="Helvetica,sans-Serif" font-size="10.00"> gradient</text>
</g>
<!-- Node5 -->
<g id="node5" class="node">
<title>Node5</title>
<g id="a_node5"><a xlink:href="classColorShape.html" target="_top" xlink:title="Utility class for manipulating RGBA ColorShapes.">
<polygon fill="none" stroke="black" points="200.5,-175 200.5,-194 272.5,-194 272.5,-175 200.5,-175"/>
<text text-anchor="middle" x="236.5" y="-182" font-family="Helvetica,sans-Serif" font-size="10.00">ColorShape</text>
</a>
</g>
</g>
<!-- Node5&#45;&gt;Node2 -->
<g id="edge4" class="edge">
<title>Node5&#45;&gt;Node2</title>
<path fill="none" stroke="#9a32cd" stroke-dasharray="5,2" d="M232.45,-165.19C227.37,-145.78 216.98,-115.21 198.5,-95 191.18,-86.99 180.92,-80.88 171.59,-76.51"/>
<polygon fill="#9a32cd" stroke="#9a32cd" points="229.05,-166.02 234.8,-174.92 235.86,-164.38 229.05,-166.02"/>
<text text-anchor="middle" x="229" y="-109" font-family="Helvetica,sans-Serif" font-size="10.00"> fill</text>
<text text-anchor="middle" x="229" y="-98" font-family="Helvetica,sans-Serif" font-size="10.00">stroke</text>
</g>
<!-- Node5&#45;&gt;Node5 -->
<g id="edge5" class="edge">
<title>Node5&#45;&gt;Node5</title>
<path fill="none" stroke="#9a32cd" stroke-dasharray="5,2" d="M259.22,-197.69C274.98,-201.7 290.5,-197.31 290.5,-184.5 290.5,-169.04 267.86,-165.84 249.52,-174.9"/>
<polygon fill="#9a32cd" stroke="#9a32cd" points="260.11,-194.29 249.52,-194.1 257.68,-200.85 260.11,-194.29"/>
<text text-anchor="middle" x="319.5" y="-226" font-family="Helvetica,sans-Serif" font-size="10.00"> Black</text>
<text text-anchor="middle" x="319.5" y="-215" font-family="Helvetica,sans-Serif" font-size="10.00">Blue</text>
<text text-anchor="middle" x="319.5" y="-204" font-family="Helvetica,sans-Serif" font-size="10.00">Cyan</text>
<text text-anchor="middle" x="319.5" y="-193" font-family="Helvetica,sans-Serif" font-size="10.00">Green</text>
<text text-anchor="middle" x="319.5" y="-182" font-family="Helvetica,sans-Serif" font-size="10.00">Magenta</text>
<text text-anchor="middle" x="319.5" y="-171" font-family="Helvetica,sans-Serif" font-size="10.00">Red</text>
<text text-anchor="middle" x="319.5" y="-160" font-family="Helvetica,sans-Serif" font-size="10.00">Transparent</text>
<text text-anchor="middle" x="319.5" y="-149" font-family="Helvetica,sans-Serif" font-size="10.00">White</text>
<text text-anchor="middle" x="319.5" y="-138" font-family="Helvetica,sans-Serif" font-size="10.00">Yellow</text>
</g>
</g>
</svg>
