<?xml version="1.0" encoding="UTF-8" standalone="no"?>
<!DOCTYPE svg PUBLIC "-//W3C//DTD SVG 1.1//EN"
 "http://www.w3.org/Graphics/SVG/1.1/DTD/svg11.dtd">
<!-- Generated by graphviz version 2.43.0 (0)
 -->
<!-- Title: Parser Pages: 1 -->
<svg width="358pt" height="252pt"
 viewBox="0.00 0.00 357.50 252.00" xmlns="http://www.w3.org/2000/svg" xmlns:xlink="http://www.w3.org/1999/xlink">
<g id="graph0" class="graph" transform="scale(1 1) rotate(0) translate(4 248)">
<title>Parser</title>
<!-- Node1 -->
<g id="node1" class="node">
<title>Node1</title>
<g id="a_node1"><a xlink:title="To manipulate and parse an SVG file.">
<polygon fill="#bfbfbf" stroke="black" points="131,-0.5 131,-19.5 178,-19.5 178,-0.5 131,-0.5"/>
<text text-anchor="middle" x="154.5" y="-7.5" font-family="Helvetica,sans-Serif" font-size="10.00">Parser</text>
</a>
</g>
</g>
<!-- Node1&#45;&gt;Node1 -->
<g id="edge9" class="edge">
<title>Node1&#45;&gt;Node1</title>
<path fill="none" stroke="#9a32cd" stroke-dasharray="5,2" d="M188.51,-15.29C193.01,-14.39 196,-12.63 196,-10 196,-5.69 187.96,-3.7 178.38,-4.04"/>
<polygon fill="#9a32cd" stroke="#9a32cd" points="188.13,-11.81 178.38,-15.96 188.59,-18.8 188.13,-11.81"/>
<text text-anchor="middle" x="218.5" y="-7.5" font-family="Helvetica,sans-Serif" font-size="10.00"> instance</text>
</g>
<!-- Node2 -->
<g id="node2" class="node">
<title>Node2</title>
<g id="a_node2"><a xlink:href="classVector2D.html" target="_top" xlink:title=" ">
<polygon fill="none" stroke="black" points="0,-185 0,-204 105,-204 105,-185 0,-185"/>
<text text-anchor="middle" x="52.5" y="-192" font-family="Helvetica,sans-Serif" font-size="10.00">Vector2D&lt; float &gt;</text>
</a>
</g>
</g>
<!-- Node2&#45;&gt;Node1 -->
<g id="edge1" class="edge">
<title>Node2&#45;&gt;Node1</title>
<path fill="none" stroke="#9a32cd" stroke-dasharray="5,2" d="M48.57,-174.6C44.18,-148.37 40.12,-100.37 60.5,-67 76.15,-41.39 108.28,-26.06 130.6,-18.08"/>
<polygon fill="#9a32cd" stroke="#9a32cd" points="45.18,-175.52 50.46,-184.7 52.06,-174.23 45.18,-175.52"/>
<text text-anchor="middle" x="83.5" y="-74.5" font-family="Helvetica,sans-Serif" font-size="10.00"> viewport</text>
</g>
<!-- Node3 -->
<g id="node3" class="node">
<title>Node3</title>
<g id="a_node3"><a xlink:href="classSVGElement.html" target="_top" xlink:title="Represents an element in an SVG file.">
<polygon fill="none" stroke="black" points="116,-67.5 116,-86.5 193,-86.5 193,-67.5 116,-67.5"/>
<text text-anchor="middle" x="154.5" y="-74.5" font-family="Helvetica,sans-Serif" font-size="10.00">SVGElement</text>
</a>
</g>
</g>
<!-- Node2&#45;&gt;Node3 -->
<g id="edge3" class="edge">
<title>Node2&#45;&gt;Node3</title>
<path fill="none" stroke="#9a32cd" stroke-dasharray="5,2" d="M60.22,-175.87C69.33,-156.62 85.99,-125.77 107.5,-105 115.35,-97.42 125.74,-91.16 134.75,-86.59"/>
<polygon fill="#9a32cd" stroke="#9a32cd" points="57.02,-174.44 56.06,-184.99 63.39,-177.35 57.02,-174.44"/>
<text text-anchor="middle" x="129" y="-113.5" font-family="Helvetica,sans-Serif" font-size="10.00"> position</text>
</g>
<!-- Node3&#45;&gt;Node1 -->
<g id="edge2" class="edge">
<title>Node3&#45;&gt;Node1</title>
<path fill="none" stroke="#9a32cd" stroke-dasharray="5,2" d="M154.5,-57.04C154.5,-44.67 154.5,-29.12 154.5,-19.63"/>
<polygon fill="#9a32cd" stroke="#9a32cd" points="151,-57.23 154.5,-67.23 158,-57.23 151,-57.23"/>
<text text-anchor="middle" x="166" y="-41" font-family="Helvetica,sans-Serif" font-size="10.00"> root</text>
</g>
<!-- Node3&#45;&gt;Node3 -->
<g id="edge7" class="edge">
<title>Node3&#45;&gt;Node3</title>
<path fill="none" stroke="#9a32cd" stroke-dasharray="5,2" d="M203.22,-81.87C207.98,-80.89 211,-79.27 211,-77 211,-73.38 203.27,-71.39 193.06,-71.05"/>
<polygon fill="#9a32cd" stroke="#9a32cd" points="202.63,-78.41 193.06,-82.95 203.37,-85.38 202.63,-78.41"/>
<text text-anchor="middle" x="228.5" y="-74.5" font-family="Helvetica,sans-Serif" font-size="10.00"> parent</text>
</g>
<!-- Node4 -->
<g id="node4" class="node">
<title>Node4</title>
<g id="a_node4"><a xlink:href="classGradient.html" target="_top" xlink:title="A class that represents a gradient.">
<polygon fill="none" stroke="black" points="124,-185 124,-204 183,-204 183,-185 124,-185"/>
<text text-anchor="middle" x="153.5" y="-192" font-family="Helvetica,sans-Serif" font-size="10.00">Gradient</text>
</a>
</g>
</g>
<!-- Node4&#45;&gt;Node3 -->
<g id="edge4" class="edge">
<title>Node4&#45;&gt;Node3</title>
<path fill="none" stroke="#9a32cd" stroke-dasharray="5,2" d="M153.66,-174.66C153.88,-149.37 154.26,-105.44 154.42,-86.78"/>
<polygon fill="#9a32cd" stroke="#9a32cd" points="150.16,-174.79 153.58,-184.82 157.16,-174.85 150.16,-174.79"/>
<text text-anchor="middle" x="176.5" y="-113.5" font-family="Helvetica,sans-Serif" font-size="10.00"> gradient</text>
</g>
<!-- Node5 -->
<g id="node5" class="node">
<title>Node5</title>
<g id="a_node5"><a xlink:href="classColorShape.html" target="_top" xlink:title="Utility class for manipulating RGBA ColorShapes.">
<polygon fill="none" stroke="black" points="201.5,-185 201.5,-204 273.5,-204 273.5,-185 201.5,-185"/>
<text text-anchor="middle" x="237.5" y="-192" font-family="Helvetica,sans-Serif" font-size="10.00">ColorShape</text>
</a>
</g>
</g>
<!-- Node5&#45;&gt;Node3 -->
<g id="edge5" class="edge">
<title>Node5&#45;&gt;Node3</title>
<path fill="none" stroke="#9a32cd" stroke-dasharray="5,2" d="M234.01,-174.98C229.56,-155.62 220.21,-125.29 202.5,-105 195.58,-97.08 185.75,-90.98 176.78,-86.6"/>
<polygon fill="#9a32cd" stroke="#9a32cd" points="230.62,-175.88 236.09,-184.96 237.47,-174.45 230.62,-175.88"/>
<text text-anchor="middle" x="232" y="-119" font-family="Helvetica,sans-Serif" font-size="10.00"> fill</text>
<text text-anchor="middle" x="232" y="-108" font-family="Helvetica,sans-Serif" font-size="10.00">stroke</text>
</g>
<!-- Node5&#45;&gt;Node5 -->
<g id="edge6" class="edge">
<title>Node5&#45;&gt;Node5</title>
<path fill="none" stroke="#9a32cd" stroke-dasharray="5,2" d="M260.22,-207.69C275.98,-211.7 291.5,-207.31 291.5,-194.5 291.5,-179.04 268.86,-175.84 250.52,-184.9"/>
<polygon fill="#9a32cd" stroke="#9a32cd" points="261.11,-204.29 250.52,-204.1 258.68,-210.85 261.11,-204.29"/>
<text text-anchor="middle" x="320.5" y="-236" font-family="Helvetica,sans-Serif" font-size="10.00"> Black</text>
<text text-anchor="middle" x="320.5" y="-225" font-family="Helvetica,sans-Serif" font-size="10.00">Blue</text>
<text text-anchor="middle" x="320.5" y="-214" font-family="Helvetica,sans-Serif" font-size="10.00">Cyan</text>
<text text-anchor="middle" x="320.5" y="-203" font-family="Helvetica,sans-Serif" font-size="10.00">Green</text>
<text text-anchor="middle" x="320.5" y="-192" font-family="Helvetica,sans-Serif" font-size="10.00">Magenta</text>
<text text-anchor="middle" x="320.5" y="-181" font-family="Helvetica,sans-Serif" font-size="10.00">Red</text>
<text text-anchor="middle" x="320.5" y="-170" font-family="Helvetica,sans-Serif" font-size="10.00">Transparent</text>
<text text-anchor="middle" x="320.5" y="-159" font-family="Helvetica,sans-Serif" font-size="10.00">White</text>
<text text-anchor="middle" x="320.5" y="-148" font-family="Helvetica,sans-Serif" font-size="10.00">Yellow</text>
</g>
<!-- Node6 -->
<g id="node6" class="node">
<title>Node6</title>
<g id="a_node6"><a xlink:href="classViewBox.html" target="_top" xlink:title="A ViewBox is a rectangle that defines the area of the SVG canvas that should be visible to the user.">
<polygon fill="none" stroke="black" points="264,-67.5 264,-86.5 323,-86.5 323,-67.5 264,-67.5"/>
<text text-anchor="middle" x="293.5" y="-74.5" font-family="Helvetica,sans-Serif" font-size="10.00">ViewBox</text>
</a>
</g>
</g>
<!-- Node6&#45;&gt;Node1 -->
<g id="edge8" class="edge">
<title>Node6&#45;&gt;Node1</title>
<path fill="none" stroke="#9a32cd" stroke-dasharray="5,2" d="M265.94,-63.11C238.41,-50.24 196.85,-30.81 173.03,-19.67"/>
<polygon fill="#9a32cd" stroke="#9a32cd" points="264.5,-66.3 275.04,-67.37 267.47,-59.96 264.5,-66.3"/>
<text text-anchor="middle" x="254" y="-41" font-family="Helvetica,sans-Serif" font-size="10.00"> viewbox</text>
</g>
</g>
</svg>
