<?xml version="1.0" encoding="UTF-8" standalone="no"?>
<!DOCTYPE svg PUBLIC "-//W3C//DTD SVG 1.1//EN"
 "http://www.w3.org/Graphics/SVG/1.1/DTD/svg11.dtd">
<!-- Generated by graphviz version 2.43.0 (0)
 -->
<!-- Title: SVGElement Pages: 1 -->
<svg width="357pt" height="185pt"
 viewBox="0.00 0.00 356.50 185.00" xmlns="http://www.w3.org/2000/svg" xmlns:xlink="http://www.w3.org/1999/xlink">
<g id="graph0" class="graph" transform="scale(1 1) rotate(0) translate(4 181)">
<title>SVGElement</title>
<!-- Node1 -->
<g id="node1" class="node">
<title>Node1</title>
<g id="a_node1"><a xlink:title="Represents an element in an SVG file.">
<polygon fill="#bfbfbf" stroke="black" points="114,-0.5 114,-19.5 191,-19.5 191,-0.5 114,-0.5"/>
<text text-anchor="middle" x="152.5" y="-7.5" font-family="Helvetica,sans-Serif" font-size="10.00">SVGElement</text>
</a>
</g>
</g>
<!-- Node1&#45;&gt;Node1 -->
<g id="edge5" class="edge">
<title>Node1&#45;&gt;Node1</title>
<path fill="none" stroke="#9a32cd" stroke-dasharray="5,2" d="M201.22,-15.79C205.98,-14.62 209,-12.69 209,-10 209,-5.7 201.27,-3.34 191.06,-2.94"/>
<polygon fill="#9a32cd" stroke="#9a32cd" points="200.54,-12.34 191.06,-17.06 201.41,-19.29 200.54,-12.34"/>
<text text-anchor="middle" x="226.5" y="-7.5" font-family="Helvetica,sans-Serif" font-size="10.00"> parent</text>
</g>
<!-- Node2 -->
<g id="node2" class="node">
<title>Node2</title>
<g id="a_node2"><a xlink:href="classVector2D.html" target="_top" xlink:title=" ">
<polygon fill="none" stroke="black" points="0,-118 0,-137 105,-137 105,-118 0,-118"/>
<text text-anchor="middle" x="52.5" y="-125" font-family="Helvetica,sans-Serif" font-size="10.00">Vector2D&lt; float &gt;</text>
</a>
</g>
</g>
<!-- Node2&#45;&gt;Node1 -->
<g id="edge1" class="edge">
<title>Node2&#45;&gt;Node1</title>
<path fill="none" stroke="#9a32cd" stroke-dasharray="5,2" d="M59.91,-108.59C68.58,-89.31 84.48,-58.65 105.5,-38 113.29,-30.35 123.67,-24.09 132.69,-19.53"/>
<polygon fill="#9a32cd" stroke="#9a32cd" points="56.6,-107.42 55.85,-117.99 63.03,-110.2 56.6,-107.42"/>
<text text-anchor="middle" x="127" y="-46.5" font-family="Helvetica,sans-Serif" font-size="10.00"> position</text>
</g>
<!-- Node3 -->
<g id="node3" class="node">
<title>Node3</title>
<g id="a_node3"><a xlink:href="classGradient.html" target="_top" xlink:title="A class that represents a gradient.">
<polygon fill="none" stroke="black" points="123,-118 123,-137 182,-137 182,-118 123,-118"/>
<text text-anchor="middle" x="152.5" y="-125" font-family="Helvetica,sans-Serif" font-size="10.00">Gradient</text>
</a>
</g>
</g>
<!-- Node3&#45;&gt;Node1 -->
<g id="edge2" class="edge">
<title>Node3&#45;&gt;Node1</title>
<path fill="none" stroke="#9a32cd" stroke-dasharray="5,2" d="M152.5,-107.66C152.5,-82.37 152.5,-38.44 152.5,-19.78"/>
<polygon fill="#9a32cd" stroke="#9a32cd" points="149,-107.82 152.5,-117.82 156,-107.82 149,-107.82"/>
<text text-anchor="middle" x="174.5" y="-46.5" font-family="Helvetica,sans-Serif" font-size="10.00"> gradient</text>
</g>
<!-- Node4 -->
<g id="node4" class="node">
<title>Node4</title>
<g id="a_node4"><a xlink:href="classColorShape.html" target="_top" xlink:title="Utility class for manipulating RGBA ColorShapes.">
<polygon fill="none" stroke="black" points="200.5,-118 200.5,-137 272.5,-137 272.5,-118 200.5,-118"/>
<text text-anchor="middle" x="236.5" y="-125" font-family="Helvetica,sans-Serif" font-size="10.00">ColorShape</text>
</a>
</g>
</g>
<!-- Node4&#45;&gt;Node1 -->
<g id="edge3" class="edge">
<title>Node4&#45;&gt;Node1</title>
<path fill="none" stroke="#9a32cd" stroke-dasharray="5,2" d="M232.78,-107.98C228.08,-88.62 218.38,-58.29 200.5,-38 193.55,-30.11 183.71,-24.01 174.74,-19.63"/>
<polygon fill="#9a32cd" stroke="#9a32cd" points="229.41,-108.95 234.98,-117.95 236.24,-107.43 229.41,-108.95"/>
<text text-anchor="middle" x="230" y="-52" font-family="Helvetica,sans-Serif" font-size="10.00"> fill</text>
<text text-anchor="middle" x="230" y="-41" font-family="Helvetica,sans-Serif" font-size="10.00">stroke</text>
</g>
<!-- Node4&#45;&gt;Node4 -->
<g id="edge4" class="edge">
<title>Node4&#45;&gt;Node4</title>
<path fill="none" stroke="#9a32cd" stroke-dasharray="5,2" d="M259.22,-140.69C274.98,-144.7 290.5,-140.31 290.5,-127.5 290.5,-112.04 267.86,-108.84 249.52,-117.9"/>
<polygon fill="#9a32cd" stroke="#9a32cd" points="260.11,-137.29 249.52,-137.1 257.68,-143.85 260.11,-137.29"/>
<text text-anchor="middle" x="319.5" y="-169" font-family="Helvetica,sans-Serif" font-size="10.00"> Black</text>
<text text-anchor="middle" x="319.5" y="-158" font-family="Helvetica,sans-Serif" font-size="10.00">Blue</text>
<text text-anchor="middle" x="319.5" y="-147" font-family="Helvetica,sans-Serif" font-size="10.00">Cyan</text>
<text text-anchor="middle" x="319.5" y="-136" font-family="Helvetica,sans-Serif" font-size="10.00">Green</text>
<text text-anchor="middle" x="319.5" y="-125" font-family="Helvetica,sans-Serif" font-size="10.00">Magenta</text>
<text text-anchor="middle" x="319.5" y="-114" font-family="Helvetica,sans-Serif" font-size="10.00">Red</text>
<text text-anchor="middle" x="319.5" y="-103" font-family="Helvetica,sans-Serif" font-size="10.00">Transparent</text>
<text text-anchor="middle" x="319.5" y="-92" font-family="Helvetica,sans-Serif" font-size="10.00">White</text>
<text text-anchor="middle" x="319.5" y="-81" font-family="Helvetica,sans-Serif" font-size="10.00">Yellow</text>
</g>
</g>
</svg>
