<?xml version="1.0" encoding="UTF-8" standalone="no"?>
<!DOCTYPE svg PUBLIC "-//W3C//DTD SVG 1.1//EN"
 "http://www.w3.org/Graphics/SVG/1.1/DTD/svg11.dtd">
<!-- Generated by graphviz version 2.43.0 (0)
 -->
<!-- Title: Line Pages: 1 -->
<svg width="338pt" height="242pt"
 viewBox="0.00 0.00 337.50 242.00" xmlns="http://www.w3.org/2000/svg" xmlns:xlink="http://www.w3.org/1999/xlink">
<g id="graph0" class="graph" transform="scale(1 1) rotate(0) translate(4 238)">
<title>Line</title>
<!-- Node1 -->
<g id="node1" class="node">
<title>Node1</title>
<g id="a_node1"><a xlink:title="Represents a line in 2D space.">
<polygon fill="#bfbfbf" stroke="black" points="65,-0.5 65,-19.5 102,-19.5 102,-0.5 65,-0.5"/>
<text text-anchor="middle" x="83.5" y="-7.5" font-family="Helvetica,sans-Serif" font-size="10.00">Line</text>
</a>
</g>
</g>
<!-- Node2 -->
<g id="node2" class="node">
<title>Node2</title>
<g id="a_node2"><a xlink:href="classSVGElement.html" target="_top" xlink:title="Represents an element in an SVG file.">
<polygon fill="none" stroke="black" points="116,-57.5 116,-76.5 193,-76.5 193,-57.5 116,-57.5"/>
<text text-anchor="middle" x="154.5" y="-64.5" font-family="Helvetica,sans-Serif" font-size="10.00">SVGElement</text>
</a>
</g>
</g>
<!-- Node2&#45;&gt;Node1 -->
<g id="edge1" class="edge">
<title>Node2&#45;&gt;Node1</title>
<path fill="none" stroke="midnightblue" d="M135.13,-51C122.18,-40.96 105.58,-28.1 94.75,-19.71"/>
<polygon fill="midnightblue" stroke="midnightblue" points="133.36,-54.05 143.41,-57.41 137.64,-48.52 133.36,-54.05"/>
</g>
<!-- Node2&#45;&gt;Node2 -->
<g id="edge4" class="edge">
<title>Node2&#45;&gt;Node2</title>
<path fill="none" stroke="#9a32cd" stroke-dasharray="5,2" d="M203.22,-71.26C207.98,-70.4 211,-68.98 211,-67 211,-63.83 203.27,-62.09 193.06,-61.8"/>
<polygon fill="#9a32cd" stroke="#9a32cd" points="202.69,-67.8 193.06,-72.2 203.34,-74.77 202.69,-67.8"/>
<text text-anchor="middle" x="228.5" y="-64.5" font-family="Helvetica,sans-Serif" font-size="10.00"> parent</text>
</g>
<!-- Node3 -->
<g id="node3" class="node">
<title>Node3</title>
<g id="a_node3"><a xlink:href="classVector2D.html" target="_top" xlink:title=" ">
<polygon fill="none" stroke="black" points="0,-175 0,-194 105,-194 105,-175 0,-175"/>
<text text-anchor="middle" x="52.5" y="-182" font-family="Helvetica,sans-Serif" font-size="10.00">Vector2D&lt; float &gt;</text>
</a>
</g>
</g>
<!-- Node3&#45;&gt;Node1 -->
<g id="edge7" class="edge">
<title>Node3&#45;&gt;Node1</title>
<path fill="none" stroke="#9a32cd" stroke-dasharray="5,2" d="M51.37,-164.42C50.42,-139.32 50.51,-94.05 60.5,-57 64.22,-43.21 72.27,-28.69 77.79,-19.74"/>
<polygon fill="#9a32cd" stroke="#9a32cd" points="47.89,-164.9 51.87,-174.72 54.88,-164.56 47.89,-164.9"/>
<text text-anchor="middle" x="83.5" y="-64.5" font-family="Helvetica,sans-Serif" font-size="10.00"> direction</text>
</g>
<!-- Node3&#45;&gt;Node2 -->
<g id="edge2" class="edge">
<title>Node3&#45;&gt;Node2</title>
<path fill="none" stroke="#9a32cd" stroke-dasharray="5,2" d="M60.22,-165.87C69.33,-146.62 85.99,-115.77 107.5,-95 115.35,-87.42 125.74,-81.16 134.75,-76.59"/>
<polygon fill="#9a32cd" stroke="#9a32cd" points="57.02,-164.44 56.06,-174.99 63.39,-167.35 57.02,-164.44"/>
<text text-anchor="middle" x="129" y="-103.5" font-family="Helvetica,sans-Serif" font-size="10.00"> position</text>
</g>
<!-- Node4 -->
<g id="node4" class="node">
<title>Node4</title>
<g id="a_node4"><a xlink:href="classGradient.html" target="_top" xlink:title="A class that represents a gradient.">
<polygon fill="none" stroke="black" points="124,-175 124,-194 183,-194 183,-175 124,-175"/>
<text text-anchor="middle" x="153.5" y="-182" font-family="Helvetica,sans-Serif" font-size="10.00">Gradient</text>
</a>
</g>
</g>
<!-- Node4&#45;&gt;Node2 -->
<g id="edge3" class="edge">
<title>Node4&#45;&gt;Node2</title>
<path fill="none" stroke="#9a32cd" stroke-dasharray="5,2" d="M153.66,-164.66C153.88,-139.37 154.26,-95.44 154.42,-76.78"/>
<polygon fill="#9a32cd" stroke="#9a32cd" points="150.16,-164.79 153.58,-174.82 157.16,-164.85 150.16,-164.79"/>
<text text-anchor="middle" x="176.5" y="-103.5" font-family="Helvetica,sans-Serif" font-size="10.00"> gradient</text>
</g>
<!-- Node5 -->
<g id="node5" class="node">
<title>Node5</title>
<g id="a_node5"><a xlink:href="classmColor.html" target="_top" xlink:title="Utility class for manipulating RGBA mColors.">
<polygon fill="none" stroke="black" points="201.5,-175 201.5,-194 253.5,-194 253.5,-175 201.5,-175"/>
<text text-anchor="middle" x="227.5" y="-182" font-family="Helvetica,sans-Serif" font-size="10.00">mColor</text>
</a>
</g>
</g>
<!-- Node5&#45;&gt;Node2 -->
<g id="edge5" class="edge">
<title>Node5&#45;&gt;Node2</title>
<path fill="none" stroke="#9a32cd" stroke-dasharray="5,2" d="M226.06,-164.79C223.72,-145.49 217.58,-115.4 201.5,-95 195.21,-87.02 185.86,-80.97 177.15,-76.64"/>
<polygon fill="#9a32cd" stroke="#9a32cd" points="222.61,-165.39 227.07,-175 229.57,-164.7 222.61,-165.39"/>
<text text-anchor="middle" x="229" y="-109" font-family="Helvetica,sans-Serif" font-size="10.00"> fill</text>
<text text-anchor="middle" x="229" y="-98" font-family="Helvetica,sans-Serif" font-size="10.00">stroke</text>
</g>
<!-- Node5&#45;&gt;Node5 -->
<g id="edge6" class="edge">
<title>Node5&#45;&gt;Node5</title>
<path fill="none" stroke="#9a32cd" stroke-dasharray="5,2" d="M247.65,-198.15C259.9,-201.31 271.5,-196.76 271.5,-184.5 271.5,-169.11 253.24,-165.87 238.33,-174.76"/>
<polygon fill="#9a32cd" stroke="#9a32cd" points="248.9,-194.89 238.33,-194.24 246.19,-201.34 248.9,-194.89"/>
<text text-anchor="middle" x="300.5" y="-226" font-family="Helvetica,sans-Serif" font-size="10.00"> Black</text>
<text text-anchor="middle" x="300.5" y="-215" font-family="Helvetica,sans-Serif" font-size="10.00">Blue</text>
<text text-anchor="middle" x="300.5" y="-204" font-family="Helvetica,sans-Serif" font-size="10.00">Cyan</text>
<text text-anchor="middle" x="300.5" y="-193" font-family="Helvetica,sans-Serif" font-size="10.00">Green</text>
<text text-anchor="middle" x="300.5" y="-182" font-family="Helvetica,sans-Serif" font-size="10.00">Magenta</text>
<text text-anchor="middle" x="300.5" y="-171" font-family="Helvetica,sans-Serif" font-size="10.00">Red</text>
<text text-anchor="middle" x="300.5" y="-160" font-family="Helvetica,sans-Serif" font-size="10.00">Transparent</text>
<text text-anchor="middle" x="300.5" y="-149" font-family="Helvetica,sans-Serif" font-size="10.00">White</text>
<text text-anchor="middle" x="300.5" y="-138" font-family="Helvetica,sans-Serif" font-size="10.00">Yellow</text>
</g>
</g>
</svg>
